Garamon(d-t)-Italic.ufo
<glyph name="exclam" format="2">
	<advance width="336"/>
	<unicode hex="0021"/>
	<note>
		exclam
  </note>
	<outline>
		<contour>
			<point x="152" y="190" type="qcurve" smooth="yes"/>
			<point x="165" y="190"/>
			<point x="175" y="202"/>
			<point x="179" y="223"/>
			<point x="182" y="249"/>
			<point x="187" y="264" type="qcurve" smooth="yes"/>
			<point x="203" y="309"/>
			<point x="220" y="378"/>
			<point x="235" y="443"/>
			<point x="252" y="512"/>
			<point x="267" y="556" type="qcurve" smooth="yes"/>
			<point x="303" y="662" type="line" smooth="yes"/>
			<point x="304" y="665"/>
			<point x="304" y="671" type="qcurve" smooth="yes"/>
			<point x="304" y="683"/>
			<point x="287" y="698"/>
			<point x="276" y="698" type="qcurve" smooth="yes"/>
			<point x="257" y="698"/>
			<point x="250" y="679" type="qcurve" smooth="yes"/>
			<point x="214" y="574" type="line" smooth="yes"/>
			<point x="199" y="529"/>
			<point x="182" y="460"/>
			<point x="168" y="395"/>
			<point x="150" y="326"/>
			<point x="134" y="280" type="qcurve" smooth="yes"/>
			<point x="130" y="269"/>
			<point x="124" y="244"/>
			<point x="124" y="230" type="qcurve" smooth="yes"/>
			<point x="124" y="211"/>
			<point x="135" y="190"/>
		</contour>
		<contour>
			<point x="100" y="8" type="qcurve"/>
			<point x="110" y="0"/>
			<point x="121" y="0" type="qcurve" smooth="yes"/>
			<point x="132" y="0"/>
			<point x="156" y="22"/>
			<point x="175" y="51"/>
			<point x="188" y="80"/>
			<point x="188" y="87" type="qcurve" smooth="yes"/>
			<point x="188" y="98"/>
			<point x="174" y="116"/>
			<point x="161" y="116" type="qcurve" smooth="yes"/>
			<point x="145" y="116"/>
			<point x="136" y="103" type="qcurve"/>
			<point x="132" y="95"/>
			<point x="117" y="74"/>
			<point x="103" y="52"/>
			<point x="92" y="33"/>
			<point x="92" y="27" type="qcurve" smooth="yes"/>
			<point x="92" y="23"/>
			<point x="97" y="8"/>
		</contour>
	</outline>
</glyph>
<glyph name="quotedbl" format="2">
	<advance width="398"/>
	<unicode hex="0022"/>
	<note>
		quotedbl
  </note>
	<outline>
		<contour>
			<point x="153" y="343" type="qcurve" smooth="yes"/>
			<point x="168" y="343"/>
			<point x="180" y="364"/>
			<point x="180" y="373" type="qcurve" smooth="yes"/>
			<point x="180" y="383"/>
			<point x="173" y="390" type="qcurve" smooth="yes"/>
			<point x="143" y="421"/>
			<point x="143" y="475" type="qcurve" smooth="yes"/>
			<point x="143" y="539"/>
			<point x="210" y="638"/>
			<point x="270" y="671" type="qcurve"/>
			<point x="283" y="681"/>
			<point x="283" y="693" type="qcurve" smooth="yes"/>
			<point x="283" y="704"/>
			<point x="271" y="722"/>
			<point x="260" y="722" type="qcurve" smooth="yes"/>
			<point x="252" y="722"/>
			<point x="245" y="718" type="qcurve" smooth="yes"/>
			<point x="166" y="674"/>
			<point x="91" y="545"/>
			<point x="91" y="462" type="qcurve" smooth="yes"/>
			<point x="91" y="396"/>
			<point x="136" y="352" type="qcurve" smooth="yes"/>
			<point x="145" y="343"/>
		</contour>
		<contour>
			<point x="274" y="343" type="qcurve" smooth="yes"/>
			<point x="285" y="343"/>
			<point x="304" y="363"/>
			<point x="304" y="373" type="qcurve" smooth="yes"/>
			<point x="304" y="377"/>
			<point x="300" y="385" type="qcurve" smooth="yes"/>
			<point x="277" y="432"/>
			<point x="277" y="477" type="qcurve" smooth="yes"/>
			<point x="277" y="527"/>
			<point x="337" y="615"/>
			<point x="401" y="659" type="qcurve"/>
			<point x="414" y="667"/>
			<point x="414" y="682" type="qcurve" smooth="yes"/>
			<point x="414" y="693"/>
			<point x="396" y="710"/>
			<point x="385" y="710" type="qcurve" smooth="yes"/>
			<point x="376" y="710"/>
			<point x="371" y="706" type="qcurve"/>
			<point x="224" y="602"/>
			<point x="224" y="478" type="qcurve" smooth="yes"/>
			<point x="224" y="466"/>
			<point x="231" y="420"/>
			<point x="243" y="376"/>
			<point x="262" y="343"/>
		</contour>
	</outline>
</glyph>
<glyph name="ampersand" format="2">
	<advance width="1146"/>
	<unicode hex="0026"/>
	<note>
		ampersand
  </note>
	<outline>
		<contour>
			<point x="202" y="121" type="line" smooth="yes"/>
			<point x="216" y="121"/>
			<point x="225" y="132" type="qcurve" smooth="yes"/>
			<point x="250" y="163"/>
			<point x="307" y="222"/>
			<point x="361" y="285"/>
			<point x="410" y="354"/>
			<point x="427" y="395" type="qcurve"/>
			<point x="451" y="397"/>
			<point x="489" y="426"/>
			<point x="522" y="465"/>
			<point x="553" y="504"/>
			<point x="569" y="516" type="qcurve" smooth="yes"/>
			<point x="591" y="532"/>
			<point x="619" y="571"/>
			<point x="635" y="610"/>
			<point x="640" y="649"/>
			<point x="640" y="667" type="qcurve" smooth="yes"/>
			<point x="640" y="688"/>
			<point x="628" y="716"/>
			<point x="608" y="716" type="qcurve" smooth="yes"/>
			<point x="596" y="716"/>
			<point x="581" y="698"/>
			<point x="581" y="687" type="qcurve" smooth="yes"/>
			<point x="581" y="682"/>
			<point x="582" y="671"/>
			<point x="582" y="666" type="qcurve" smooth="yes"/>
			<point x="582" y="630"/>
			<point x="559" y="581"/>
			<point x="534" y="563" type="qcurve" smooth="yes"/>
			<point x="514" y="548"/>
			<point x="480" y="510"/>
			<point x="452" y="476"/>
			<point x="429" y="453"/>
			<point x="420" y="453" type="qcurve" smooth="yes"/>
			<point x="411" y="453"/>
			<point x="394" y="469" type="qcurve" smooth="yes"/>
			<point x="359" y="501"/>
			<point x="315" y="501" type="qcurve" smooth="yes"/>
			<point x="285" y="501"/>
			<point x="231" y="473"/>
			<point x="183" y="428"/>
			<point x="145" y="371"/>
			<point x="117" y="313"/>
			<point x="102" y="258"/>
			<point x="102" y="238" type="qcurve" smooth="yes"/>
			<point x="102" y="200"/>
			<point x="131" y="126"/>
			<point x="157" y="81" type="qcurve" smooth="yes"/>
			<point x="172" y="55"/>
			<point x="225" y="16"/>
			<point x="291" y="-11"/>
			<point x="365" y="-25"/>
			<point x="401" y="-25" type="qcurve" smooth="yes"/>
			<point x="418" y="-25"/>
			<point x="451" y="-21"/>
			<point x="466" y="-18" type="qcurve" smooth="yes"/>
			<point x="620" y="14"/>
			<point x="841" y="196"/>
			<point x="917" y="347" type="qcurve"/>
			<point x="922" y="356"/>
			<point x="929" y="374"/>
			<point x="933" y="380" type="qcurve"/>
			<point x="950" y="369"/>
			<point x="984" y="355"/>
			<point x="1003" y="355" type="qcurve" smooth="yes"/>
			<point x="1070" y="355"/>
			<point x="1113" y="437" type="qcurve" smooth="yes"/>
			<point x="1116" y="443"/>
			<point x="1116" y="450" type="qcurve" smooth="yes"/>
			<point x="1116" y="454"/>
			<point x="1114" y="460" type="qcurve"/>
			<point x="1101" y="493"/>
			<point x="1057" y="537"/>
			<point x="1030" y="537" type="qcurve" smooth="yes"/>
			<point x="1008" y="537"/>
			<point x="980" y="506"/>
			<point x="980" y="483" type="qcurve" smooth="yes"/>
			<point x="980" y="451"/>
			<point x="1010" y="451" type="qcurve" smooth="yes"/>
			<point x="1031" y="451"/>
			<point x="1038" y="474" type="qcurve"/>
			<point x="1048" y="466"/>
			<point x="1054" y="452" type="qcurve"/>
			<point x="1031" y="412"/>
			<point x="1004" y="412" type="qcurve" smooth="yes"/>
			<point x="981" y="412"/>
			<point x="925" y="455"/>
			<point x="858" y="508"/>
			<point x="780" y="551"/>
			<point x="735" y="551" type="qcurve" smooth="yes"/>
			<point x="717" y="551"/>
			<point x="679" y="538"/>
			<point x="649" y="515"/>
			<point x="630" y="483"/>
			<point x="630" y="464" type="qcurve" smooth="yes"/>
			<point x="630" y="453"/>
			<point x="636" y="424"/>
			<point x="651" y="398"/>
			<point x="674" y="380"/>
			<point x="691" y="380" type="qcurve" smooth="yes"/>
			<point x="713" y="380"/>
			<point x="746" y="403"/>
			<point x="746" y="418" type="qcurve" smooth="yes"/>
			<point x="746" y="431"/>
			<point x="729" y="447"/>
			<point x="717" y="447" type="qcurve" smooth="yes"/>
			<point x="712" y="447"/>
			<point x="703" y="445"/>
			<point x="696" y="440" type="qcurve"/>
			<point x="688" y="456"/>
			<point x="688" y="464" type="qcurve" smooth="yes"/>
			<point x="688" y="472"/>
			<point x="699" y="483"/>
			<point x="715" y="490"/>
			<point x="730" y="493"/>
			<point x="735" y="493" type="qcurve" smooth="yes"/>
			<point x="755" y="493"/>
			<point x="797" y="476"/>
			<point x="837" y="451"/>
			<point x="873" y="424"/>
			<point x="886" y="414" type="qcurve"/>
			<point x="880" y="406"/>
			<point x="873" y="390"/>
			<point x="871" y="385" type="qcurve"/>
			<point x="799" y="240"/>
			<point x="597" y="70"/>
			<point x="454" y="39" type="qcurve" smooth="yes"/>
			<point x="428" y="33"/>
			<point x="400" y="33" type="qcurve" smooth="yes"/>
			<point x="365" y="33"/>
			<point x="301" y="47"/>
			<point x="248" y="71"/>
			<point x="209" y="103"/>
			<point x="200" y="121" type="qcurve"/>
		</contour>
		<contour>
			<point x="355" y="426" type="qcurve"/>
			<point x="359" y="421"/>
			<point x="367" y="415"/>
			<point x="371" y="412" type="qcurve"/>
			<point x="350" y="364"/>
			<point x="284" y="284"/>
			<point x="247" y="244" type="qcurve"/>
			<point x="239" y="236"/>
			<point x="219" y="216"/>
			<point x="199" y="195"/>
			<point x="182" y="174"/>
			<point x="177" y="165" type="qcurve"/>
			<point x="159" y="204"/>
			<point x="159" y="238" type="qcurve" smooth="yes"/>
			<point x="159" y="259"/>
			<point x="185" y="328"/>
			<point x="228" y="394"/>
			<point x="284" y="443"/>
			<point x="313" y="443" type="qcurve" smooth="yes"/>
			<point x="337" y="443"/>
		</contour>
	</outline>
</glyph>
<glyph name="quotesingle" format="2">
	<advance width="318"/>
	<unicode hex="0027"/>
	<note>
		quotesingle
  </note>
	<outline>
		<contour>
			<point x="187" y="584" type="qcurve" smooth="yes"/>
			<point x="195" y="584"/>
			<point x="203" y="589" type="qcurve" smooth="yes"/>
			<point x="224" y="603"/>
			<point x="267" y="636"/>
			<point x="301" y="674"/>
			<point x="322" y="718"/>
			<point x="322" y="742" type="qcurve" smooth="yes"/>
			<point x="322" y="752"/>
			<point x="316" y="781"/>
			<point x="304" y="808"/>
			<point x="285" y="827"/>
			<point x="273" y="827" type="qcurve" smooth="yes"/>
			<point x="260" y="827"/>
			<point x="244" y="809"/>
			<point x="244" y="798" type="qcurve" smooth="yes"/>
			<point x="244" y="785"/>
			<point x="264" y="758"/>
			<point x="264" y="744" type="qcurve" smooth="yes"/>
			<point x="264" y="729"/>
			<point x="246" y="699"/>
			<point x="219" y="672"/>
			<point x="186" y="648"/>
			<point x="171" y="638" type="qcurve" smooth="yes"/>
			<point x="158" y="629"/>
			<point x="158" y="613" type="qcurve" smooth="yes"/>
			<point x="158" y="601"/>
			<point x="175" y="584"/>
		</contour>
	</outline>
</glyph>
<glyph name="parenleft" format="2">
	<advance width="275"/>
	<unicode hex="0028"/>
	<note>
		parenleft
  </note>
	<outline>
		<contour>
			<point x="125" y="-140" type="qcurve" smooth="yes"/>
			<point x="128" y="-140" type="line" smooth="yes"/>
			<point x="137" y="-140"/>
			<point x="150" y="-122"/>
			<point x="150" y="-114" type="qcurve" smooth="yes"/>
			<point x="150" y="-110"/>
			<point x="146" y="-102" type="qcurve"/>
			<point x="128" y="-70"/>
			<point x="106" y="-6"/>
			<point x="95" y="57"/>
			<point x="92" y="117"/>
			<point x="92" y="145" type="qcurve" smooth="yes"/>
			<point x="92" y="281"/>
			<point x="202" y="519"/>
			<point x="319" y="634" type="qcurve" smooth="yes"/>
			<point x="327" y="642"/>
			<point x="353" y="666"/>
			<point x="377" y="691"/>
			<point x="395" y="715"/>
			<point x="395" y="723" type="qcurve" smooth="yes"/>
			<point x="395" y="734"/>
			<point x="378" y="749"/>
			<point x="367" y="749" type="qcurve" smooth="yes"/>
			<point x="354" y="749"/>
			<point x="348" y="739" type="qcurve"/>
			<point x="306" y="700"/>
			<point x="214" y="613"/>
			<point x="175" y="558" type="qcurve" smooth="yes"/>
			<point x="38" y="366"/>
			<point x="38" y="139" type="qcurve" smooth="yes"/>
			<point x="38" y="52"/>
			<point x="57" y="-36" type="qcurve"/>
			<point x="62" y="-50"/>
			<point x="76" y="-86"/>
			<point x="92" y="-118"/>
			<point x="113" y="-140"/>
		</contour>
	</outline>
</glyph>
<glyph name="parenright" format="2">
	<advance width="381"/>
	<unicode hex="0029"/>
	<note>
		parenright
  </note>
	<outline>
		<contour>
			<point x="-7" y="-157" type="qcurve" smooth="yes"/>
			<point x="18" y="-157"/>
			<point x="44" y="-132" type="qcurve" smooth="yes"/>
			<point x="79" y="-99"/>
			<point x="151" y="-27"/>
			<point x="217" y="53"/>
			<point x="272" y="142"/>
			<point x="292" y="192" type="qcurve" smooth="yes"/>
			<point x="315" y="252"/>
			<point x="350" y="374"/>
			<point x="350" y="443" type="qcurve" smooth="yes"/>
			<point x="350" y="467"/>
			<point x="347" y="494" type="qcurve" smooth="yes"/>
			<point x="343" y="525"/>
			<point x="324" y="614"/>
			<point x="298" y="697"/>
			<point x="269" y="755"/>
			<point x="255" y="755" type="qcurve" smooth="yes"/>
			<point x="241" y="755"/>
			<point x="224" y="739"/>
			<point x="224" y="728" type="qcurve" smooth="yes"/>
			<point x="224" y="724"/>
			<point x="226" y="718" type="qcurve"/>
			<point x="253" y="661"/>
			<point x="295" y="515"/>
			<point x="295" y="439" type="qcurve" smooth="yes"/>
			<point x="295" y="379"/>
			<point x="263" y="266"/>
			<point x="241" y="214" type="qcurve"/>
			<point x="224" y="168"/>
			<point x="173" y="85"/>
			<point x="110" y="9"/>
			<point x="41" y="-62"/>
			<point x="6" y="-95" type="qcurve"/>
			<point x="3" y="-97"/>
			<point x="-8" y="-102"/>
			<point x="-10" y="-102" type="qcurve"/>
			<point x="-13" y="-101"/>
			<point x="-18" y="-101" type="qcurve" smooth="yes"/>
			<point x="-29" y="-101"/>
			<point x="-45" y="-116"/>
			<point x="-45" y="-127" type="qcurve" smooth="yes"/>
			<point x="-45" y="-144"/>
			<point x="-21" y="-157"/>
		</contour>
	</outline>
</glyph>
<glyph name="comma" format="2">
	<advance width="234"/>
	<unicode hex="002C"/>
	<note>
		comma
  </note>
	<outline>
		<contour>
			<point x="14" y="-157" type="qcurve" smooth="yes"/>
			<point x="50" y="-157"/>
			<point x="109" y="-116"/>
			<point x="153" y="-59"/>
			<point x="177" y="0"/>
			<point x="177" y="17" type="qcurve" smooth="yes"/>
			<point x="177" y="29"/>
			<point x="167" y="60"/>
			<point x="167" y="76" type="qcurve" smooth="yes"/>
			<point x="167" y="90"/>
			<point x="168" y="118"/>
			<point x="168" y="132" type="qcurve" smooth="yes"/>
			<point x="168" y="146"/>
			<point x="159" y="172"/>
			<point x="142" y="172" type="qcurve" smooth="yes"/>
			<point x="122" y="172"/>
			<point x="111" y="132"/>
			<point x="111" y="109" type="qcurve" smooth="yes"/>
			<point x="111" y="83"/>
			<point x="113" y="40"/>
			<point x="121" y="16" type="qcurve"/>
			<point x="106" y="-13"/>
			<point x="84" y="-56"/>
			<point x="61" y="-85"/>
			<point x="33" y="-100"/>
			<point x="12" y="-102" type="qcurve" smooth="yes"/>
			<point x="1" y="-103"/>
			<point x="-13" y="-119"/>
			<point x="-13" y="-129" type="qcurve" smooth="yes"/>
			<point x="-13" y="-140"/>
			<point x="2" y="-157"/>
		</contour>
	</outline>
</glyph>
<glyph name="hyphen" format="2">
	<advance width="420"/>
	<unicode hex="002D"/>
	<note>
		hyphen
  </note>
	<outline>
		<contour>
			<point x="204" y="167" type="qcurve" smooth="yes"/>
			<point x="239" y="167"/>
			<point x="306" y="166"/>
			<point x="340" y="169" type="qcurve" smooth="yes"/>
			<point x="351" y="170"/>
			<point x="367" y="193"/>
			<point x="367" y="209" type="qcurve" smooth="yes"/>
			<point x="367" y="224"/>
			<point x="351" y="246"/>
			<point x="340" y="246" type="qcurve" smooth="yes"/>
			<point x="306" y="246"/>
			<point x="238" y="243"/>
			<point x="204" y="243" type="qcurve" smooth="yes"/>
			<point x="170" y="243"/>
			<point x="103" y="246"/>
			<point x="70" y="246" type="qcurve" smooth="yes"/>
			<point x="58" y="246"/>
			<point x="42" y="226"/>
			<point x="42" y="209" type="qcurve" smooth="yes"/>
			<point x="42" y="193"/>
			<point x="56" y="170"/>
			<point x="68" y="169" type="qcurve" smooth="yes"/>
			<point x="102" y="166"/>
			<point x="170" y="167"/>
		</contour>
	</outline>
</glyph>
<glyph name="period" format="2">
	<advance width="212"/>
	<unicode hex="002E"/>
	<note>
		period
  </note>
	<outline>
		<contour>
			<point x="25" y="82" type="qcurve" smooth="yes"/>
			<point x="25" y="52"/>
			<point x="67" y="10"/>
			<point x="97" y="10" type="qcurve" smooth="yes"/>
			<point x="127" y="10"/>
			<point x="170" y="52"/>
			<point x="170" y="82" type="qcurve" smooth="yes"/>
			<point x="170" y="112"/>
			<point x="127" y="155"/>
			<point x="97" y="155" type="qcurve" smooth="yes"/>
			<point x="67" y="155"/>
			<point x="25" y="112"/>
		</contour>
	</outline>
</glyph>
<glyph name="slash" format="2">
	<advance width="502"/>
	<unicode hex="002F"/>
	<note>
		slash
  </note>
	<outline>
		<contour>
			<point x="47" y="-97" type="qcurve" smooth="yes"/>
			<point x="60" y="-97"/>
			<point x="72" y="-81"/>
			<point x="76" y="-61"/>
			<point x="77" y="-42"/>
			<point x="79" y="-40" type="qcurve"/>
			<point x="180" y="128"/>
			<point x="406" y="444"/>
			<point x="515" y="598" type="qcurve" smooth="yes"/>
			<point x="539" y="632"/>
			<point x="551" y="696"/>
			<point x="551" y="728" type="qcurve" smooth="yes"/>
			<point x="551" y="739"/>
			<point x="536" y="758"/>
			<point x="523" y="758" type="qcurve" smooth="yes"/>
			<point x="512" y="758"/>
			<point x="494" y="741"/>
			<point x="494" y="730" type="qcurve" smooth="yes"/>
			<point x="494" y="701"/>
			<point x="484" y="656"/>
			<point x="467" y="631" type="qcurve" smooth="yes"/>
			<point x="358" y="473"/>
			<point x="132" y="158"/>
			<point x="29" y="-10" type="qcurve" smooth="yes"/>
			<point x="21" y="-24"/>
			<point x="17" y="-48"/>
			<point x="17" y="-58" type="qcurve" smooth="yes"/>
			<point x="17" y="-74"/>
			<point x="27" y="-97"/>
		</contour>
	</outline>
</glyph>
<glyph name="zero" format="2">
	<advance width="422"/>
	<unicode hex="0030"/>
	<note>
		zero
  </note>
	<outline>
		<contour>
			<point x="150" y="-24" type="qcurve" smooth="yes"/>
			<point x="176" y="-24"/>
			<point x="227" y="0"/>
			<point x="249" y="20" type="qcurve"/>
			<point x="387" y="162"/>
			<point x="387" y="326" type="qcurve" smooth="yes"/>
			<point x="387" y="380"/>
			<point x="367" y="450"/>
			<point x="334" y="489"/>
			<point x="292" y="504"/>
			<point x="270" y="504" type="qcurve" smooth="yes"/>
			<point x="260" y="504"/>
			<point x="238" y="502"/>
			<point x="231" y="494" type="qcurve"/>
			<point x="160" y="438"/>
			<point x="68" y="286"/>
			<point x="41" y="188" type="qcurve" smooth="yes"/>
			<point x="37" y="175"/>
			<point x="35" y="151"/>
			<point x="35" y="140" type="qcurve" smooth="yes"/>
			<point x="35" y="123"/>
			<point x="40" y="92"/>
			<point x="43" y="77" type="qcurve" smooth="yes"/>
			<point x="45" y="67" type="line" smooth="yes"/>
			<point x="52" y="29"/>
			<point x="108" y="-24"/>
		</contour>
		<contour>
			<point x="262" y="438" type="qcurve"/>
			<point x="265" y="439"/>
			<point x="272" y="439"/>
			<point x="275" y="439" type="qcurve" smooth="yes"/>
			<point x="297" y="439"/>
			<point x="324" y="389"/>
			<point x="324" y="324" type="qcurve" smooth="yes"/>
			<point x="324" y="254"/>
			<point x="264" y="128"/>
			<point x="202" y="65" type="qcurve" smooth="yes"/>
			<point x="178" y="41"/>
			<point x="151" y="41" type="qcurve" smooth="yes"/>
			<point x="115" y="41"/>
			<point x="106" y="77" type="qcurve"/>
			<point x="104" y="89" type="line" smooth="yes"/>
			<point x="102" y="102"/>
			<point x="100" y="127"/>
			<point x="100" y="140" type="qcurve" smooth="yes"/>
			<point x="100" y="155"/>
			<point x="103" y="172" type="qcurve"/>
			<point x="124" y="258"/>
			<point x="204" y="388"/>
		</contour>
	</outline>
</glyph>
<glyph name="one" format="2">
	<advance width="452"/>
	<unicode hex="0031"/>
	<note>
		one
  </note>
	<outline>
		<contour>
			<point x="45" y="22" type="qcurve" smooth="yes"/>
			<point x="49" y="22" type="line"/>
			<point x="59" y="9"/>
			<point x="75" y="9" type="qcurve" smooth="yes"/>
			<point x="93" y="9"/>
			<point x="130" y="21"/>
			<point x="150" y="21" type="qcurve" smooth="yes"/>
			<point x="172" y="21"/>
			<point x="220" y="16"/>
			<point x="244" y="11" type="qcurve" smooth="yes"/>
			<point x="276" y="5" type="line"/>
			<point x="290" y="5"/>
			<point x="306" y="22"/>
			<point x="306" y="36" type="qcurve" smooth="yes"/>
			<point x="306" y="47"/>
			<point x="292" y="63"/>
			<point x="282" y="66" type="qcurve"/>
			<point x="253" y="70" type="line" smooth="yes"/>
			<point x="241" y="72"/>
			<point x="217" y="75"/>
			<point x="204" y="77" type="qcurve"/>
			<point x="217" y="93"/>
			<point x="229" y="143"/>
			<point x="236" y="196"/>
			<point x="242" y="244"/>
			<point x="249" y="259" type="qcurve"/>
			<point x="271" y="297"/>
			<point x="293" y="374"/>
			<point x="301" y="411" type="qcurve"/>
			<point x="304" y="430" type="line"/>
			<point x="320" y="431"/>
			<point x="360" y="438"/>
			<point x="396" y="451"/>
			<point x="421" y="470"/>
			<point x="421" y="484" type="qcurve" smooth="yes"/>
			<point x="421" y="498"/>
			<point x="405" y="515"/>
			<point x="391" y="515" type="qcurve" smooth="yes"/>
			<point x="383" y="515"/>
			<point x="377" y="512" type="qcurve"/>
			<point x="356" y="499"/>
			<point x="313" y="490"/>
			<point x="291" y="490" type="qcurve" smooth="yes"/>
			<point x="266" y="490"/>
			<point x="214" y="498"/>
			<point x="187" y="504" type="qcurve" smooth="yes"/>
			<point x="168" y="508" type="line"/>
			<point x="154" y="508"/>
			<point x="132" y="494"/>
			<point x="132" y="476" type="qcurve" smooth="yes"/>
			<point x="132" y="467"/>
			<point x="146" y="450"/>
			<point x="156" y="448" type="qcurve" smooth="yes"/>
			<point x="175" y="444" type="line" smooth="yes"/>
			<point x="192" y="440"/>
			<point x="226" y="435"/>
			<point x="243" y="433" type="qcurve"/>
			<point x="242" y="425" type="line"/>
			<point x="234" y="389"/>
			<point x="213" y="321"/>
			<point x="196" y="289" type="qcurve" smooth="yes"/>
			<point x="184" y="267"/>
			<point x="176" y="214"/>
			<point x="173" y="188" type="qcurve" smooth="yes"/>
			<point x="169" y="155"/>
			<point x="160" y="117"/>
			<point x="142" y="96"/>
			<point x="112" y="88"/>
			<point x="86" y="85" type="qcurve"/>
			<point x="80" y="85"/>
			<point x="70" y="87"/>
			<point x="62" y="87" type="qcurve" smooth="yes"/>
			<point x="48" y="87"/>
			<point x="16" y="71"/>
			<point x="16" y="53" type="qcurve" smooth="yes"/>
			<point x="16" y="39"/>
			<point x="36" y="22"/>
		</contour>
	</outline>
</glyph>
<glyph name="two" format="2">
	<advance width="508"/>
	<unicode hex="0032"/>
	<note>
		two
  </note>
	<outline>
		<contour>
			<point x="424" y="2" type="qcurve" smooth="yes"/>
			<point x="435" y="2"/>
			<point x="453" y="20"/>
			<point x="453" y="34" type="qcurve" smooth="yes"/>
			<point x="453" y="47"/>
			<point x="431" y="62"/>
			<point x="399" y="69"/>
			<point x="363" y="70"/>
			<point x="350" y="70" type="qcurve" smooth="yes"/>
			<point x="341" y="70"/>
			<point x="323" y="69"/>
			<point x="315" y="69" type="qcurve" smooth="yes"/>
			<point x="283" y="69"/>
			<point x="223" y="70"/>
			<point x="195" y="80" type="qcurve"/>
			<point x="210" y="103"/>
			<point x="253" y="140"/>
			<point x="282" y="158" type="qcurve" smooth="yes"/>
			<point x="308" y="175"/>
			<point x="345" y="213"/>
			<point x="361" y="235" type="qcurve"/>
			<point x="384" y="260"/>
			<point x="414" y="304"/>
			<point x="414" y="333" type="qcurve" smooth="yes"/>
			<point x="414" y="356"/>
			<point x="391" y="403"/>
			<point x="355" y="441"/>
			<point x="310" y="465"/>
			<point x="288" y="465" type="qcurve" smooth="yes"/>
			<point x="255" y="465"/>
			<point x="205" y="420"/>
			<point x="177" y="382" type="qcurve"/>
			<point x="172" y="374"/>
			<point x="172" y="365" type="qcurve" smooth="yes"/>
			<point x="172" y="353"/>
			<point x="187" y="333"/>
			<point x="201" y="333" type="qcurve" smooth="yes"/>
			<point x="212" y="333"/>
			<point x="234" y="355"/>
			<point x="255" y="382"/>
			<point x="276" y="405"/>
			<point x="285" y="405" type="qcurve" smooth="yes"/>
			<point x="289" y="405"/>
			<point x="310" y="395"/>
			<point x="333" y="377"/>
			<point x="351" y="352"/>
			<point x="353" y="336" type="qcurve"/>
			<point x="353" y="328"/>
			<point x="349" y="311"/>
			<point x="344" y="306" type="qcurve" smooth="yes"/>
			<point x="319" y="281"/>
			<point x="279" y="226"/>
			<point x="250" y="208" type="qcurve" smooth="yes"/>
			<point x="217" y="188"/>
			<point x="150" y="131"/>
			<point x="128" y="82" type="qcurve"/>
			<point x="122" y="72"/>
			<point x="96" y="64"/>
			<point x="70" y="61" type="qcurve"/>
			<point x="59" y="59"/>
			<point x="36" y="57"/>
			<point x="17" y="50"/>
			<point x="5" y="38"/>
			<point x="5" y="26" type="qcurve" smooth="yes"/>
			<point x="5" y="12"/>
			<point x="24" y="-5"/>
			<point x="35" y="-5" type="qcurve" smooth="yes"/>
			<point x="39" y="-5"/>
			<point x="69" y="-3"/>
			<point x="108" y="3"/>
			<point x="147" y="16"/>
			<point x="161" y="27" type="qcurve"/>
			<point x="175" y="20"/>
			<point x="213" y="13"/>
			<point x="250" y="9"/>
			<point x="285" y="8"/>
			<point x="296" y="8" type="qcurve" smooth="yes"/>
			<point x="310" y="8"/>
			<point x="337" y="9"/>
			<point x="351" y="9" type="qcurve" smooth="yes"/>
			<point x="369" y="9"/>
			<point x="406" y="2"/>
		</contour>
	</outline>
</glyph>
<glyph name="three" format="2">
	<advance width="416"/>
	<unicode hex="0033"/>
	<note>
		three
  </note>
	<outline>
		<contour>
			<point x="20" y="-208" type="qcurve" smooth="yes"/>
			<point x="23" y="-208"/>
			<point x="31" y="-208"/>
			<point x="34" y="-206" type="qcurve"/>
			<point x="101" y="-173"/>
			<point x="212" y="-97"/>
			<point x="259" y="-49" type="qcurve" smooth="yes"/>
			<point x="280" y="-28"/>
			<point x="308" y="22"/>
			<point x="325" y="72"/>
			<point x="332" y="117"/>
			<point x="332" y="133" type="qcurve" smooth="yes"/>
			<point x="332" y="176"/>
			<point x="288" y="238"/>
			<point x="251" y="249" type="qcurve"/>
			<point x="259" y="252"/>
			<point x="285" y="268"/>
			<point x="314" y="295"/>
			<point x="343" y="332"/>
			<point x="354" y="357" type="qcurve"/>
			<point x="355" y="364"/>
			<point x="362" y="377"/>
			<point x="370" y="391"/>
			<point x="376" y="409"/>
			<point x="376" y="420" type="qcurve" smooth="yes"/>
			<point x="376" y="441"/>
			<point x="356" y="476"/>
			<point x="326" y="503"/>
			<point x="294" y="518"/>
			<point x="282" y="518" type="qcurve" smooth="yes"/>
			<point x="271" y="518"/>
			<point x="247" y="515"/>
			<point x="227" y="506"/>
			<point x="213" y="491"/>
			<point x="213" y="479" type="qcurve" smooth="yes"/>
			<point x="213" y="466"/>
			<point x="233" y="449"/>
			<point x="244" y="449" type="qcurve" smooth="yes"/>
			<point x="254" y="449"/>
			<point x="274" y="457"/>
			<point x="280" y="457" type="qcurve" smooth="yes"/>
			<point x="291" y="457"/>
			<point x="316" y="431"/>
			<point x="316" y="420" type="qcurve" smooth="yes"/>
			<point x="316" y="414"/>
			<point x="301" y="391"/>
			<point x="298" y="378" type="qcurve"/>
			<point x="291" y="363"/>
			<point x="263" y="336"/>
			<point x="234" y="311"/>
			<point x="213" y="286"/>
			<point x="213" y="274" type="qcurve" smooth="yes"/>
			<point x="213" y="263"/>
			<point x="223" y="253" type="qcurve"/>
			<point x="221" y="253"/>
			<point x="217" y="254"/>
			<point x="215" y="254" type="qcurve" smooth="yes"/>
			<point x="190" y="254"/>
			<point x="139" y="239"/>
			<point x="115" y="229" type="qcurve"/>
			<point x="98" y="224" type="line" smooth="yes"/>
			<point x="88" y="221"/>
			<point x="77" y="203"/>
			<point x="76" y="194" type="qcurve"/>
			<point x="76" y="182"/>
			<point x="94" y="166"/>
			<point x="105" y="166" type="qcurve" smooth="yes"/>
			<point x="107" y="166"/>
			<point x="115" y="168" type="qcurve"/>
			<point x="134" y="174" type="line" smooth="yes"/>
			<point x="154" y="180"/>
			<point x="194" y="193"/>
			<point x="212" y="194" type="qcurve"/>
			<point x="237" y="194"/>
			<point x="273" y="164"/>
			<point x="273" y="135" type="qcurve" smooth="yes"/>
			<point x="273" y="90"/>
			<point x="230" y="8"/>
			<point x="157" y="-64"/>
			<point x="60" y="-127"/>
			<point x="6" y="-152" type="qcurve"/>
			<point x="-10" y="-162"/>
			<point x="-10" y="-179" type="qcurve" smooth="yes"/>
			<point x="-10" y="-192"/>
			<point x="9" y="-208"/>
		</contour>
	</outline>
</glyph>
<glyph name="four" format="2">
	<advance width="558"/>
	<unicode hex="0034"/>
	<note>
		four
  </note>
	<outline>
		<contour>
			<point x="246" y="-208" type="line" smooth="yes"/>
			<point x="272" y="-208"/>
			<point x="310" y="-181"/>
			<point x="319" y="-151" type="qcurve" smooth="yes"/>
			<point x="346" y="-54"/>
			<point x="346" y="29" type="qcurve" smooth="yes"/>
			<point x="346" y="45" type="line"/>
			<point x="360" y="46"/>
			<point x="390" y="48"/>
			<point x="404" y="48" type="qcurve" smooth="yes"/>
			<point x="417" y="48"/>
			<point x="442" y="43"/>
			<point x="453" y="43" type="qcurve" smooth="yes"/>
			<point x="464" y="43"/>
			<point x="483" y="60"/>
			<point x="483" y="71" type="qcurve" smooth="yes"/>
			<point x="483" y="84"/>
			<point x="470" y="99"/>
			<point x="449" y="107"/>
			<point x="425" y="108"/>
			<point x="415" y="108" type="qcurve" smooth="yes"/>
			<point x="408" y="108"/>
			<point x="396" y="108"/>
			<point x="390" y="107" type="qcurve"/>
			<point x="390" y="109" type="line" smooth="yes"/>
			<point x="390" y="129"/>
			<point x="399" y="169"/>
			<point x="409" y="209"/>
			<point x="418" y="251"/>
			<point x="418" y="273" type="qcurve" smooth="yes"/>
			<point x="418" y="305"/>
			<point x="428" y="358"/>
			<point x="447" y="405"/>
			<point x="474" y="447"/>
			<point x="492" y="469" type="qcurve"/>
			<point x="498" y="478"/>
			<point x="498" y="488" type="qcurve" smooth="yes"/>
			<point x="498" y="499"/>
			<point x="481" y="517"/>
			<point x="468" y="517" type="qcurve" smooth="yes"/>
			<point x="456" y="517"/>
			<point x="428" y="487"/>
			<point x="400" y="445"/>
			<point x="376" y="397"/>
			<point x="370" y="379" type="qcurve"/>
			<point x="367" y="379" type="line" smooth="yes"/>
			<point x="346" y="379"/>
			<point x="308" y="361"/>
			<point x="296" y="344" type="qcurve"/>
			<point x="258" y="304" type="line"/>
			<point x="222" y="263"/>
			<point x="151" y="178"/>
			<point x="120" y="131" type="qcurve" smooth="yes"/>
			<point x="108" y="113"/>
			<point x="90" y="99"/>
			<point x="77" y="99" type="qcurve" smooth="yes"/>
			<point x="72" y="99"/>
			<point x="59" y="102"/>
			<point x="51" y="102" type="qcurve" smooth="yes"/>
			<point x="40" y="102"/>
			<point x="20" y="87"/>
			<point x="20" y="73" type="qcurve" smooth="yes"/>
			<point x="20" y="53"/>
			<point x="58" y="40"/>
			<point x="78" y="40" type="qcurve" smooth="yes"/>
			<point x="133" y="40"/>
			<point x="171" y="98" type="qcurve" smooth="yes"/>
			<point x="200" y="142"/>
			<point x="268" y="222"/>
			<point x="303" y="263" type="qcurve" smooth="yes"/>
			<point x="340" y="306" type="line"/>
			<point x="343" y="308"/>
			<point x="351" y="311"/>
			<point x="356" y="313" type="qcurve"/>
			<point x="356" y="297" type="line" smooth="yes"/>
			<point x="356" y="291"/>
			<point x="357" y="279"/>
			<point x="357" y="272" type="qcurve" smooth="yes"/>
			<point x="357" y="253"/>
			<point x="349" y="213"/>
			<point x="338" y="171"/>
			<point x="330" y="128"/>
			<point x="330" y="105" type="qcurve" smooth="yes"/>
			<point x="330" y="103" type="line"/>
			<point x="322" y="102"/>
			<point x="309" y="102"/>
			<point x="302" y="102" type="qcurve" smooth="yes"/>
			<point x="281" y="102"/>
			<point x="258" y="107" type="qcurve" smooth="yes"/>
			<point x="250" y="109" type="line"/>
			<point x="244" y="111"/>
			<point x="226" y="116"/>
			<point x="216" y="116" type="qcurve" smooth="yes"/>
			<point x="195" y="116"/>
			<point x="158" y="84"/>
			<point x="158" y="50" type="qcurve" smooth="yes"/>
			<point x="158" y="38"/>
			<point x="176" y="23"/>
			<point x="187" y="23" type="qcurve" smooth="yes"/>
			<point x="201" y="23"/>
			<point x="218" y="42"/>
			<point x="218" y="57" type="qcurve"/>
			<point x="220" y="55"/>
			<point x="230" y="53"/>
			<point x="235" y="52" type="qcurve" smooth="yes"/>
			<point x="245" y="50" type="line"/>
			<point x="252" y="48"/>
			<point x="267" y="47"/>
			<point x="279" y="44"/>
			<point x="287" y="35"/>
			<point x="287" y="26" type="qcurve" smooth="yes"/>
			<point x="287" y="-12"/>
			<point x="273" y="-90"/>
			<point x="260" y="-135" type="qcurve"/>
			<point x="258" y="-144"/>
			<point x="244" y="-150"/>
			<point x="229" y="-155"/>
			<point x="215" y="-164"/>
			<point x="214" y="-177" type="qcurve"/>
			<point x="214" y="-191"/>
			<point x="231" y="-208"/>
			<point x="243" y="-208" type="qcurve" smooth="yes"/>
		</contour>
	</outline>
</glyph>
<glyph name="five" format="2">
	<advance width="418"/>
	<unicode hex="0035"/>
	<note>
		five
  </note>
	<outline>
		<contour>
			<point x="-11" y="-152" type="qcurve" smooth="yes"/>
			<point x="-6" y="-152"/>
			<point x="1" y="-151"/>
			<point x="6" y="-149" type="qcurve"/>
			<point x="60" y="-114"/>
			<point x="158" y="-36"/>
			<point x="195" y="19" type="qcurve" smooth="yes"/>
			<point x="233" y="76"/>
			<point x="272" y="186"/>
			<point x="272" y="246" type="qcurve" smooth="yes"/>
			<point x="272" y="284"/>
			<point x="255" y="358"/>
			<point x="241" y="399" type="qcurve" smooth="yes"/>
			<point x="235" y="417"/>
			<point x="235" y="429" type="qcurve" smooth="yes"/>
			<point x="235" y="440"/>
			<point x="255" y="451"/>
			<point x="280" y="453" type="qcurve"/>
			<point x="292" y="453"/>
			<point x="317" y="450"/>
			<point x="332" y="450" type="qcurve" smooth="yes"/>
			<point x="341" y="450"/>
			<point x="367" y="453"/>
			<point x="391" y="462"/>
			<point x="408" y="480"/>
			<point x="408" y="494" type="qcurve" smooth="yes"/>
			<point x="408" y="507"/>
			<point x="390" y="522"/>
			<point x="379" y="522" type="qcurve" smooth="yes"/>
			<point x="368" y="522"/>
			<point x="349" y="510"/>
			<point x="332" y="510" type="qcurve" smooth="yes"/>
			<point x="322" y="510"/>
			<point x="300" y="512"/>
			<point x="288" y="512" type="qcurve" smooth="yes"/>
			<point x="234" y="512"/>
			<point x="175" y="469"/>
			<point x="175" y="428" type="qcurve" smooth="yes"/>
			<point x="175" y="404"/>
			<point x="185" y="378" type="qcurve" smooth="yes"/>
			<point x="198" y="343"/>
			<point x="212" y="277"/>
			<point x="212" y="245" type="qcurve" smooth="yes"/>
			<point x="212" y="147"/>
			<point x="147" y="52" type="qcurve" smooth="yes"/>
			<point x="113" y="3"/>
			<point x="25" y="-64"/>
			<point x="-27" y="-99" type="qcurve" smooth="yes"/>
			<point x="-40" y="-108"/>
			<point x="-40" y="-124" type="qcurve" smooth="yes"/>
			<point x="-40" y="-140"/>
			<point x="-21" y="-152"/>
		</contour>
	</outline>
</glyph>
<glyph name="six" format="2">
	<advance width="532"/>
	<unicode hex="0036"/>
	<note>
		six
  </note>
	<outline>
		<contour>
			<point x="168" y="-11" type="qcurve" smooth="yes"/>
			<point x="172" y="-11" type="line" smooth="yes"/>
			<point x="185" y="-11"/>
			<point x="203" y="-3" type="qcurve" smooth="yes"/>
			<point x="299" y="40"/>
			<point x="399" y="183"/>
			<point x="399" y="274" type="qcurve" smooth="yes"/>
			<point x="399" y="318"/>
			<point x="381" y="366"/>
			<point x="356" y="388"/>
			<point x="332" y="392"/>
			<point x="326" y="392" type="qcurve" smooth="yes"/>
			<point x="315" y="392"/>
			<point x="294" y="384"/>
			<point x="277" y="373"/>
			<point x="265" y="365"/>
			<point x="263" y="365" type="qcurve" smooth="yes"/>
			<point x="259" y="365"/>
			<point x="244" y="374" type="qcurve"/>
			<point x="243" y="376" type="line"/>
			<point x="244" y="379"/>
			<point x="248" y="386"/>
			<point x="250" y="389" type="qcurve" smooth="yes"/>
			<point x="254" y="395" type="line" smooth="yes"/>
			<point x="284" y="443"/>
			<point x="368" y="518"/>
			<point x="413" y="556" type="qcurve" smooth="yes"/>
			<point x="426" y="567"/>
			<point x="466" y="599"/>
			<point x="504" y="634"/>
			<point x="532" y="667"/>
			<point x="532" y="678" type="qcurve" smooth="yes"/>
			<point x="532" y="689"/>
			<point x="515" y="708"/>
			<point x="503" y="708" type="qcurve" smooth="yes"/>
			<point x="491" y="708"/>
			<point x="481" y="698" type="qcurve"/>
			<point x="449" y="663"/>
			<point x="375" y="601"/>
			<point x="301" y="538"/>
			<point x="231" y="469"/>
			<point x="203" y="426" type="qcurve"/>
			<point x="199" y="422" type="line"/>
			<point x="161" y="360"/>
			<point x="89" y="232"/>
			<point x="73" y="158" type="qcurve"/>
			<point x="70" y="141"/>
			<point x="70" y="126" type="qcurve" smooth="yes"/>
			<point x="70" y="97"/>
			<point x="84" y="47"/>
			<point x="109" y="10"/>
			<point x="145" y="-11"/>
		</contour>
		<contour>
			<point x="212" y="325" type="qcurve"/>
			<point x="221" y="318"/>
			<point x="246" y="304"/>
			<point x="263" y="304" type="qcurve" smooth="yes"/>
			<point x="274" y="304"/>
			<point x="301" y="314"/>
			<point x="316" y="327" type="qcurve"/>
			<point x="319" y="331"/>
			<point x="325" y="331" type="qcurve" smooth="yes"/>
			<point x="333" y="331"/>
			<point x="340" y="298"/>
			<point x="340" y="275" type="qcurve" smooth="yes"/>
			<point x="340" y="226"/>
			<point x="307" y="151"/>
			<point x="259" y="97"/>
			<point x="203" y="62"/>
			<point x="180" y="52" type="qcurve"/>
			<point x="172" y="49"/>
			<point x="167" y="49" type="qcurve" smooth="yes"/>
			<point x="158" y="49"/>
			<point x="145" y="66"/>
			<point x="135" y="90"/>
			<point x="130" y="117"/>
			<point x="130" y="128" type="qcurve" smooth="yes"/>
			<point x="130" y="133"/>
			<point x="131" y="140"/>
			<point x="132" y="145" type="qcurve" smooth="yes"/>
			<point x="143" y="194"/>
			<point x="185" y="281"/>
		</contour>
	</outline>
</glyph>
<glyph name="seven" format="2">
	<advance width="511"/>
	<unicode hex="0037"/>
	<note>
		seven
  </note>
	<outline>
		<contour>
			<point x="27" y="-189" type="qcurve" smooth="yes"/>
			<point x="53" y="-189"/>
			<point x="81" y="-156"/>
			<point x="89" y="-144" type="qcurve"/>
			<point x="125" y="-83"/>
			<point x="206" y="33"/>
			<point x="289" y="146"/>
			<point x="371" y="258"/>
			<point x="409" y="316" type="qcurve"/>
			<point x="413" y="323"/>
			<point x="433" y="343"/>
			<point x="452" y="370"/>
			<point x="467" y="403"/>
			<point x="467" y="423" type="qcurve" smooth="yes"/>
			<point x="467" y="426"/>
			<point x="466" y="435"/>
			<point x="465" y="440" type="qcurve"/>
			<point x="483" y="448"/>
			<point x="511" y="474"/>
			<point x="511" y="485" type="qcurve" smooth="yes"/>
			<point x="511" y="498"/>
			<point x="493" y="515"/>
			<point x="482" y="515" type="qcurve" smooth="yes"/>
			<point x="469" y="515"/>
			<point x="445" y="498"/>
			<point x="434" y="493" type="qcurve"/>
			<point x="403" y="501"/>
			<point x="342" y="506"/>
			<point x="311" y="506" type="qcurve" smooth="yes"/>
			<point x="284" y="506"/>
			<point x="230" y="503"/>
			<point x="204" y="503" type="qcurve" smooth="yes"/>
			<point x="190" y="503"/>
			<point x="163" y="505"/>
			<point x="149" y="505" type="qcurve" smooth="yes"/>
			<point x="138" y="505"/>
			<point x="120" y="487"/>
			<point x="120" y="473" type="qcurve" smooth="yes"/>
			<point x="120" y="463"/>
			<point x="132" y="451"/>
			<point x="150" y="444"/>
			<point x="173" y="442"/>
			<point x="185" y="442" type="qcurve" smooth="yes"/>
			<point x="226" y="442"/>
			<point x="301" y="445"/>
			<point x="343" y="445" type="qcurve" smooth="yes"/>
			<point x="353" y="445"/>
			<point x="376" y="444"/>
			<point x="395" y="440"/>
			<point x="407" y="432"/>
			<point x="407" y="425" type="qcurve" smooth="yes"/>
			<point x="407" y="417"/>
			<point x="399" y="403"/>
			<point x="387" y="387"/>
			<point x="370" y="365"/>
			<point x="361" y="349" type="qcurve"/>
			<point x="319" y="292"/>
			<point x="235" y="180"/>
			<point x="152" y="66"/>
			<point x="73" y="-52"/>
			<point x="37" y="-115" type="qcurve" smooth="yes"/>
			<point x="33" y="-122"/>
			<point x="17" y="-129"/>
			<point x="2" y="-136"/>
			<point x="-10" y="-146"/>
			<point x="-10" y="-157" type="qcurve" smooth="yes"/>
			<point x="-10" y="-174"/>
			<point x="10" y="-189"/>
		</contour>
	</outline>
</glyph>
<glyph name="eight" format="2">
	<advance width="428"/>
	<unicode hex="0038"/>
	<note>
		eight
  </note>
	<outline>
		<contour>
			<point x="167" y="-17" type="qcurve" smooth="yes"/>
			<point x="200" y="-17"/>
			<point x="258" y="10"/>
			<point x="300" y="60"/>
			<point x="325" y="132"/>
			<point x="325" y="177" type="qcurve" smooth="yes"/>
			<point x="325" y="224"/>
			<point x="298" y="307"/>
			<point x="281" y="349" type="qcurve"/>
			<point x="279" y="355"/>
			<point x="275" y="367"/>
			<point x="274" y="373" type="qcurve"/>
			<point x="308" y="387"/>
			<point x="364" y="435"/>
			<point x="405" y="492"/>
			<point x="428" y="553"/>
			<point x="428" y="580" type="qcurve" smooth="yes"/>
			<point x="428" y="643"/>
			<point x="369" y="704"/>
			<point x="329" y="704" type="qcurve" smooth="yes"/>
			<point x="290" y="704"/>
			<point x="233" y="670"/>
			<point x="195" y="616"/>
			<point x="177" y="552"/>
			<point x="177" y="522" type="qcurve" smooth="yes"/>
			<point x="177" y="477"/>
			<point x="200" y="388"/>
			<point x="215" y="355" type="qcurve"/>
			<point x="174" y="336"/>
			<point x="109" y="272"/>
			<point x="64" y="201"/>
			<point x="40" y="133"/>
			<point x="40" y="109" type="qcurve" smooth="yes"/>
			<point x="40" y="83"/>
			<point x="60" y="37"/>
			<point x="94" y="3"/>
			<point x="141" y="-17"/>
		</contour>
		<contour>
			<point x="237" y="299" type="qcurve"/>
			<point x="248" y="269"/>
			<point x="265" y="208"/>
			<point x="265" y="176" type="qcurve" smooth="yes"/>
			<point x="265" y="115"/>
			<point x="211" y="43"/>
			<point x="166" y="43" type="qcurve" smooth="yes"/>
			<point x="142" y="43"/>
			<point x="99" y="80"/>
			<point x="99" y="109" type="qcurve" smooth="yes"/>
			<point x="99" y="130"/>
			<point x="122" y="185"/>
			<point x="161" y="240"/>
			<point x="210" y="287"/>
		</contour>
		<contour>
			<point x="327" y="645" type="qcurve" smooth="yes"/>
			<point x="330" y="645"/>
			<point x="343" y="642"/>
			<point x="357" y="628"/>
			<point x="368" y="602"/>
			<point x="368" y="578" type="qcurve" smooth="yes"/>
			<point x="368" y="559"/>
			<point x="347" y="514"/>
			<point x="314" y="472"/>
			<point x="274" y="438"/>
			<point x="254" y="429" type="qcurve"/>
			<point x="246" y="457"/>
			<point x="237" y="503"/>
			<point x="237" y="524" type="qcurve" smooth="yes"/>
			<point x="237" y="541"/>
			<point x="248" y="583"/>
			<point x="270" y="620"/>
			<point x="304" y="645"/>
		</contour>
	</outline>
</glyph>
<glyph name="nine" format="2">
	<advance width="505"/>
	<unicode hex="0039"/>
	<note>
		nine
  </note>
	<outline>
		<contour>
			<point x="10" y="-171" type="qcurve" smooth="yes"/>
			<point x="13" y="-171"/>
			<point x="21" y="-167" type="qcurve"/>
			<point x="65" y="-147"/>
			<point x="162" y="-95"/>
			<point x="254" y="-24"/>
			<point x="337" y="69"/>
			<point x="368" y="130" type="qcurve" smooth="yes"/>
			<point x="375" y="144"/>
			<point x="390" y="171"/>
			<point x="399" y="184" type="qcurve" smooth="yes"/>
			<point x="417" y="210"/>
			<point x="442" y="257"/>
			<point x="457" y="313"/>
			<point x="464" y="385"/>
			<point x="464" y="436" type="qcurve"/>
			<point x="462" y="448" type="line"/>
			<point x="462" y="463"/>
			<point x="448" y="489"/>
			<point x="424" y="510"/>
			<point x="390" y="522"/>
			<point x="370" y="522" type="qcurve" smooth="yes"/>
			<point x="347" y="522"/>
			<point x="305" y="505"/>
			<point x="289" y="489" type="qcurve" smooth="yes"/>
			<point x="266" y="466"/>
			<point x="214" y="412"/>
			<point x="170" y="347"/>
			<point x="142" y="270"/>
			<point x="142" y="224" type="qcurve" smooth="yes"/>
			<point x="142" y="192"/>
			<point x="172" y="144"/>
			<point x="204" y="124" type="qcurve"/>
			<point x="212" y="120"/>
			<point x="220" y="120" type="qcurve" smooth="yes"/>
			<point x="225" y="120"/>
			<point x="233" y="122" type="qcurve"/>
			<point x="244" y="126" type="line"/>
			<point x="261" y="135"/>
			<point x="286" y="145"/>
			<point x="296" y="145" type="qcurve" smooth="yes"/>
			<point x="303" y="145"/>
			<point x="306" y="144" type="qcurve"/>
			<point x="279" y="92"/>
			<point x="205" y="12"/>
			<point x="123" y="-49"/>
			<point x="37" y="-95"/>
			<point x="-2" y="-112" type="qcurve"/>
			<point x="-20" y="-123"/>
			<point x="-20" y="-141" type="qcurve" smooth="yes"/>
			<point x="-20" y="-151"/>
			<point x="-4" y="-171"/>
		</contour>
		<contour>
			<point x="370" y="462" type="qcurve" smooth="yes"/>
			<point x="381" y="462"/>
			<point x="401" y="456"/>
			<point x="401" y="446" type="qcurve"/>
			<point x="403" y="434" type="line"/>
			<point x="403" y="397"/>
			<point x="398" y="332"/>
			<point x="384" y="274"/>
			<point x="357" y="221"/>
			<point x="336" y="196" type="qcurve"/>
			<point x="315" y="205"/>
			<point x="296" y="205" type="qcurve" smooth="yes"/>
			<point x="276" y="205"/>
			<point x="239" y="192"/>
			<point x="223" y="184" type="qcurve"/>
			<point x="202" y="200"/>
			<point x="202" y="225" type="qcurve" smooth="yes"/>
			<point x="202" y="245"/>
			<point x="218" y="296"/>
			<point x="245" y="348"/>
			<point x="280" y="399"/>
			<point x="318" y="438"/>
			<point x="354" y="462"/>
		</contour>
	</outline>
</glyph>
<glyph name="colon" format="2">
	<advance width="142"/>
	<unicode hex="003A"/>
	<note>
		colon
  </note>
	<outline>
		<contour>
			<point x="57" y="323" type="qcurve"/>
			<point x="69" y="323"/>
			<point x="88" y="336"/>
			<point x="100" y="356"/>
			<point x="106" y="378"/>
			<point x="106" y="386" type="qcurve" smooth="yes"/>
			<point x="106" y="388" type="line"/>
			<point x="108" y="389"/>
			<point x="122" y="404"/>
			<point x="122" y="413" type="qcurve" smooth="yes"/>
			<point x="122" y="424"/>
			<point x="103" y="443"/>
			<point x="91" y="443" type="qcurve" smooth="yes"/>
			<point x="74" y="443"/>
			<point x="54" y="426"/>
			<point x="44" y="404"/>
			<point x="41" y="384"/>
			<point x="41" y="380" type="qcurve" smooth="yes"/>
			<point x="41" y="378" type="line"/>
			<point x="26" y="370"/>
			<point x="26" y="354" type="qcurve" smooth="yes"/>
			<point x="26" y="342"/>
			<point x="42" y="324"/>
		</contour>
		<contour>
			<point x="51" y="101" type="qcurve"/>
			<point x="63" y="101"/>
			<point x="82" y="114"/>
			<point x="94" y="134"/>
			<point x="100" y="156"/>
			<point x="100" y="164" type="qcurve" smooth="yes"/>
			<point x="100" y="166" type="line"/>
			<point x="102" y="167"/>
			<point x="116" y="182"/>
			<point x="116" y="191" type="qcurve" smooth="yes"/>
			<point x="116" y="202"/>
			<point x="97" y="221"/>
			<point x="85" y="221" type="qcurve" smooth="yes"/>
			<point x="68" y="221"/>
			<point x="48" y="204"/>
			<point x="38" y="182"/>
			<point x="35" y="162"/>
			<point x="35" y="158" type="qcurve" smooth="yes"/>
			<point x="35" y="156" type="line"/>
			<point x="20" y="148"/>
			<point x="20" y="132" type="qcurve" smooth="yes"/>
			<point x="20" y="120"/>
			<point x="36" y="102"/>
		</contour>
		<contour>
			<point x="99" y="166" type="line"/>
			<point x="100" y="166" type="line"/>
			<point x="99" y="165" type="line"/>
		</contour>
		<contour>
			<point x="105" y="388" type="line"/>
			<point x="106" y="388" type="line"/>
			<point x="105" y="387" type="line"/>
		</contour>
	</outline>
</glyph>
<glyph name="semicolon" format="2">
	<advance width="212"/>
	<unicode hex="003B"/>
	<note>
		semicolon
  </note>
	<outline>
		<contour>
			<point x="12" y="-98" type="qcurve" smooth="yes"/>
			<point x="17" y="-98"/>
			<point x="29" y="-92"/>
			<point x="40" y="-83"/>
			<point x="47" y="-73"/>
			<point x="47" y="-70" type="qcurve" smooth="yes"/>
			<point x="47" y="-69"/>
			<point x="46" y="-69" type="qcurve"/>
			<point x="109" y="-42"/>
			<point x="174" y="48"/>
			<point x="174" y="103" type="qcurve" smooth="yes"/>
			<point x="174" y="120"/>
			<point x="168" y="163"/>
			<point x="155" y="202"/>
			<point x="135" y="229"/>
			<point x="122" y="229" type="qcurve" smooth="yes"/>
			<point x="110" y="229"/>
			<point x="93" y="211"/>
			<point x="93" y="199" type="qcurve" smooth="yes"/>
			<point x="93" y="165"/>
			<point x="112" y="118"/>
			<point x="112" y="107" type="qcurve" smooth="yes"/>
			<point x="112" y="68"/>
			<point x="70" y="6"/>
			<point x="21" y="-14" type="qcurve" smooth="yes"/>
			<point x="12" y="-18"/>
			<point x="-3" y="-33"/>
			<point x="-15" y="-49"/>
			<point x="-21" y="-65"/>
			<point x="-21" y="-69" type="qcurve" smooth="yes"/>
			<point x="-21" y="-79"/>
			<point x="-5" y="-98"/>
		</contour>
		<contour>
			<point x="94" y="320" type="qcurve"/>
			<point x="106" y="320"/>
			<point x="125" y="333"/>
			<point x="137" y="353"/>
			<point x="143" y="375"/>
			<point x="143" y="383" type="qcurve" smooth="yes"/>
			<point x="143" y="385" type="line"/>
			<point x="145" y="386"/>
			<point x="159" y="401"/>
			<point x="159" y="410" type="qcurve" smooth="yes"/>
			<point x="159" y="421"/>
			<point x="140" y="440"/>
			<point x="128" y="440" type="qcurve" smooth="yes"/>
			<point x="111" y="440"/>
			<point x="91" y="423"/>
			<point x="81" y="401"/>
			<point x="78" y="381"/>
			<point x="78" y="377" type="qcurve" smooth="yes"/>
			<point x="78" y="375" type="line"/>
			<point x="63" y="367"/>
			<point x="63" y="351" type="qcurve" smooth="yes"/>
			<point x="63" y="339"/>
			<point x="79" y="321"/>
		</contour>
		<contour>
			<point x="142" y="385" type="line"/>
			<point x="143" y="385" type="line"/>
			<point x="142" y="384" type="line"/>
		</contour>
	</outline>
</glyph>
<glyph name="question" format="2">
	<advance width="425"/>
	<unicode hex="003F"/>
	<note>
		question
  </note>
	<outline>
		<contour>
			<point x="176" y="167" type="qcurve" smooth="yes"/>
			<point x="191" y="167"/>
			<point x="226" y="177"/>
			<point x="256" y="198"/>
			<point x="277" y="232"/>
			<point x="277" y="257" type="qcurve" smooth="yes"/>
			<point x="277" y="265"/>
			<point x="265" y="278"/>
			<point x="256" y="281" type="qcurve"/>
			<point x="245" y="281"/>
			<point x="226" y="270"/>
			<point x="226" y="260" type="qcurve"/>
			<point x="220" y="234"/>
			<point x="193" y="220"/>
			<point x="172" y="220" type="qcurve" smooth="yes"/>
			<point x="157" y="220"/>
			<point x="134" y="236"/>
			<point x="134" y="254" type="qcurve" smooth="yes"/>
			<point x="134" y="269"/>
			<point x="153" y="296"/>
			<point x="162" y="306" type="qcurve" smooth="yes"/>
			<point x="182" y="328"/>
			<point x="244" y="365"/>
			<point x="311" y="399"/>
			<point x="379" y="435"/>
			<point x="433" y="478"/>
			<point x="467" y="533"/>
			<point x="467" y="569" type="qcurve" smooth="yes"/>
			<point x="467" y="601"/>
			<point x="443" y="650"/>
			<point x="401" y="684"/>
			<point x="347" y="702"/>
			<point x="317" y="702" type="qcurve" smooth="yes"/>
			<point x="280" y="702"/>
			<point x="217" y="672"/>
			<point x="197" y="643" type="qcurve"/>
			<point x="197" y="641"/>
			<point x="189" y="632"/>
			<point x="180" y="620"/>
			<point x="173" y="608"/>
			<point x="173" y="602" type="qcurve" smooth="yes"/>
			<point x="173" y="592"/>
			<point x="186" y="574"/>
			<point x="198" y="574" type="qcurve" smooth="yes"/>
			<point x="208" y="574"/>
			<point x="237" y="599"/>
			<point x="242" y="614" type="qcurve"/>
			<point x="255" y="633"/>
			<point x="302" y="651"/>
			<point x="327" y="651" type="qcurve"/>
			<point x="367" y="646"/>
			<point x="413" y="600"/>
			<point x="413" y="570" type="qcurve" smooth="yes"/>
			<point x="413" y="529"/>
			<point x="365" y="496" type="qcurve"/>
			<point x="348" y="481"/>
			<point x="293" y="452"/>
			<point x="230" y="420"/>
			<point x="165" y="384"/>
			<point x="113" y="340"/>
			<point x="80" y="288"/>
			<point x="80" y="256" type="qcurve" smooth="yes"/>
			<point x="80" y="214"/>
			<point x="130" y="167"/>
		</contour>
		<contour>
			<point x="247" y="46" type="qcurve"/>
			<point x="247" y="48"/>
			<point x="248" y="51"/>
			<point x="248" y="53" type="qcurve" smooth="yes"/>
			<point x="248" y="65"/>
			<point x="230" y="83"/>
			<point x="218" y="83" type="qcurve" smooth="yes"/>
			<point x="206" y="83"/>
			<point x="179" y="65"/>
			<point x="168" y="65" type="qcurve"/>
			<point x="164" y="64"/>
			<point x="147" y="61"/>
			<point x="129" y="52"/>
			<point x="116" y="33"/>
			<point x="116" y="17" type="qcurve" smooth="yes"/>
			<point x="116" y="6"/>
			<point x="131" y="-13"/>
			<point x="145" y="-13" type="qcurve" smooth="yes"/>
			<point x="153" y="-13"/>
			<point x="169" y="-3"/>
			<point x="173" y="5" type="qcurve"/>
			<point x="176" y="5"/>
			<point x="197" y="8"/>
			<point x="221" y="16"/>
			<point x="242" y="32"/>
		</contour>
	</outline>
</glyph>
<glyph name="A" format="2">
	<advance width="861"/>
	<unicode hex="0041"/>
	<note>
		A
  </note>
	<outline>
		<contour>
			<point x="793" y="-7" type="qcurve" smooth="yes"/>
			<point x="804" y="-7"/>
			<point x="821" y="10"/>
			<point x="821" y="22" type="qcurve" smooth="yes"/>
			<point x="821" y="32"/>
			<point x="803" y="49"/>
			<point x="776" y="61"/>
			<point x="744" y="71"/>
			<point x="730" y="76" type="qcurve"/>
			<point x="731" y="83"/>
			<point x="732" y="96"/>
			<point x="732" y="102" type="qcurve" smooth="yes"/>
			<point x="732" y="123"/>
			<point x="723" y="159"/>
			<point x="720" y="179" type="qcurve"/>
			<point x="733" y="179"/>
			<point x="752" y="194"/>
			<point x="752" y="208" type="qcurve" smooth="yes"/>
			<point x="752" y="218"/>
			<point x="743" y="227"/>
			<point x="732" y="235"/>
			<point x="723" y="246"/>
			<point x="723" y="260" type="qcurve" smooth="yes"/>
			<point x="723" y="280"/>
			<point x="728" y="321"/>
			<point x="728" y="343" type="qcurve" smooth="yes"/>
			<point x="728" y="354"/>
			<point x="724" y="388"/>
			<point x="714" y="420"/>
			<point x="696" y="443"/>
			<point x="682" y="443" type="qcurve" smooth="yes"/>
			<point x="669" y="443"/>
			<point x="654" y="425"/>
			<point x="654" y="414" type="qcurve" smooth="yes"/>
			<point x="654" y="405"/>
			<point x="658" y="400" type="qcurve"/>
			<point x="666" y="387"/>
			<point x="671" y="359"/>
			<point x="671" y="345" type="qcurve" smooth="yes"/>
			<point x="671" y="342" type="line"/>
			<point x="637" y="345"/>
			<point x="571" y="345"/>
			<point x="506" y="346"/>
			<point x="444" y="351"/>
			<point x="414" y="359" type="qcurve" smooth="yes"/>
			<point x="410" y="360"/>
			<point x="403" y="360" type="qcurve" smooth="yes"/>
			<point x="392" y="360"/>
			<point x="371" y="352"/>
			<point x="365" y="344" type="qcurve"/>
			<point x="341" y="315"/>
			<point x="281" y="265"/>
			<point x="220" y="213"/>
			<point x="164" y="153"/>
			<point x="144" y="116" type="qcurve" smooth="yes"/>
			<point x="129" y="88"/>
			<point x="74" y="67"/>
			<point x="19" y="56"/>
			<point x="-22" y="43"/>
			<point x="-22" y="22" type="qcurve" smooth="yes"/>
			<point x="-22" y="9"/>
			<point x="-3" y="-7"/>
			<point x="7" y="-7" type="qcurve"/>
			<point x="30" y="-4"/>
			<point x="52" y="0" type="qcurve" smooth="yes"/>
			<point x="71" y="4"/>
			<point x="114" y="16"/>
			<point x="132" y="25" type="qcurve"/>
			<point x="135" y="16"/>
			<point x="152" y="4"/>
			<point x="171" y="-3"/>
			<point x="191" y="-7"/>
			<point x="197" y="-7" type="qcurve" smooth="yes"/>
			<point x="217" y="-7"/>
			<point x="249" y="3"/>
			<point x="263" y="3" type="qcurve" smooth="yes"/>
			<point x="269" y="3"/>
			<point x="278" y="0"/>
			<point x="283" y="0" type="qcurve" smooth="yes"/>
			<point x="294" y="0"/>
			<point x="311" y="15"/>
			<point x="311" y="29" type="qcurve" smooth="yes"/>
			<point x="311" y="48"/>
			<point x="279" y="60"/>
			<point x="264" y="60" type="qcurve" smooth="yes"/>
			<point x="244" y="60"/>
			<point x="207" y="50"/>
			<point x="197" y="50" type="qcurve" smooth="yes"/>
			<point x="190" y="50"/>
			<point x="179" y="56"/>
			<point x="174" y="59" type="qcurve"/>
			<point x="180" y="65"/>
			<point x="190" y="80"/>
			<point x="195" y="89" type="qcurve" smooth="yes"/>
			<point x="212" y="121"/>
			<point x="264" y="175"/>
			<point x="322" y="225"/>
			<point x="380" y="275"/>
			<point x="404" y="302" type="qcurve"/>
			<point x="437" y="293"/>
			<point x="503" y="288"/>
			<point x="568" y="288"/>
			<point x="634" y="288"/>
			<point x="667" y="285" type="qcurve"/>
			<point x="666" y="278"/>
			<point x="666" y="265"/>
			<point x="666" y="258" type="qcurve" smooth="yes"/>
			<point x="666" y="249"/>
			<point x="667" y="227"/>
			<point x="670" y="216" type="qcurve"/>
			<point x="661" y="207"/>
			<point x="661" y="195" type="qcurve" smooth="yes"/>
			<point x="661" y="171"/>
			<point x="675" y="121"/>
			<point x="675" y="101" type="qcurve" smooth="yes"/>
			<point x="675" y="92"/>
			<point x="672" y="85" type="qcurve"/>
			<point x="663" y="85"/>
			<point x="642" y="81"/>
			<point x="624" y="73"/>
			<point x="612" y="59"/>
			<point x="612" y="49" type="qcurve" smooth="yes"/>
			<point x="612" y="36"/>
			<point x="629" y="21"/>
			<point x="640" y="21" type="qcurve" smooth="yes"/>
			<point x="649" y="21"/>
			<point x="668" y="28"/>
			<point x="677" y="28" type="qcurve" smooth="yes"/>
			<point x="690" y="28"/>
			<point x="719" y="17"/>
			<point x="749" y="4"/>
			<point x="779" y="-7"/>
		</contour>
		<contour>
			<point x="738" y="413" type="qcurve" smooth="yes"/>
			<point x="749" y="413"/>
			<point x="766" y="431"/>
			<point x="766" y="442" type="qcurve" smooth="yes"/>
			<point x="766" y="449"/>
			<point x="763" y="455" type="qcurve"/>
			<point x="752" y="475"/>
			<point x="746" y="529"/>
			<point x="746" y="556" type="qcurve" smooth="yes"/>
			<point x="746" y="569"/>
			<point x="747" y="592"/>
			<point x="747" y="602" type="qcurve" smooth="yes"/>
			<point x="747" y="628"/>
			<point x="743" y="633" type="qcurve"/>
			<point x="744" y="634"/>
			<point x="751" y="634" type="qcurve" smooth="yes"/>
			<point x="763" y="634"/>
			<point x="780" y="651"/>
			<point x="780" y="662" type="qcurve" smooth="yes"/>
			<point x="780" y="673"/>
			<point x="762" y="691"/>
			<point x="752" y="691" type="qcurve" smooth="yes"/>
			<point x="726" y="691"/>
			<point x="698" y="672"/>
			<point x="692" y="658" type="qcurve"/>
			<point x="666" y="658"/>
			<point x="628" y="634"/>
			<point x="604" y="604"/>
			<point x="592" y="577"/>
			<point x="592" y="573" type="qcurve" smooth="yes"/>
			<point x="592" y="562"/>
			<point x="608" y="544"/>
			<point x="620" y="544" type="qcurve" smooth="yes"/>
			<point x="636" y="544"/>
			<point x="646" y="559" type="qcurve"/>
			<point x="656" y="577"/>
			<point x="676" y="594"/>
			<point x="687" y="598" type="qcurve"/>
			<point x="688" y="589"/>
			<point x="689" y="570"/>
			<point x="689" y="561" type="qcurve" smooth="yes"/>
			<point x="689" y="547"/>
			<point x="691" y="497"/>
			<point x="700" y="449"/>
			<point x="720" y="413"/>
		</contour>
	</outline>
</glyph>
<glyph name="B" format="2">
	<advance width="579"/>
	<unicode hex="0042"/>
	<note>
		B
  </note>
	<outline>
		<contour>
			<point x="-3" y="-15" type="qcurve"/>
			<point x="11" y="-13"/>
			<point x="28" y="-12"/>
			<point x="42" y="-10" type="qcurve"/>
			<point x="65" y="-8"/>
			<point x="116" y="6"/>
			<point x="143" y="13" type="qcurve"/>
			<point x="150" y="17"/>
			<point x="155" y="18"/>
			<point x="163" y="18" type="qcurve"/>
			<point x="211" y="-3"/>
			<point x="266" y="-3" type="qcurve" smooth="yes"/>
			<point x="326" y="-3"/>
			<point x="426" y="37"/>
			<point x="499" y="106"/>
			<point x="539" y="197"/>
			<point x="539" y="249" type="qcurve" smooth="yes"/>
			<point x="539" y="267"/>
			<point x="527" y="323"/>
			<point x="508" y="341" type="qcurve"/>
			<point x="498" y="355"/>
			<point x="467" y="375"/>
			<point x="453" y="389" type="qcurve"/>
			<point x="461" y="398"/>
			<point x="475" y="417"/>
			<point x="483" y="425" type="qcurve" smooth="yes"/>
			<point x="493" y="435" type="line" smooth="yes"/>
			<point x="534" y="476"/>
			<point x="534" y="529" type="qcurve" smooth="yes"/>
			<point x="534" y="551"/>
			<point x="522" y="609"/>
			<point x="480" y="659"/>
			<point x="399" y="694"/>
			<point x="330" y="694" type="qcurve" smooth="yes"/>
			<point x="311" y="694"/>
			<point x="267" y="687"/>
			<point x="247" y="677" type="qcurve" smooth="yes"/>
			<point x="235" y="671" type="line"/>
			<point x="212" y="683"/>
			<point x="147" y="701"/>
			<point x="112" y="701" type="qcurve" smooth="yes"/>
			<point x="101" y="701"/>
			<point x="82" y="684"/>
			<point x="82" y="673" type="qcurve" smooth="yes"/>
			<point x="82" y="659"/>
			<point x="106" y="647"/>
			<point x="142" y="640"/>
			<point x="184" y="632"/>
			<point x="203" y="623" type="qcurve"/>
			<point x="203" y="612" type="line" smooth="yes"/>
			<point x="203" y="598"/>
			<point x="198" y="562"/>
			<point x="198" y="543" type="qcurve" smooth="yes"/>
			<point x="198" y="530"/>
			<point x="205" y="501"/>
			<point x="205" y="493" type="qcurve" smooth="yes"/>
			<point x="205" y="484"/>
			<point x="197" y="476" type="qcurve" smooth="yes"/>
			<point x="186" y="465"/>
			<point x="183" y="446"/>
			<point x="183" y="435" type="qcurve" smooth="yes"/>
			<point x="183" y="407"/>
			<point x="173" y="353"/>
			<point x="162" y="298"/>
			<point x="152" y="243"/>
			<point x="152" y="215" type="qcurve" smooth="yes"/>
			<point x="152" y="192"/>
			<point x="129" y="124"/>
			<point x="126" y="71" type="qcurve"/>
			<point x="124" y="70"/>
			<point x="119" y="70"/>
			<point x="117" y="69" type="qcurve"/>
			<point x="94" y="56"/>
			<point x="41" y="48"/>
			<point x="-4" y="42"/>
			<point x="-35" y="30"/>
			<point x="-35" y="15" type="qcurve" smooth="yes"/>
			<point x="-35" y="1"/>
			<point x="-17" y="-15"/>
		</contour>
		<contour>
			<point x="263" y="52" type="qcurve" smooth="yes"/>
			<point x="242" y="52"/>
			<point x="206" y="62"/>
			<point x="189" y="67" type="qcurve"/>
			<point x="192" y="86"/>
			<point x="192" y="103" type="qcurve" smooth="yes"/>
			<point x="192" y="115"/>
			<point x="198" y="139"/>
			<point x="206" y="166"/>
			<point x="212" y="196"/>
			<point x="212" y="215" type="qcurve" smooth="yes"/>
			<point x="212" y="246"/>
			<point x="227" y="312"/>
			<point x="234" y="350" type="qcurve"/>
			<point x="272" y="350"/>
			<point x="353" y="353"/>
			<point x="398" y="360" type="qcurve"/>
			<point x="414" y="348"/>
			<point x="443" y="328"/>
			<point x="466" y="303"/>
			<point x="479" y="270"/>
			<point x="479" y="247" type="qcurve" smooth="yes"/>
			<point x="479" y="195"/>
			<point x="435" y="121"/>
			<point x="370" y="74"/>
			<point x="294" y="52"/>
		</contour>
		<contour>
			<point x="388" y="416" type="qcurve"/>
			<point x="347" y="409"/>
			<point x="275" y="406"/>
			<point x="241" y="406" type="qcurve"/>
			<point x="242" y="414"/>
			<point x="243" y="430"/>
			<point x="243" y="439" type="qcurve"/>
			<point x="256" y="451"/>
			<point x="264" y="480"/>
			<point x="264" y="493" type="qcurve" smooth="yes"/>
			<point x="264" y="512"/>
			<point x="259" y="532"/>
			<point x="259" y="546" type="qcurve" smooth="yes"/>
			<point x="259" y="559"/>
			<point x="262" y="570" type="qcurve"/>
			<point x="262" y="577"/>
			<point x="260" y="591"/>
			<point x="260" y="599" type="qcurve" smooth="yes"/>
			<point x="260" y="615"/>
			<point x="284" y="638"/>
			<point x="328" y="638" type="qcurve" smooth="yes"/>
			<point x="381" y="638"/>
			<point x="440" y="615"/>
			<point x="468" y="584"/>
			<point x="473" y="549"/>
			<point x="473" y="537" type="qcurve" smooth="yes"/>
			<point x="473" y="519"/>
			<point x="462" y="488"/>
			<point x="448" y="476" type="qcurve" smooth="yes"/>
			<point x="438" y="467" type="line"/>
			<point x="436" y="464"/>
			<point x="421" y="448"/>
			<point x="404" y="430"/>
			<point x="390" y="416"/>
		</contour>
	</outline>
</glyph>
<glyph name="C" format="2">
	<advance width="620"/>
	<unicode hex="0043"/>
	<note>
		C
  </note>
	<outline>
		<contour>
			<point x="371" y="1" type="qcurve" smooth="yes"/>
			<point x="389" y="1"/>
			<point x="426" y="4"/>
			<point x="445" y="9" type="qcurve"/>
			<point x="454" y="11"/>
			<point x="479" y="19"/>
			<point x="503" y="34"/>
			<point x="522" y="60"/>
			<point x="526" y="81" type="qcurve" smooth="yes"/>
			<point x="527" y="86"/>
			<point x="536" y="98"/>
			<point x="546" y="114"/>
			<point x="554" y="134"/>
			<point x="554" y="147" type="qcurve" smooth="yes"/>
			<point x="554" y="158"/>
			<point x="537" y="175"/>
			<point x="526" y="175" type="qcurve" smooth="yes"/>
			<point x="514" y="175"/>
			<point x="498" y="158"/>
			<point x="498" y="147" type="qcurve" smooth="yes"/>
			<point x="498" y="138"/>
			<point x="476" y="112"/>
			<point x="472" y="92" type="qcurve" smooth="yes"/>
			<point x="468" y="72"/>
			<point x="408" y="57"/>
			<point x="366" y="57" type="qcurve" smooth="yes"/>
			<point x="355" y="57"/>
			<point x="335" y="58"/>
			<point x="325" y="58" type="qcurve" smooth="yes"/>
			<point x="320" y="58"/>
			<point x="308" y="57"/>
			<point x="303" y="57" type="qcurve" smooth="yes"/>
			<point x="273" y="57"/>
			<point x="205" y="82"/>
			<point x="148" y="138"/>
			<point x="111" y="226"/>
			<point x="111" y="288" type="qcurve" smooth="yes"/>
			<point x="111" y="320"/>
			<point x="128" y="379"/>
			<point x="155" y="431"/>
			<point x="188" y="476"/>
			<point x="204" y="493" type="qcurve" smooth="yes"/>
			<point x="214" y="503"/>
			<point x="243" y="519"/>
			<point x="274" y="536"/>
			<point x="304" y="559"/>
			<point x="314" y="577" type="qcurve"/>
			<point x="352" y="598"/>
			<point x="416" y="625"/>
			<point x="476" y="641"/>
			<point x="534" y="648"/>
			<point x="567" y="649" type="qcurve" smooth="yes"/>
			<point x="573" y="649"/>
			<point x="587" y="644"/>
			<point x="592" y="641" type="qcurve"/>
			<point x="598" y="637"/>
			<point x="605" y="634" type="qcurve"/>
			<point x="605" y="632"/>
			<point x="599" y="606"/>
			<point x="599" y="596" type="qcurve" smooth="yes"/>
			<point x="599" y="589"/>
			<point x="600" y="569"/>
			<point x="605" y="551"/>
			<point x="617" y="539"/>
			<point x="628" y="539" type="qcurve" smooth="yes"/>
			<point x="640" y="539"/>
			<point x="658" y="554"/>
			<point x="658" y="567" type="qcurve"/>
			<point x="656" y="573"/>
			<point x="655" y="588"/>
			<point x="655" y="594" type="qcurve" smooth="yes"/>
			<point x="655" y="606"/>
			<point x="660" y="628"/>
			<point x="660" y="636" type="qcurve" smooth="yes"/>
			<point x="660" y="661"/>
			<point x="631" y="686"/>
			<point x="600" y="697" type="qcurve" smooth="yes"/>
			<point x="592" y="700"/>
			<point x="576" y="705"/>
			<point x="565" y="705" type="qcurve" smooth="yes"/>
			<point x="535" y="704"/>
			<point x="475" y="697"/>
			<point x="415" y="683"/>
			<point x="351" y="659"/>
			<point x="316" y="641" type="qcurve" smooth="yes"/>
			<point x="302" y="634"/>
			<point x="274" y="622"/>
			<point x="269" y="611" type="qcurve"/>
			<point x="262" y="597"/>
			<point x="238" y="579"/>
			<point x="218" y="569" type="qcurve" smooth="yes"/>
			<point x="193" y="556"/>
			<point x="136" y="503"/>
			<point x="87" y="430"/>
			<point x="55" y="339"/>
			<point x="55" y="289" type="qcurve" smooth="yes"/>
			<point x="55" y="271"/>
			<point x="58" y="225"/>
			<point x="69" y="175"/>
			<point x="88" y="126"/>
			<point x="105" y="106" type="qcurve" smooth="yes"/>
			<point x="119" y="89"/>
			<point x="156" y="52"/>
			<point x="202" y="22"/>
			<point x="259" y="2"/>
			<point x="294" y="2" type="qcurve" smooth="yes"/>
			<point x="314" y="2"/>
			<point x="350" y="1"/>
		</contour>
	</outline>
</glyph>
<glyph name="D" format="2">
	<advance width="692"/>
	<unicode hex="0044"/>
	<note>
		D
  </note>
	<outline>
		<contour>
			<point x="12" y="2" type="qcurve" smooth="yes"/>
			<point x="42" y="2" type="line" smooth="yes"/>
			<point x="68" y="2"/>
			<point x="130" y="10"/>
			<point x="156" y="27" type="qcurve"/>
			<point x="176" y="15"/>
			<point x="216" y="7"/>
			<point x="236" y="7" type="qcurve" smooth="yes"/>
			<point x="260" y="7"/>
			<point x="284" y="10" type="qcurve" smooth="yes"/>
			<point x="301" y="12" type="line" smooth="yes"/>
			<point x="392" y="21"/>
			<point x="547" y="109"/>
			<point x="614" y="191" type="qcurve"/>
			<point x="621" y="198"/>
			<point x="639" y="217"/>
			<point x="657" y="240"/>
			<point x="672" y="267"/>
			<point x="675" y="283" type="qcurve" smooth="yes"/>
			<point x="682" y="317"/>
			<point x="697" y="391"/>
			<point x="697" y="429" type="qcurve" smooth="yes"/>
			<point x="697" y="501"/>
			<point x="640" y="600"/>
			<point x="551" y="660"/>
			<point x="445" y="687"/>
			<point x="396" y="687" type="qcurve" smooth="yes"/>
			<point x="354" y="687"/>
			<point x="288" y="680"/>
			<point x="266" y="667" type="qcurve"/>
			<point x="243" y="683"/>
			<point x="194" y="691"/>
			<point x="172" y="693" type="qcurve" smooth="yes"/>
			<point x="159" y="694" type="line" smooth="yes"/>
			<point x="149" y="695"/>
			<point x="129" y="679"/>
			<point x="129" y="668" type="qcurve" smooth="yes"/>
			<point x="129" y="657"/>
			<point x="142" y="639"/>
			<point x="155" y="638" type="qcurve" smooth="yes"/>
			<point x="168" y="637" type="line" smooth="yes"/>
			<point x="190" y="635"/>
			<point x="221" y="630"/>
			<point x="233" y="622" type="qcurve"/>
			<point x="228" y="607"/>
			<point x="228" y="555"/>
			<point x="221" y="526" type="qcurve" smooth="yes"/>
			<point x="198" y="428"/>
			<point x="162" y="234"/>
			<point x="145" y="136" type="qcurve" smooth="yes"/>
			<point x="135" y="80" type="line"/>
			<point x="133" y="79"/>
			<point x="130" y="77"/>
			<point x="128" y="76" type="qcurve"/>
			<point x="114" y="66"/>
			<point x="66" y="62"/>
			<point x="19" y="58"/>
			<point x="-15" y="47"/>
			<point x="-15" y="29" type="qcurve" smooth="yes"/>
			<point x="-15" y="18"/>
			<point x="0" y="2"/>
		</contour>
		<contour>
			<point x="190" y="72" type="qcurve"/>
			<point x="200" y="127" type="line" smooth="yes"/>
			<point x="216" y="225"/>
			<point x="253" y="416"/>
			<point x="276" y="516" type="qcurve" smooth="yes"/>
			<point x="280" y="533"/>
			<point x="286" y="571"/>
			<point x="286" y="589" type="qcurve" smooth="yes"/>
			<point x="286" y="590"/>
			<point x="285" y="595"/>
			<point x="285" y="598" type="qcurve" smooth="yes"/>
			<point x="285" y="610"/>
			<point x="304" y="623"/>
			<point x="333" y="630"/>
			<point x="369" y="631"/>
			<point x="387" y="631" type="qcurve" smooth="yes"/>
			<point x="438" y="631"/>
			<point x="530" y="609"/>
			<point x="600" y="560"/>
			<point x="641" y="483"/>
			<point x="641" y="429" type="qcurve" smooth="yes"/>
			<point x="641" y="404"/>
			<point x="634" y="351"/>
			<point x="620" y="301"/>
			<point x="601" y="259"/>
			<point x="588" y="246" type="qcurve"/>
			<point x="553" y="205"/>
			<point x="486" y="143"/>
			<point x="416" y="98"/>
			<point x="340" y="71"/>
			<point x="295" y="67" type="qcurve" smooth="yes"/>
			<point x="278" y="66" type="line" smooth="yes"/>
			<point x="267" y="65"/>
			<point x="246" y="62"/>
			<point x="235" y="62" type="qcurve" smooth="yes"/>
			<point x="210" y="62"/>
		</contour>
	</outline>
</glyph>
<glyph name="E" format="2">
	<advance width="713"/>
	<unicode hex="0045"/>
	<note>
		E
  </note>
	<outline>
		<contour>
			<point x="39" y="9" type="qcurve" smooth="yes"/>
			<point x="62" y="9"/>
			<point x="101" y="22"/>
			<point x="120" y="29" type="qcurve" smooth="yes"/>
			<point x="126" y="31" type="line"/>
			<point x="139" y="23"/>
			<point x="173" y="13"/>
			<point x="208" y="7"/>
			<point x="239" y="5"/>
			<point x="249" y="5" type="qcurve" smooth="yes"/>
			<point x="263" y="5"/>
			<point x="291" y="6"/>
			<point x="304" y="6" type="qcurve" smooth="yes"/>
			<point x="326" y="6" type="line" smooth="yes"/>
			<point x="380" y="6"/>
			<point x="483" y="13"/>
			<point x="536" y="23" type="qcurve"/>
			<point x="549" y="24"/>
			<point x="576" y="39"/>
			<point x="587" y="59" type="qcurve" smooth="yes"/>
			<point x="606" y="94" type="line" smooth="yes"/>
			<point x="614" y="110"/>
			<point x="630" y="144"/>
			<point x="640" y="162" type="qcurve"/>
			<point x="640" y="162"/>
			<point x="647" y="168"/>
			<point x="656" y="175"/>
			<point x="663" y="185"/>
			<point x="663" y="190" type="qcurve" smooth="yes"/>
			<point x="663" y="201"/>
			<point x="647" y="220"/>
			<point x="635" y="220" type="qcurve" smooth="yes"/>
			<point x="617" y="220"/>
			<point x="592" y="198"/>
			<point x="574" y="167"/>
			<point x="561" y="133"/>
			<point x="555" y="121" type="qcurve" smooth="yes"/>
			<point x="536" y="85" type="line" smooth="yes"/>
			<point x="535" y="83"/>
			<point x="532" y="80"/>
			<point x="526" y="79" type="qcurve" smooth="yes"/>
			<point x="460" y="66"/>
			<point x="327" y="62"/>
			<point x="257" y="62" type="qcurve" smooth="yes"/>
			<point x="233" y="62"/>
			<point x="184" y="67"/>
			<point x="165" y="78" type="qcurve"/>
			<point x="165" y="128"/>
			<point x="191" y="236"/>
			<point x="202" y="285" type="qcurve" smooth="yes"/>
			<point x="205" y="297" type="line"/>
			<point x="208" y="312"/>
			<point x="215" y="342"/>
			<point x="218" y="357" type="qcurve"/>
			<point x="220" y="357"/>
			<point x="225" y="356"/>
			<point x="228" y="356" type="qcurve" smooth="yes"/>
			<point x="279" y="356"/>
			<point x="384" y="362"/>
			<point x="437" y="362" type="qcurve" smooth="yes"/>
			<point x="455" y="362"/>
			<point x="490" y="361"/>
			<point x="507" y="360" type="qcurve"/>
			<point x="508" y="355"/>
			<point x="509" y="347"/>
			<point x="509" y="343" type="qcurve" smooth="yes"/>
			<point x="509" y="327"/>
			<point x="499" y="294"/>
			<point x="499" y="279" type="qcurve" smooth="yes"/>
			<point x="499" y="268"/>
			<point x="515" y="251"/>
			<point x="527" y="251" type="qcurve" smooth="yes"/>
			<point x="539" y="251"/>
			<point x="554" y="269"/>
			<point x="563" y="298"/>
			<point x="567" y="331"/>
			<point x="567" y="346" type="qcurve" smooth="yes"/>
			<point x="567" y="357"/>
			<point x="564" y="378"/>
			<point x="562" y="389" type="qcurve"/>
			<point x="579" y="418"/>
			<point x="604" y="491"/>
			<point x="604" y="518" type="qcurve" smooth="yes"/>
			<point x="604" y="529"/>
			<point x="587" y="546"/>
			<point x="576" y="546" type="qcurve" smooth="yes"/>
			<point x="565" y="546"/>
			<point x="549" y="533"/>
			<point x="547" y="523" type="qcurve"/>
			<point x="542" y="491"/>
			<point x="526" y="439"/>
			<point x="512" y="417" type="qcurve"/>
			<point x="505" y="418"/>
			<point x="492" y="418"/>
			<point x="485" y="418" type="qcurve" smooth="yes"/>
			<point x="394" y="418" type="line" smooth="yes"/>
			<point x="380" y="418"/>
			<point x="354" y="419"/>
			<point x="341" y="419" type="qcurve" smooth="yes"/>
			<point x="318" y="419"/>
			<point x="270" y="415"/>
			<point x="247" y="415" type="qcurve" smooth="yes"/>
			<point x="242" y="415"/>
			<point x="234" y="415"/>
			<point x="229" y="416" type="qcurve"/>
			<point x="235" y="448"/>
			<point x="246" y="511"/>
			<point x="251" y="543" type="qcurve" smooth="yes"/>
			<point x="254" y="563"/>
			<point x="265" y="607"/>
			<point x="268" y="629" type="qcurve"/>
			<point x="285" y="634"/>
			<point x="313" y="648"/>
			<point x="324" y="650" type="qcurve"/>
			<point x="346" y="650"/>
			<point x="390" y="648"/>
			<point x="412" y="648" type="qcurve" smooth="yes"/>
			<point x="436" y="648"/>
			<point x="487" y="654"/>
			<point x="512" y="654" type="qcurve" smooth="yes"/>
			<point x="525" y="654"/>
			<point x="557" y="651"/>
			<point x="585" y="647"/>
			<point x="604" y="642"/>
			<point x="604" y="640" type="qcurve" smooth="yes"/>
			<point x="604" y="624"/>
			<point x="599" y="583"/>
			<point x="599" y="565" type="qcurve" smooth="yes"/>
			<point x="599" y="554"/>
			<point x="615" y="539"/>
			<point x="627" y="537" type="qcurve"/>
			<point x="641" y="537"/>
			<point x="655" y="558"/>
			<point x="661" y="589"/>
			<point x="661" y="625"/>
			<point x="661" y="639" type="qcurve" smooth="yes"/>
			<point x="661" y="665"/>
			<point x="632" y="695"/>
			<point x="587" y="709"/>
			<point x="535" y="712"/>
			<point x="511" y="712" type="qcurve" smooth="yes"/>
			<point x="490" y="712"/>
			<point x="445" y="706"/>
			<point x="422" y="706" type="qcurve" smooth="yes"/>
			<point x="402" y="706"/>
			<point x="362" y="707"/>
			<point x="342" y="707" type="qcurve" smooth="yes"/>
			<point x="327" y="707"/>
			<point x="298" y="700"/>
			<point x="272" y="691"/>
			<point x="252" y="684"/>
			<point x="247" y="684" type="qcurve" smooth="yes"/>
			<point x="242" y="684"/>
			<point x="238" y="687" type="qcurve"/>
			<point x="212" y="703"/>
			<point x="158" y="709"/>
			<point x="132" y="710" type="qcurve"/>
			<point x="124" y="710" type="line" smooth="yes"/>
			<point x="114" y="710"/>
			<point x="94" y="694"/>
			<point x="94" y="683" type="qcurve" smooth="yes"/>
			<point x="94" y="671"/>
			<point x="110" y="654"/>
			<point x="122" y="653" type="qcurve"/>
			<point x="131" y="653" type="line"/>
			<point x="154" y="652"/>
			<point x="191" y="649"/>
			<point x="208" y="638" type="qcurve"/>
			<point x="208" y="638"/>
			<point x="209" y="637" type="qcurve"/>
			<point x="195" y="555"/>
			<point x="168" y="391"/>
			<point x="149" y="310" type="qcurve" smooth="yes"/>
			<point x="146" y="298" type="line" smooth="yes"/>
			<point x="143" y="284"/>
			<point x="129" y="218"/>
			<point x="116" y="148"/>
			<point x="106" y="91"/>
			<point x="106" y="86" type="qcurve"/>
			<point x="99" y="82" type="line"/>
			<point x="82" y="76"/>
			<point x="53" y="67"/>
			<point x="39" y="67" type="qcurve" smooth="yes"/>
			<point x="31" y="67"/>
			<point x="18" y="70"/>
			<point x="11" y="70" type="qcurve" smooth="yes"/>
			<point x="-5" y="70"/>
			<point x="-30" y="59"/>
			<point x="-30" y="41" type="qcurve" smooth="yes"/>
			<point x="-30" y="29"/>
			<point x="-13" y="12"/>
			<point x="-1" y="12" type="qcurve"/>
			<point x="9" y="13" type="line"/>
			<point x="17" y="11"/>
			<point x="31" y="9"/>
		</contour>
	</outline>
</glyph>
<glyph name="F" format="2">
	<advance width="663"/>
	<unicode hex="0046"/>
	<note>
		F
  </note>
	<outline>
		<contour>
			<point x="539" y="243" type="qcurve" smooth="yes"/>
			<point x="551" y="243"/>
			<point x="567" y="260"/>
			<point x="567" y="272" type="qcurve" smooth="yes"/>
			<point x="567" y="284"/>
			<point x="560" y="309"/>
			<point x="560" y="322" type="qcurve" smooth="yes"/>
			<point x="560" y="346"/>
			<point x="571" y="395"/>
			<point x="579" y="421" type="qcurve" smooth="yes"/>
			<point x="583" y="434"/>
			<point x="593" y="465"/>
			<point x="593" y="478" type="qcurve" smooth="yes"/>
			<point x="593" y="489"/>
			<point x="578" y="505"/>
			<point x="566" y="505" type="qcurve" smooth="yes"/>
			<point x="554" y="505"/>
			<point x="539" y="486"/>
			<point x="529" y="459"/>
			<point x="523" y="427"/>
			<point x="520" y="415" type="qcurve"/>
			<point x="503" y="420"/>
			<point x="464" y="423"/>
			<point x="450" y="423" type="qcurve" smooth="yes"/>
			<point x="419" y="423"/>
			<point x="361" y="408"/>
			<point x="332" y="408" type="qcurve" smooth="yes"/>
			<point x="318" y="408"/>
			<point x="290" y="415"/>
			<point x="276" y="417" type="qcurve"/>
			<point x="282" y="453"/>
			<point x="292" y="525"/>
			<point x="294" y="563" type="qcurve" smooth="yes"/>
			<point x="295" y="584"/>
			<point x="302" y="610"/>
			<point x="320" y="627"/>
			<point x="353" y="635"/>
			<point x="382" y="638" type="qcurve" smooth="yes"/>
			<point x="417" y="641"/>
			<point x="497" y="644"/>
			<point x="533" y="644" type="qcurve" smooth="yes"/>
			<point x="577" y="644"/>
			<point x="622" y="630"/>
			<point x="622" y="601" type="qcurve" smooth="yes"/>
			<point x="622" y="591"/>
			<point x="618" y="567"/>
			<point x="618" y="552" type="qcurve" smooth="yes"/>
			<point x="618" y="540"/>
			<point x="633" y="523"/>
			<point x="647" y="523" type="qcurve" smooth="yes"/>
			<point x="659" y="523"/>
			<point x="671" y="539"/>
			<point x="677" y="563"/>
			<point x="678" y="590"/>
			<point x="678" y="600" type="qcurve" smooth="yes"/>
			<point x="678" y="637"/>
			<point x="650" y="677"/>
			<point x="600" y="696"/>
			<point x="532" y="699"/>
			<point x="492" y="699" type="qcurve" smooth="yes"/>
			<point x="420" y="699"/>
			<point x="320" y="690"/>
			<point x="289" y="671" type="qcurve"/>
			<point x="275" y="679"/>
			<point x="239" y="691"/>
			<point x="202" y="699"/>
			<point x="168" y="703"/>
			<point x="158" y="705" type="qcurve"/>
			<point x="148" y="706" type="line"/>
			<point x="136" y="706"/>
			<point x="117" y="691"/>
			<point x="117" y="677" type="qcurve" smooth="yes"/>
			<point x="117" y="667"/>
			<point x="131" y="652"/>
			<point x="142" y="651" type="qcurve"/>
			<point x="151" y="649" type="line"/>
			<point x="178" y="646"/>
			<point x="229" y="637"/>
			<point x="251" y="626" type="qcurve"/>
			<point x="243" y="614"/>
			<point x="240" y="584"/>
			<point x="239" y="566" type="qcurve" smooth="yes"/>
			<point x="235" y="506"/>
			<point x="215" y="387"/>
			<point x="191" y="270"/>
			<point x="167" y="152"/>
			<point x="160" y="92" type="qcurve"/>
			<point x="134" y="82"/>
			<point x="93" y="65"/>
			<point x="73" y="65" type="qcurve" smooth="yes"/>
			<point x="65" y="65"/>
			<point x="47" y="71"/>
			<point x="38" y="71" type="qcurve" smooth="yes"/>
			<point x="27" y="71"/>
			<point x="10" y="57"/>
			<point x="10" y="44" type="qcurve" smooth="yes"/>
			<point x="10" y="33"/>
			<point x="24" y="19"/>
			<point x="43" y="12"/>
			<point x="65" y="10"/>
			<point x="73" y="10" type="qcurve" smooth="yes"/>
			<point x="96" y="10"/>
			<point x="138" y="23"/>
			<point x="157" y="31" type="qcurve"/>
			<point x="165" y="34"/>
			<point x="184" y="40"/>
			<point x="201" y="47"/>
			<point x="213" y="59"/>
			<point x="214" y="68" type="qcurve" smooth="yes"/>
			<point x="221" y="143"/>
			<point x="250" y="287"/>
			<point x="265" y="360" type="qcurve"/>
			<point x="282" y="355"/>
			<point x="319" y="353"/>
			<point x="333" y="353" type="qcurve" smooth="yes"/>
			<point x="363" y="353"/>
			<point x="420" y="367"/>
			<point x="452" y="367" type="qcurve" smooth="yes"/>
			<point x="466" y="367"/>
			<point x="493" y="360"/>
			<point x="507" y="358" type="qcurve"/>
			<point x="504" y="338"/>
			<point x="504" y="320" type="qcurve" smooth="yes"/>
			<point x="504" y="310"/>
			<point x="506" y="284"/>
			<point x="513" y="260"/>
			<point x="527" y="243"/>
		</contour>
	</outline>
</glyph>
<glyph name="G" format="2">
	<advance width="728"/>
	<unicode hex="0047"/>
	<note>
		G
  </note>
	<outline>
		<contour>
			<point x="389" y="-1" type="qcurve" smooth="yes"/>
			<point x="446" y="-1"/>
			<point x="499" y="17" type="qcurve" smooth="yes"/>
			<point x="511" y="21"/>
			<point x="537" y="34"/>
			<point x="559" y="56"/>
			<point x="575" y="88"/>
			<point x="577" y="112" type="qcurve" smooth="yes"/>
			<point x="579" y="138"/>
			<point x="595" y="200"/>
			<point x="597" y="224" type="qcurve"/>
			<point x="599" y="226"/>
			<point x="615" y="231"/>
			<point x="620" y="233" type="qcurve"/>
			<point x="629" y="235" type="line"/>
			<point x="648" y="241"/>
			<point x="664" y="241" type="qcurve" smooth="yes"/>
			<point x="671" y="241"/>
			<point x="684" y="237"/>
			<point x="690" y="237" type="qcurve" smooth="yes"/>
			<point x="701" y="237"/>
			<point x="718" y="253"/>
			<point x="718" y="265" type="qcurve" smooth="yes"/>
			<point x="718" y="286"/>
			<point x="682" y="298"/>
			<point x="663" y="298" type="qcurve" smooth="yes"/>
			<point x="651" y="298"/>
			<point x="626" y="295"/>
			<point x="612" y="290" type="qcurve"/>
			<point x="604" y="288" type="line" smooth="yes"/>
			<point x="597" y="286"/>
			<point x="580" y="281"/>
			<point x="572" y="277" type="qcurve"/>
			<point x="558" y="284"/>
			<point x="520" y="294"/>
			<point x="482" y="300"/>
			<point x="450" y="302"/>
			<point x="441" y="302" type="qcurve" smooth="yes"/>
			<point x="429" y="302"/>
			<point x="412" y="285"/>
			<point x="412" y="274" type="qcurve" smooth="yes"/>
			<point x="412" y="257"/>
			<point x="440" y="245"/>
			<point x="479" y="239"/>
			<point x="523" y="235"/>
			<point x="540" y="226" type="qcurve"/>
			<point x="535" y="197"/>
			<point x="522" y="145"/>
			<point x="520" y="116" type="qcurve" smooth="yes"/>
			<point x="519" y="99"/>
			<point x="494" y="76"/>
			<point x="456" y="62"/>
			<point x="410" y="56"/>
			<point x="389" y="56" type="qcurve" smooth="yes"/>
			<point x="312" y="56"/>
			<point x="209" y="101"/>
			<point x="147" y="169"/>
			<point x="121" y="250"/>
			<point x="121" y="285" type="qcurve" smooth="yes"/>
			<point x="121" y="340"/>
			<point x="153" y="437"/>
			<point x="207" y="518"/>
			<point x="280" y="583"/>
			<point x="321" y="606" type="qcurve" smooth="yes"/>
			<point x="333" y="613" type="line" smooth="yes"/>
			<point x="371" y="635"/>
			<point x="434" y="660"/>
			<point x="481" y="663" type="qcurve" smooth="yes"/>
			<point x="505" y="665"/>
			<point x="559" y="675"/>
			<point x="579" y="675" type="qcurve" smooth="yes"/>
			<point x="590" y="675"/>
			<point x="611" y="667"/>
			<point x="632" y="658"/>
			<point x="652" y="651"/>
			<point x="663" y="651" type="qcurve" smooth="yes"/>
			<point x="671" y="651"/>
			<point x="691" y="655"/>
			<point x="709" y="664"/>
			<point x="721" y="679"/>
			<point x="721" y="689" type="qcurve" smooth="yes"/>
			<point x="721" y="702"/>
			<point x="703" y="718"/>
			<point x="692" y="718" type="qcurve" smooth="yes"/>
			<point x="684" y="718"/>
			<point x="668" y="709"/>
			<point x="663" y="709" type="qcurve" smooth="yes"/>
			<point x="658" y="709"/>
			<point x="652" y="712" type="qcurve" smooth="yes"/>
			<point x="615" y="732"/>
			<point x="577" y="732" type="qcurve" smooth="yes"/>
			<point x="555" y="732"/>
			<point x="506" y="722"/>
			<point x="478" y="720" type="qcurve" smooth="yes"/>
			<point x="449" y="718"/>
			<point x="403" y="709"/>
			<point x="362" y="694"/>
			<point x="324" y="675"/>
			<point x="304" y="663" type="qcurve" smooth="yes"/>
			<point x="292" y="656" type="line" smooth="yes"/>
			<point x="242" y="627"/>
			<point x="158" y="548"/>
			<point x="98" y="452"/>
			<point x="64" y="343"/>
			<point x="64" y="285" type="qcurve" smooth="yes"/>
			<point x="64" y="231"/>
			<point x="106" y="128"/>
			<point x="188" y="48"/>
			<point x="309" y="-1"/>
		</contour>
	</outline>
</glyph>
<glyph name="H" format="2">
	<advance width="812"/>
	<unicode hex="0048"/>
	<note>
		H
  </note>
	<outline>
		<contour>
			<point x="30" y="-16" type="qcurve" smooth="yes"/>
			<point x="59" y="-16"/>
			<point x="104" y="6"/>
			<point x="137" y="44"/>
			<point x="157" y="94"/>
			<point x="162" y="122" type="qcurve" smooth="yes"/>
			<point x="170" y="173"/>
			<point x="188" y="275"/>
			<point x="199" y="326" type="qcurve"/>
			<point x="253" y="318"/>
			<point x="363" y="313"/>
			<point x="417" y="313" type="qcurve" smooth="yes"/>
			<point x="434" y="313"/>
			<point x="469" y="314"/>
			<point x="486" y="314" type="qcurve" smooth="yes"/>
			<point x="501" y="314"/>
			<point x="540" y="311"/>
			<point x="560" y="311" type="qcurve" smooth="yes"/>
			<point x="565" y="311"/>
			<point x="574" y="311"/>
			<point x="579" y="312" type="qcurve"/>
			<point x="568" y="249"/>
			<point x="548" y="124"/>
			<point x="542" y="60" type="qcurve"/>
			<point x="519" y="58"/>
			<point x="470" y="52"/>
			<point x="431" y="40"/>
			<point x="406" y="23"/>
			<point x="406" y="12" type="qcurve" smooth="yes"/>
			<point x="406" y="-1"/>
			<point x="424" y="-16"/>
			<point x="434" y="-16" type="qcurve" smooth="yes"/>
			<point x="439" y="-16"/>
			<point x="442" y="-15" type="qcurve"/>
			<point x="472" y="-7"/>
			<point x="538" y="5"/>
			<point x="573" y="5" type="qcurve" smooth="yes"/>
			<point x="619" y="5"/>
			<point x="662" y="-8" type="qcurve" smooth="yes"/>
			<point x="668" y="-10"/>
			<point x="670" y="-10" type="qcurve" smooth="yes"/>
			<point x="681" y="-10"/>
			<point x="698" y="7"/>
			<point x="698" y="18" type="qcurve" smooth="yes"/>
			<point x="698" y="30"/>
			<point x="679" y="46"/>
			<point x="649" y="55"/>
			<point x="614" y="59"/>
			<point x="598" y="60" type="qcurve"/>
			<point x="604" y="127"/>
			<point x="626" y="261"/>
			<point x="651" y="393"/>
			<point x="678" y="522"/>
			<point x="690" y="586" type="qcurve"/>
			<point x="692" y="600"/>
			<point x="714" y="624"/>
			<point x="740" y="624" type="qcurve" smooth="yes"/>
			<point x="745" y="624"/>
			<point x="755" y="623"/>
			<point x="762" y="623" type="qcurve" smooth="yes"/>
			<point x="767" y="623"/>
			<point x="784" y="626"/>
			<point x="800" y="634"/>
			<point x="812" y="648"/>
			<point x="812" y="659" type="qcurve" smooth="yes"/>
			<point x="812" y="670"/>
			<point x="795" y="686"/>
			<point x="784" y="686" type="qcurve" smooth="yes"/>
			<point x="777" y="686"/>
			<point x="767" y="679"/>
			<point x="762" y="679" type="qcurve" smooth="yes"/>
			<point x="758" y="679"/>
			<point x="746" y="680"/>
			<point x="740" y="680" type="qcurve" smooth="yes"/>
			<point x="739" y="680"/>
			<point x="710" y="677"/>
			<point x="674" y="662"/>
			<point x="641" y="627"/>
			<point x="635" y="596" type="qcurve" smooth="yes"/>
			<point x="624" y="540"/>
			<point x="601" y="427"/>
			<point x="590" y="370" type="qcurve"/>
			<point x="587" y="370" type="line" smooth="yes"/>
			<point x="545" y="370"/>
			<point x="458" y="369"/>
			<point x="413" y="369" type="qcurve" smooth="yes"/>
			<point x="362" y="369"/>
			<point x="261" y="373"/>
			<point x="210" y="380" type="qcurve"/>
			<point x="221" y="437"/>
			<point x="240" y="549"/>
			<point x="241" y="590" type="qcurve"/>
			<point x="273" y="605"/>
			<point x="327" y="632"/>
			<point x="357" y="632" type="qcurve" smooth="yes"/>
			<point x="363" y="632"/>
			<point x="375" y="630"/>
			<point x="381" y="630" type="qcurve" smooth="yes"/>
			<point x="392" y="630"/>
			<point x="408" y="646"/>
			<point x="408" y="658" type="qcurve" smooth="yes"/>
			<point x="408" y="668"/>
			<point x="398" y="680"/>
			<point x="383" y="687"/>
			<point x="365" y="689"/>
			<point x="356" y="689" type="qcurve" smooth="yes"/>
			<point x="324" y="689"/>
			<point x="249" y="663"/>
			<point x="223" y="646" type="qcurve"/>
			<point x="213" y="655"/>
			<point x="181" y="667"/>
			<point x="156" y="673" type="qcurve" smooth="yes"/>
			<point x="131" y="679" type="line"/>
			<point x="119" y="679"/>
			<point x="96" y="667"/>
			<point x="96" y="652" type="qcurve" smooth="yes"/>
			<point x="96" y="642"/>
			<point x="109" y="626"/>
			<point x="118" y="624" type="qcurve" smooth="yes"/>
			<point x="144" y="619" type="line" smooth="yes"/>
			<point x="167" y="614"/>
			<point x="185" y="607"/>
			<point x="185" y="593" type="qcurve" smooth="yes"/>
			<point x="185" y="580"/>
			<point x="180" y="542"/>
			<point x="178" y="528" type="qcurve" smooth="yes"/>
			<point x="164" y="425"/>
			<point x="122" y="230"/>
			<point x="106" y="130" type="qcurve" smooth="yes"/>
			<point x="98" y="86"/>
			<point x="64" y="46"/>
			<point x="26" y="40" type="qcurve" smooth="yes"/>
			<point x="15" y="38"/>
			<point x="2" y="22"/>
			<point x="2" y="12" type="qcurve" smooth="yes"/>
			<point x="2" y="1"/>
			<point x="19" y="-16"/>
		</contour>
	</outline>
</glyph>
<glyph name="I" format="2">
	<advance width="372"/>
	<unicode hex="0049"/>
	<note>
		I
  </note>
	<outline>
		<contour>
			<point x="9" y="-17" type="qcurve" smooth="yes"/>
			<point x="13" y="-17"/>
			<point x="15" y="-16" type="qcurve"/>
			<point x="48" y="-9"/>
			<point x="113" y="-3"/>
			<point x="145" y="14" type="qcurve"/>
			<point x="149" y="17"/>
			<point x="153" y="17"/>
			<point x="154" y="17" type="qcurve"/>
			<point x="173" y="1"/>
			<point x="210" y="-5"/>
			<point x="227" y="-5" type="qcurve" smooth="yes"/>
			<point x="236" y="-5"/>
			<point x="260" y="-5"/>
			<point x="282" y="0"/>
			<point x="297" y="12"/>
			<point x="297" y="24" type="qcurve" smooth="yes"/>
			<point x="297" y="35"/>
			<point x="281" y="54"/>
			<point x="269" y="54" type="qcurve" smooth="yes"/>
			<point x="258" y="54"/>
			<point x="231" y="52"/>
			<point x="221" y="52" type="qcurve" smooth="yes"/>
			<point x="211" y="52"/>
			<point x="196" y="57"/>
			<point x="189" y="61" type="qcurve"/>
			<point x="206" y="179"/>
			<point x="246" y="409"/>
			<point x="275" y="524" type="qcurve"/>
			<point x="278" y="533"/>
			<point x="278" y="542" type="qcurve" smooth="yes"/>
			<point x="278" y="547"/>
			<point x="276" y="559"/>
			<point x="272" y="566" type="qcurve"/>
			<point x="287" y="598"/>
			<point x="321" y="632"/>
			<point x="350" y="632" type="qcurve" smooth="yes"/>
			<point x="369" y="632"/>
			<point x="392" y="643"/>
			<point x="392" y="660" type="qcurve" smooth="yes"/>
			<point x="392" y="679"/>
			<point x="365" y="689"/>
			<point x="349" y="689" type="qcurve" smooth="yes"/>
			<point x="324" y="689"/>
			<point x="283" y="672"/>
			<point x="267" y="658" type="qcurve"/>
			<point x="250" y="671"/>
			<point x="203" y="691"/>
			<point x="179" y="691" type="qcurve" smooth="yes"/>
			<point x="163" y="691"/>
			<point x="131" y="680"/>
			<point x="131" y="660" type="qcurve" smooth="yes"/>
			<point x="131" y="647"/>
			<point x="148" y="631"/>
			<point x="160" y="631" type="qcurve" smooth="yes"/>
			<point x="165" y="631"/>
			<point x="175" y="634"/>
			<point x="180" y="634" type="qcurve" smooth="yes"/>
			<point x="193" y="634"/>
			<point x="217" y="622"/>
			<point x="230" y="613" type="qcurve"/>
			<point x="227" y="607"/>
			<point x="222" y="597"/>
			<point x="220" y="592" type="qcurve"/>
			<point x="200" y="587"/>
			<point x="200" y="564" type="qcurve" smooth="yes"/>
			<point x="200" y="544"/>
			<point x="220" y="537" type="qcurve"/>
			<point x="191" y="420"/>
			<point x="150" y="189"/>
			<point x="133" y="71" type="qcurve"/>
			<point x="128" y="69"/>
			<point x="120" y="66"/>
			<point x="118" y="65" type="qcurve"/>
			<point x="104" y="57"/>
			<point x="57" y="50"/>
			<point x="12" y="42"/>
			<point x="-20" y="27"/>
			<point x="-20" y="11" type="qcurve" smooth="yes"/>
			<point x="-20" y="-2"/>
			<point x="-2" y="-17"/>
		</contour>
	</outline>
</glyph>
<glyph name="J" format="2">
	<advance width="331"/>
	<unicode hex="004A"/>
	<note>
		J
  </note>
	<outline>
		<contour>
			<point x="12" y="-202" type="qcurve" smooth="yes"/>
			<point x="75" y="-202"/>
			<point x="135" y="-103" type="qcurve" smooth="yes"/>
			<point x="170" y="-46"/>
			<point x="201" y="76"/>
			<point x="213" y="137" type="qcurve" smooth="yes"/>
			<point x="221" y="178" type="line" smooth="yes"/>
			<point x="244" y="297"/>
			<point x="280" y="531"/>
			<point x="299" y="645" type="qcurve"/>
			<point x="301" y="652"/>
			<point x="301" y="664"/>
			<point x="301" y="669" type="qcurve" smooth="yes"/>
			<point x="301" y="708"/>
			<point x="256" y="763"/>
			<point x="201" y="763" type="qcurve" smooth="yes"/>
			<point x="145" y="763" type="line" smooth="yes"/>
			<point x="133" y="763"/>
			<point x="116" y="746"/>
			<point x="116" y="734" type="qcurve" smooth="yes"/>
			<point x="116" y="722"/>
			<point x="133" y="705"/>
			<point x="145" y="705" type="qcurve" smooth="yes"/>
			<point x="201" y="705" type="line" smooth="yes"/>
			<point x="215" y="705"/>
			<point x="243" y="692"/>
			<point x="243" y="669" type="qcurve" smooth="yes"/>
			<point x="243" y="659"/>
			<point x="242" y="655" type="qcurve"/>
			<point x="224" y="540"/>
			<point x="187" y="308"/>
			<point x="164" y="190" type="qcurve" smooth="yes"/>
			<point x="156" y="148" type="line" smooth="yes"/>
			<point x="145" y="88"/>
			<point x="116" y="-22"/>
			<point x="86" y="-73" type="qcurve" smooth="yes"/>
			<point x="59" y="-117"/>
			<point x="22" y="-143"/>
			<point x="14" y="-144" type="qcurve"/>
			<point x="8" y="-144"/>
			<point x="-6" y="-135"/>
			<point x="-21" y="-123"/>
			<point x="-37" y="-114"/>
			<point x="-44" y="-114" type="qcurve" smooth="yes"/>
			<point x="-56" y="-114"/>
			<point x="-72" y="-132"/>
			<point x="-72" y="-144" type="qcurve" smooth="yes"/>
			<point x="-72" y="-158"/>
			<point x="-52" y="-179"/>
			<point x="-25" y="-194"/>
			<point x="3" y="-202"/>
		</contour>
	</outline>
</glyph>
<glyph name="K" format="2">
	<advance width="657"/>
	<unicode hex="004B"/>
	<note>
		K
  </note>
	<outline>
		<contour>
			<point x="221" y="-28" type="qcurve" smooth="yes"/>
			<point x="232" y="-28"/>
			<point x="248" y="-10"/>
			<point x="248" y="2" type="qcurve" smooth="yes"/>
			<point x="248" y="12"/>
			<point x="235" y="27"/>
			<point x="225" y="29" type="qcurve"/>
			<point x="218" y="30" type="line" smooth="yes"/>
			<point x="178" y="35"/>
			<point x="149" y="51"/>
			<point x="149" y="74" type="qcurve" smooth="yes"/>
			<point x="149" y="77"/>
			<point x="150" y="84"/>
			<point x="150" y="89" type="qcurve" smooth="yes"/>
			<point x="150" y="92"/>
			<point x="148" y="98" type="qcurve"/>
			<point x="153" y="134"/>
			<point x="163" y="204"/>
			<point x="174" y="234" type="qcurve"/>
			<point x="179" y="251"/>
			<point x="187" y="286"/>
			<point x="190" y="303" type="qcurve"/>
			<point x="221" y="300"/>
			<point x="267" y="263"/>
			<point x="283" y="231" type="qcurve" smooth="yes"/>
			<point x="295" y="205"/>
			<point x="327" y="160"/>
			<point x="359" y="117"/>
			<point x="389" y="74"/>
			<point x="399" y="51" type="qcurve" smooth="yes"/>
			<point x="410" y="26"/>
			<point x="442" y="-3"/>
			<point x="480" y="-18"/>
			<point x="520" y="-22"/>
			<point x="538" y="-22" type="qcurve" smooth="yes"/>
			<point x="542" y="-22"/>
			<point x="549" y="-20"/>
			<point x="553" y="-20" type="qcurve" smooth="yes"/>
			<point x="572" y="-20" type="line" smooth="yes"/>
			<point x="584" y="-20"/>
			<point x="601" y="-5"/>
			<point x="601" y="6" type="qcurve" smooth="yes"/>
			<point x="601" y="18"/>
			<point x="584" y="35"/>
			<point x="572" y="36" type="qcurve"/>
			<point x="552" y="35" type="line"/>
			<point x="512" y="35"/>
			<point x="463" y="45"/>
			<point x="452" y="73" type="qcurve"/>
			<point x="438" y="100"/>
			<point x="406" y="148"/>
			<point x="375" y="191"/>
			<point x="345" y="234"/>
			<point x="334" y="257" type="qcurve"/>
			<point x="312" y="299"/>
			<point x="281" y="324" type="qcurve"/>
			<point x="300" y="357"/>
			<point x="355" y="410"/>
			<point x="417" y="460"/>
			<point x="480" y="511"/>
			<point x="507" y="542" type="qcurve" smooth="yes"/>
			<point x="529" y="568"/>
			<point x="585" y="611"/>
			<point x="623" y="615" type="qcurve" smooth="yes"/>
			<point x="634" y="616"/>
			<point x="648" y="631"/>
			<point x="648" y="642" type="qcurve" smooth="yes"/>
			<point x="648" y="654"/>
			<point x="632" y="671"/>
			<point x="620" y="671" type="qcurve" smooth="yes"/>
			<point x="594" y="671"/>
			<point x="549" y="652"/>
			<point x="509" y="625"/>
			<point x="476" y="593"/>
			<point x="464" y="580" type="qcurve"/>
			<point x="439" y="549"/>
			<point x="377" y="499"/>
			<point x="314" y="448"/>
			<point x="255" y="390"/>
			<point x="233" y="351" type="qcurve"/>
			<point x="215" y="358"/>
			<point x="198" y="359" type="qcurve"/>
			<point x="203" y="393"/>
			<point x="222" y="456"/>
			<point x="244" y="484" type="qcurve"/>
			<point x="249" y="492"/>
			<point x="249" y="500" type="qcurve" smooth="yes"/>
			<point x="249" y="511"/>
			<point x="234" y="529"/>
			<point x="220" y="529" type="qcurve" smooth="yes"/>
			<point x="214" y="529"/>
			<point x="202" y="524"/>
			<point x="198" y="518" type="qcurve"/>
			<point x="167" y="477"/>
			<point x="145" y="388"/>
			<point x="139" y="343" type="qcurve" smooth="yes"/>
			<point x="131" y="281"/>
			<point x="101" y="176"/>
			<point x="94" y="123" type="qcurve"/>
			<point x="74" y="117"/>
			<point x="74" y="95" type="qcurve" smooth="yes"/>
			<point x="74" y="86"/>
			<point x="84" y="71"/>
			<point x="92" y="69" type="qcurve"/>
			<point x="93" y="39"/>
			<point x="119" y="4"/>
			<point x="154" y="-16"/>
			<point x="193" y="-24"/>
			<point x="209" y="-27" type="qcurve"/>
			<point x="217" y="-27" type="line"/>
			<point x="218" y="-28"/>
		</contour>
		<contour>
			<point x="221" y="581" type="qcurve" smooth="yes"/>
			<point x="232" y="581"/>
			<point x="249" y="597"/>
			<point x="249" y="608" type="qcurve" smooth="yes"/>
			<point x="249" y="616"/>
			<point x="240" y="632"/>
			<point x="232" y="636" type="qcurve"/>
			<point x="151" y="669" type="line"/>
			<point x="143" y="671"/>
			<point x="139" y="671" type="qcurve" smooth="yes"/>
			<point x="129" y="671"/>
			<point x="111" y="657"/>
			<point x="111" y="644" type="qcurve" smooth="yes"/>
			<point x="111" y="625"/>
			<point x="129" y="617" type="qcurve" smooth="yes"/>
			<point x="209" y="583" type="line"/>
			<point x="213" y="582"/>
			<point x="218" y="581"/>
		</contour>
	</outline>
</glyph>
<glyph name="L" format="2">
	<advance width="659"/>
	<unicode hex="004C"/>
	<note>
		L
  </note>
	<outline>
		<contour>
			<point x="48" y="-25" type="qcurve" smooth="yes"/>
			<point x="51" y="-25"/>
			<point x="65" y="-18"/>
			<point x="70" y="-10" type="qcurve"/>
			<point x="95" y="-10"/>
			<point x="138" y="8"/>
			<point x="160" y="20" type="qcurve"/>
			<point x="171" y="8"/>
			<point x="204" y="-7"/>
			<point x="243" y="-14"/>
			<point x="286" y="-16"/>
			<point x="306" y="-16" type="qcurve" smooth="yes"/>
			<point x="408" y="-16"/>
			<point x="510" y="-10" type="qcurve"/>
			<point x="544" y="-3" type="line"/>
			<point x="569" y="0"/>
			<point x="604" y="9"/>
			<point x="628" y="28"/>
			<point x="644" y="58"/>
			<point x="650" y="81" type="qcurve"/>
			<point x="650" y="98"/>
			<point x="627" y="115"/>
			<point x="617" y="115" type="qcurve" smooth="yes"/>
			<point x="608" y="115"/>
			<point x="594" y="102"/>
			<point x="594" y="93" type="qcurve"/>
			<point x="589" y="80"/>
			<point x="583" y="65"/>
			<point x="573" y="58"/>
			<point x="554" y="55"/>
			<point x="538" y="53" type="qcurve"/>
			<point x="505" y="53" type="line"/>
			<point x="468" y="48"/>
			<point x="392" y="41"/>
			<point x="354" y="41" type="qcurve" smooth="yes"/>
			<point x="333" y="41"/>
			<point x="281" y="43"/>
			<point x="235" y="47"/>
			<point x="201" y="54"/>
			<point x="197" y="59" type="qcurve"/>
			<point x="197" y="61"/>
			<point x="198" y="62"/>
			<point x="198" y="64" type="qcurve"/>
			<point x="209" y="109" type="line"/>
			<point x="223" y="186"/>
			<point x="249" y="305"/>
			<point x="259" y="361" type="qcurve"/>
			<point x="259" y="365" type="line"/>
			<point x="267" y="425"/>
			<point x="282" y="533"/>
			<point x="299" y="588" type="qcurve"/>
			<point x="302" y="600"/>
			<point x="302" y="614" type="qcurve" smooth="yes"/>
			<point x="302" y="627"/>
			<point x="299" y="639" type="qcurve"/>
			<point x="302" y="639"/>
			<point x="303" y="640"/>
			<point x="303" y="645" type="qcurve"/>
			<point x="315" y="645" type="line"/>
			<point x="324" y="651"/>
			<point x="362" y="654"/>
			<point x="399" y="660"/>
			<point x="427" y="676"/>
			<point x="427" y="694" type="qcurve"/>
			<point x="419" y="719"/>
			<point x="402" y="719" type="qcurve" smooth="yes"/>
			<point x="370" y="719"/>
			<point x="313" y="711"/>
			<point x="287" y="694" type="qcurve"/>
			<point x="282" y="694" type="line"/>
			<point x="278" y="693"/>
			<point x="270" y="689" type="qcurve"/>
			<point x="253" y="701"/>
			<point x="202" y="717"/>
			<point x="181" y="717" type="qcurve" smooth="yes"/>
			<point x="179" y="717"/>
			<point x="165" y="716"/>
			<point x="149" y="707"/>
			<point x="136" y="689"/>
			<point x="136" y="673" type="qcurve"/>
			<point x="141" y="660"/>
			<point x="157" y="645"/>
			<point x="171" y="645" type="qcurve"/>
			<point x="179" y="649"/>
			<point x="188" y="657"/>
			<point x="192" y="661" type="qcurve"/>
			<point x="212" y="655"/>
			<point x="240" y="643"/>
			<point x="249" y="623" type="qcurve"/>
			<point x="249" y="617"/>
			<point x="248" y="613"/>
			<point x="243" y="605" type="qcurve"/>
			<point x="226" y="546"/>
			<point x="212" y="430"/>
			<point x="204" y="371" type="qcurve"/>
			<point x="204" y="365" type="line"/>
			<point x="187" y="305"/>
			<point x="167" y="182"/>
			<point x="153" y="121" type="qcurve" smooth="yes"/>
			<point x="143" y="76" type="line"/>
			<point x="127" y="60"/>
			<point x="81" y="49"/>
			<point x="63" y="49" type="qcurve" smooth="yes"/>
			<point x="51" y="49"/>
			<point x="33" y="37"/>
			<point x="22" y="22"/>
			<point x="16" y="7"/>
			<point x="16" y="5" type="qcurve" smooth="yes"/>
			<point x="16" y="-2"/>
			<point x="33" y="-25"/>
		</contour>
	</outline>
</glyph>
<glyph name="M" format="2">
	<advance width="858"/>
	<unicode hex="004D"/>
	<note>
		M
  </note>
	<outline>
		<contour>
			<point x="729" y="6" type="qcurve" smooth="yes"/>
			<point x="739" y="6"/>
			<point x="753" y="19"/>
			<point x="753" y="30" type="qcurve" smooth="yes"/>
			<point x="753" y="42"/>
			<point x="735" y="59"/>
			<point x="709" y="70"/>
			<point x="677" y="76"/>
			<point x="664" y="78" type="qcurve"/>
			<point x="668" y="107" type="line" smooth="yes"/>
			<point x="675" y="157"/>
			<point x="688" y="250"/>
			<point x="700" y="342"/>
			<point x="712" y="435"/>
			<point x="718" y="486" type="qcurve"/>
			<point x="722" y="538"/>
			<point x="730" y="595"/>
			<point x="754" y="622"/>
			<point x="802" y="629"/>
			<point x="846" y="631" type="qcurve"/>
			<point x="859" y="631"/>
			<point x="874" y="651"/>
			<point x="874" y="664" type="qcurve" smooth="yes"/>
			<point x="874" y="672"/>
			<point x="854" y="686"/>
			<point x="846" y="686" type="qcurve"/>
			<point x="792" y="682"/>
			<point x="727" y="669"/>
			<point x="689" y="639"/>
			<point x="673" y="588"/>
			<point x="668" y="547" type="qcurve"/>
			<point x="649" y="545"/>
			<point x="619" y="529"/>
			<point x="596" y="507"/>
			<point x="579" y="483"/>
			<point x="573" y="474" type="qcurve"/>
			<point x="544" y="411"/>
			<point x="484" y="302"/>
			<point x="450" y="251" type="qcurve"/>
			<point x="445" y="240" type="line"/>
			<point x="434" y="223"/>
			<point x="413" y="197"/>
			<point x="401" y="192" type="qcurve"/>
			<point x="386" y="240"/>
			<point x="375" y="340"/>
			<point x="367" y="443"/>
			<point x="354" y="546"/>
			<point x="339" y="597" type="qcurve"/>
			<point x="333" y="622"/>
			<point x="314" y="655"/>
			<point x="289" y="677"/>
			<point x="258" y="691"/>
			<point x="239" y="697" type="qcurve"/>
			<point x="213" y="697"/>
			<point x="180" y="699"/>
			<point x="168" y="699" type="qcurve" smooth="yes"/>
			<point x="159" y="699"/>
			<point x="147" y="688"/>
			<point x="144" y="681" type="qcurve"/>
			<point x="144" y="655"/>
			<point x="177" y="642"/>
			<point x="200" y="642" type="qcurve" smooth="yes"/>
			<point x="224" y="642"/>
			<point x="253" y="635"/>
			<point x="272" y="617"/>
			<point x="285" y="586"/>
			<point x="293" y="562" type="qcurve"/>
			<point x="288" y="567"/>
			<point x="275" y="575"/>
			<point x="268" y="575" type="qcurve" smooth="yes"/>
			<point x="254" y="575"/>
			<point x="228" y="534"/>
			<point x="206" y="480"/>
			<point x="191" y="426"/>
			<point x="188" y="413" type="qcurve"/>
			<point x="180" y="396"/>
			<point x="171" y="363"/>
			<point x="166" y="346" type="qcurve"/>
			<point x="144" y="291" type="line" smooth="yes"/>
			<point x="122" y="237"/>
			<point x="90" y="137"/>
			<point x="73" y="84" type="qcurve"/>
			<point x="53" y="81"/>
			<point x="21" y="73"/>
			<point x="4" y="73" type="qcurve" smooth="yes"/>
			<point x="-7" y="73"/>
			<point x="-20" y="65"/>
			<point x="-27" y="52"/>
			<point x="-29" y="38"/>
			<point x="-29" y="32" type="qcurve" smooth="yes"/>
			<point x="-29" y="28"/>
			<point x="-27" y="14"/>
			<point x="-21" y="0"/>
			<point x="-10" y="-10"/>
			<point x="-1" y="-10" type="qcurve" smooth="yes"/>
			<point x="10" y="-10"/>
			<point x="27" y="2"/>
			<point x="27" y="17" type="qcurve"/>
			<point x="46" y="17"/>
			<point x="86" y="29"/>
			<point x="104" y="29" type="qcurve" smooth="yes"/>
			<point x="116" y="29"/>
			<point x="137" y="21"/>
			<point x="159" y="12"/>
			<point x="184" y="4"/>
			<point x="199" y="4" type="qcurve" smooth="yes"/>
			<point x="205" y="4"/>
			<point x="224" y="8"/>
			<point x="241" y="16"/>
			<point x="253" y="30"/>
			<point x="253" y="39" type="qcurve" smooth="yes"/>
			<point x="253" y="54"/>
			<point x="237" y="66"/>
			<point x="227" y="66" type="qcurve" smooth="yes"/>
			<point x="218" y="66"/>
			<point x="205" y="58"/>
			<point x="196" y="58" type="qcurve" smooth="yes"/>
			<point x="185" y="58"/>
			<point x="149" y="78"/>
			<point x="132" y="83" type="qcurve"/>
			<point x="146" y="131"/>
			<point x="177" y="222"/>
			<point x="194" y="268" type="qcurve" smooth="yes"/>
			<point x="216" y="330" type="line"/>
			<point x="230" y="357"/>
			<point x="246" y="411"/>
			<point x="261" y="462"/>
			<point x="279" y="512"/>
			<point x="294" y="536" type="qcurve"/>
			<point x="296" y="540"/>
			<point x="297" y="543" type="qcurve"/>
			<point x="305" y="498"/>
			<point x="312" y="403"/>
			<point x="321" y="306"/>
			<point x="338" y="209"/>
			<point x="356" y="162" type="qcurve"/>
			<point x="357" y="157"/>
			<point x="358" y="147"/>
			<point x="358" y="142" type="qcurve" smooth="yes"/>
			<point x="358" y="113"/>
			<point x="339" y="63"/>
			<point x="339" y="40" type="qcurve" smooth="yes"/>
			<point x="339" y="30"/>
			<point x="354" y="11"/>
			<point x="363" y="11" type="qcurve" smooth="yes"/>
			<point x="371" y="11"/>
			<point x="395" y="23"/>
			<point x="395" y="34" type="qcurve" smooth="yes"/>
			<point x="395" y="68"/>
			<point x="411" y="114"/>
			<point x="412" y="138" type="qcurve"/>
			<point x="443" y="148"/>
			<point x="478" y="191"/>
			<point x="489" y="212" type="qcurve" smooth="yes"/>
			<point x="495" y="224" type="line"/>
			<point x="529" y="275"/>
			<point x="594" y="385"/>
			<point x="623" y="452" type="qcurve"/>
			<point x="633" y="468"/>
			<point x="649" y="486"/>
			<point x="662" y="489" type="qcurve"/>
			<point x="659" y="459"/>
			<point x="651" y="386"/>
			<point x="645" y="341" type="qcurve"/>
			<point x="629" y="284"/>
			<point x="629" y="218" type="qcurve"/>
			<point x="622" y="193"/>
			<point x="616" y="141"/>
			<point x="612" y="112" type="qcurve" smooth="yes"/>
			<point x="607" y="77" type="line"/>
			<point x="592" y="75"/>
			<point x="564" y="70"/>
			<point x="551" y="68" type="qcurve"/>
			<point x="533" y="68"/>
			<point x="501" y="65"/>
			<point x="477" y="57"/>
			<point x="462" y="41"/>
			<point x="462" y="29" type="qcurve" smooth="yes"/>
			<point x="462" y="21"/>
			<point x="476" y="5"/>
			<point x="484" y="5" type="qcurve" smooth="yes"/>
			<point x="523" y="5"/>
			<point x="598" y="24"/>
			<point x="637" y="24" type="qcurve" smooth="yes"/>
			<point x="660" y="24"/>
			<point x="705" y="6"/>
		</contour>
	</outline>
</glyph>
<glyph name="O" format="2">
	<advance width="738"/>
	<unicode hex="004F"/>
	<note>
		O
  </note>
	<outline>
		<contour>
			<point x="347" y="-18" type="qcurve" smooth="yes"/>
			<point x="416" y="-18"/>
			<point x="536" y="26"/>
			<point x="632" y="106"/>
			<point x="701" y="219"/>
			<point x="720" y="288" type="qcurve"/>
			<point x="730" y="314"/>
			<point x="738" y="360"/>
			<point x="738" y="384" type="qcurve" smooth="yes"/>
			<point x="738" y="416"/>
			<point x="725" y="499"/>
			<point x="687" y="583"/>
			<point x="617" y="658"/>
			<point x="561" y="683" type="qcurve" smooth="yes"/>
			<point x="536" y="694"/>
			<point x="482" y="703"/>
			<point x="455" y="703" type="qcurve" smooth="yes"/>
			<point x="380" y="703"/>
			<point x="270" y="651"/>
			<point x="191" y="575"/>
			<point x="139" y="488"/>
			<point x="123" y="454" type="qcurve"/>
			<point x="102" y="403"/>
			<point x="85" y="310"/>
			<point x="85" y="256" type="qcurve" smooth="yes"/>
			<point x="85" y="233"/>
			<point x="88" y="187"/>
			<point x="101" y="141"/>
			<point x="127" y="97"/>
			<point x="150" y="77" type="qcurve"/>
			<point x="156" y="70" type="line"/>
			<point x="174" y="52"/>
			<point x="210" y="20"/>
			<point x="255" y="-4"/>
			<point x="311" y="-18"/>
		</contour>
		<contour>
			<point x="451" y="649" type="qcurve" smooth="yes"/>
			<point x="472" y="649"/>
			<point x="511" y="642"/>
			<point x="527" y="633" type="qcurve"/>
			<point x="592" y="604"/>
			<point x="661" y="501"/>
			<point x="670" y="414" type="qcurve"/>
			<point x="670" y="386"/>
			<point x="666" y="330"/>
			<point x="658" y="305" type="qcurve" smooth="yes"/>
			<point x="637" y="244"/>
			<point x="579" y="146"/>
			<point x="503" y="77"/>
			<point x="408" y="39"/>
			<point x="350" y="39" type="qcurve" smooth="yes"/>
			<point x="323" y="39"/>
			<point x="284" y="48"/>
			<point x="252" y="65"/>
			<point x="222" y="91"/>
			<point x="205" y="108" type="qcurve"/>
			<point x="199" y="113" type="line"/>
			<point x="167" y="142"/>
			<point x="150" y="220"/>
			<point x="150" y="261" type="qcurve" smooth="yes"/>
			<point x="150" y="350"/>
			<point x="183" y="431" type="qcurve" smooth="yes"/>
			<point x="198" y="465"/>
			<point x="242" y="541"/>
			<point x="306" y="606"/>
			<point x="393" y="649"/>
		</contour>
	</outline>
</glyph>
<glyph name="P" format="2">
	<advance width="612"/>
	<unicode hex="0050"/>
	<note>
		P
  </note>
	<outline>
		<contour>
			<point x="50" y="-16" type="qcurve" smooth="yes"/>
			<point x="58" y="-16"/>
			<point x="67" y="-7" type="qcurve"/>
			<point x="70" y="-7"/>
			<point x="72" y="-12"/>
			<point x="77" y="-12" type="qcurve"/>
			<point x="117" y="-10"/>
			<point x="166" y="1"/>
			<point x="197" y="28"/>
			<point x="215" y="77"/>
			<point x="224" y="117" type="qcurve"/>
			<point x="224" y="126" type="line" smooth="yes"/>
			<point x="224" y="130"/>
			<point x="227" y="137"/>
			<point x="229" y="145" type="qcurve"/>
			<point x="239" y="177"/>
			<point x="254" y="241"/>
			<point x="261" y="273" type="qcurve"/>
			<point x="277" y="273"/>
			<point x="308" y="272"/>
			<point x="323" y="272" type="qcurve" smooth="yes"/>
			<point x="344" y="272"/>
			<point x="387" y="274"/>
			<point x="412" y="279" type="qcurve"/>
			<point x="451" y="283"/>
			<point x="517" y="321"/>
			<point x="565" y="381"/>
			<point x="592" y="459"/>
			<point x="592" y="503" type="qcurve" smooth="yes"/>
			<point x="592" y="542"/>
			<point x="555" y="610"/>
			<point x="496" y="659"/>
			<point x="422" y="687"/>
			<point x="386" y="687" type="qcurve" smooth="yes"/>
			<point x="372" y="687"/>
			<point x="318" y="679"/>
			<point x="298" y="669" type="qcurve"/>
			<point x="287" y="676"/>
			<point x="261" y="686"/>
			<point x="235" y="692"/>
			<point x="213" y="694"/>
			<point x="206" y="694" type="qcurve" smooth="yes"/>
			<point x="197" y="694"/>
			<point x="179" y="693"/>
			<point x="171" y="692" type="qcurve"/>
			<point x="157" y="692" type="line" smooth="yes"/>
			<point x="144" y="692"/>
			<point x="115" y="683"/>
			<point x="115" y="664" type="qcurve" smooth="yes"/>
			<point x="115" y="656"/>
			<point x="132" y="636"/>
			<point x="145" y="636" type="qcurve" smooth="yes"/>
			<point x="182" y="636" type="line" smooth="yes"/>
			<point x="205" y="636"/>
			<point x="246" y="630"/>
			<point x="261" y="619" type="qcurve"/>
			<point x="249" y="510"/>
			<point x="208" y="271"/>
			<point x="171" y="154" type="qcurve"/>
			<point x="171" y="151"/>
			<point x="166" y="137"/>
			<point x="166" y="133" type="qcurve" smooth="yes"/>
			<point x="166" y="129" type="line"/>
			<point x="160" y="99"/>
			<point x="152" y="66"/>
			<point x="134" y="51"/>
			<point x="101" y="49"/>
			<point x="71" y="49" type="qcurve" smooth="yes"/>
			<point x="69" y="49"/>
			<point x="53" y="48"/>
			<point x="35" y="42"/>
			<point x="20" y="29"/>
			<point x="20" y="17" type="qcurve" smooth="yes"/>
			<point x="20" y="2"/>
			<point x="36" y="-16"/>
		</contour>
		<contour>
			<point x="289" y="331" type="qcurve" smooth="yes"/>
			<point x="272" y="331" type="line"/>
			<point x="286" y="404"/>
			<point x="307" y="547"/>
			<point x="321" y="615" type="qcurve"/>
			<point x="357" y="630"/>
			<point x="388" y="630" type="qcurve" smooth="yes"/>
			<point x="410" y="630"/>
			<point x="461" y="612"/>
			<point x="504" y="579"/>
			<point x="533" y="531"/>
			<point x="533" y="500" type="qcurve" smooth="yes"/>
			<point x="533" y="467"/>
			<point x="515" y="405"/>
			<point x="468" y="357"/>
			<point x="387" y="327"/>
			<point x="323" y="327" type="qcurve"/>
			<point x="315" y="329"/>
			<point x="298" y="331"/>
		</contour>
	</outline>
</glyph>
<glyph name="Q" format="2">
	<advance width="745"/>
	<unicode hex="0051"/>
	<note>
		Q
  </note>
	<outline>
		<contour>
			<point x="507" y="-101" type="qcurve" smooth="yes"/>
			<point x="610" y="-101"/>
			<point x="688" y="-41" type="qcurve" smooth="yes"/>
			<point x="698" y="-33"/>
			<point x="698" y="-21" type="qcurve" smooth="yes"/>
			<point x="698" y="-10"/>
			<point x="681" y="4"/>
			<point x="670" y="4" type="qcurve" smooth="yes"/>
			<point x="660" y="4"/>
			<point x="653" y="-2" type="qcurve"/>
			<point x="590" y="-50"/>
			<point x="509" y="-50" type="qcurve" smooth="yes"/>
			<point x="485" y="-50"/>
			<point x="431" y="-42"/>
			<point x="377" y="-30"/>
			<point x="323" y="-17"/>
			<point x="299" y="-11" type="qcurve"/>
			<point x="285" y="-5"/>
			<point x="253" y="9"/>
			<point x="235" y="15" type="qcurve"/>
			<point x="244" y="33"/>
			<point x="276" y="66"/>
			<point x="283" y="88" type="qcurve"/>
			<point x="295" y="88" type="line" smooth="yes"/>
			<point x="377" y="88"/>
			<point x="532" y="165"/>
			<point x="652" y="289"/>
			<point x="725" y="444"/>
			<point x="725" y="521" type="qcurve" smooth="yes"/>
			<point x="725" y="557"/>
			<point x="703" y="625"/>
			<point x="660" y="678"/>
			<point x="596" y="710"/>
			<point x="553" y="710" type="qcurve" smooth="yes"/>
			<point x="504" y="710"/>
			<point x="413" y="681"/>
			<point x="327" y="627"/>
			<point x="244" y="552"/>
			<point x="204" y="506" type="qcurve" smooth="yes"/>
			<point x="193" y="494"/>
			<point x="175" y="477"/>
			<point x="159" y="473" type="qcurve"/>
			<point x="124" y="473"/>
			<point x="124" y="447" type="qcurve" smooth="yes"/>
			<point x="124" y="436"/>
			<point x="141" y="421"/>
			<point x="152" y="421" type="qcurve" smooth="yes"/>
			<point x="186" y="421"/>
			<point x="231" y="455"/>
			<point x="249" y="475" type="qcurve" smooth="yes"/>
			<point x="285" y="515"/>
			<point x="358" y="583"/>
			<point x="433" y="632"/>
			<point x="512" y="659"/>
			<point x="555" y="659" type="qcurve" smooth="yes"/>
			<point x="585" y="659"/>
			<point x="628" y="635"/>
			<point x="657" y="595"/>
			<point x="670" y="545"/>
			<point x="670" y="520" type="qcurve" smooth="yes"/>
			<point x="670" y="478"/>
			<point x="642" y="389"/>
			<point x="591" y="304"/>
			<point x="521" y="228"/>
			<point x="438" y="171"/>
			<point x="345" y="138"/>
			<point x="297" y="138" type="qcurve" smooth="yes"/>
			<point x="262" y="138"/>
			<point x="213" y="167"/>
			<point x="183" y="211"/>
			<point x="169" y="264"/>
			<point x="169" y="287" type="qcurve" smooth="yes"/>
			<point x="169" y="325"/>
			<point x="184" y="352"/>
			<point x="202" y="361"/>
			<point x="217" y="365"/>
			<point x="217" y="380" type="qcurve" smooth="yes"/>
			<point x="217" y="391"/>
			<point x="200" y="406"/>
			<point x="189" y="406" type="qcurve" smooth="yes"/>
			<point x="168" y="406"/>
			<point x="142" y="389"/>
			<point x="127" y="366"/>
			<point x="121" y="343"/>
			<point x="120" y="338" type="qcurve"/>
			<point x="118" y="325"/>
			<point x="114" y="299"/>
			<point x="114" y="285" type="qcurve" smooth="yes"/>
			<point x="114" y="260"/>
			<point x="127" y="205"/>
			<point x="154" y="154"/>
			<point x="197" y="112"/>
			<point x="227" y="100" type="qcurve"/>
			<point x="219" y="82"/>
			<point x="188" y="49"/>
			<point x="180" y="28" type="qcurve"/>
			<point x="175" y="29"/>
			<point x="165" y="29" type="qcurve" smooth="yes"/>
			<point x="162" y="29"/>
			<point x="155" y="28"/>
			<point x="151" y="28" type="qcurve" smooth="yes"/>
			<point x="150" y="28"/>
			<point x="149" y="29" type="qcurve"/>
			<point x="107" y="49"/>
			<point x="59" y="49" type="qcurve" smooth="yes"/>
			<point x="33" y="49"/>
			<point x="-15" y="39"/>
			<point x="-52" y="20"/>
			<point x="-75" y="-7"/>
			<point x="-75" y="-25" type="qcurve" smooth="yes"/>
			<point x="-75" y="-31"/>
			<point x="-66" y="-56"/>
			<point x="-45" y="-81"/>
			<point x="-11" y="-99"/>
			<point x="15" y="-99" type="qcurve" smooth="yes"/>
			<point x="71" y="-99"/>
			<point x="148" y="-59"/>
			<point x="170" y="-23" type="qcurve"/>
			<point x="188" y="-24"/>
			<point x="259" y="-48"/>
			<point x="351" y="-77"/>
			<point x="456" y="-101"/>
		</contour>
		<contour>
			<point x="59" y="-2" type="qcurve" smooth="yes"/>
			<point x="88" y="-2"/>
			<point x="112" y="-12" type="qcurve"/>
			<point x="83" y="-47"/>
			<point x="12" y="-48" type="qcurve"/>
			<point x="13" y="-48"/>
			<point x="3" y="-45"/>
			<point x="-9" y="-40"/>
			<point x="-20" y="-32"/>
			<point x="-20" y="-27" type="qcurve" smooth="yes"/>
			<point x="-20" y="-22"/>
			<point x="-6" y="-13"/>
			<point x="17" y="-6"/>
			<point x="45" y="-2"/>
		</contour>
	</outline>
</glyph>
<glyph name="R" format="2">
	<advance width="669"/>
	<unicode hex="0052"/>
	<note>
		R
  </note>
	<outline>
		<contour>
			<point x="614" y="-15" type="qcurve" smooth="yes"/>
			<point x="629" y="-15"/>
			<point x="659" y="-6"/>
			<point x="659" y="14" type="qcurve" smooth="yes"/>
			<point x="659" y="26"/>
			<point x="643" y="44"/>
			<point x="630" y="44" type="qcurve" smooth="yes"/>
			<point x="625" y="44"/>
			<point x="617" y="42"/>
			<point x="612" y="42" type="qcurve" smooth="yes"/>
			<point x="601" y="42"/>
			<point x="578" y="48"/>
			<point x="565" y="50" type="qcurve" smooth="yes"/>
			<point x="547" y="53" type="line" smooth="yes"/>
			<point x="521" y="58"/>
			<point x="503" y="76"/>
			<point x="500" y="87" type="qcurve" smooth="yes"/>
			<point x="487" y="136"/>
			<point x="436" y="218"/>
			<point x="415" y="259" type="qcurve" smooth="yes"/>
			<point x="406" y="276"/>
			<point x="383" y="318"/>
			<point x="366" y="336" type="qcurve"/>
			<point x="369" y="339"/>
			<point x="376" y="345"/>
			<point x="379" y="348" type="qcurve"/>
			<point x="440" y="398"/>
			<point x="515" y="492"/>
			<point x="515" y="548" type="qcurve" smooth="yes"/>
			<point x="515" y="584"/>
			<point x="482" y="641"/>
			<point x="430" y="682"/>
			<point x="366" y="704"/>
			<point x="336" y="704" type="qcurve" smooth="yes"/>
			<point x="324" y="704"/>
			<point x="288" y="699"/>
			<point x="254" y="689"/>
			<point x="227" y="672"/>
			<point x="224" y="660" type="qcurve"/>
			<point x="201" y="660"/>
			<point x="196" y="638" type="qcurve" smooth="yes"/>
			<point x="186" y="588"/>
			<point x="172" y="487"/>
			<point x="157" y="388"/>
			<point x="137" y="289"/>
			<point x="121" y="241" type="qcurve" smooth="yes"/>
			<point x="115" y="224"/>
			<point x="109" y="193"/>
			<point x="107" y="178" type="qcurve"/>
			<point x="99" y="133"/>
			<point x="88" y="83"/>
			<point x="66" y="58"/>
			<point x="26" y="53"/>
			<point x="-11" y="53" type="qcurve" smooth="yes"/>
			<point x="-23" y="53"/>
			<point x="-40" y="36"/>
			<point x="-40" y="24" type="qcurve" smooth="yes"/>
			<point x="-40" y="13"/>
			<point x="-23" y="-4"/>
			<point x="-11" y="-4" type="qcurve" smooth="yes"/>
			<point x="33" y="-4"/>
			<point x="89" y="7"/>
			<point x="125" y="35"/>
			<point x="147" y="87"/>
			<point x="156" y="129" type="qcurve" smooth="yes"/>
			<point x="161" y="152"/>
			<point x="168" y="202"/>
			<point x="175" y="223" type="qcurve" smooth="yes"/>
			<point x="191" y="272"/>
			<point x="202" y="324" type="qcurve"/>
			<point x="207" y="322"/>
			<point x="218" y="317"/>
			<point x="226" y="317" type="qcurve" smooth="yes"/>
			<point x="237" y="317"/>
			<point x="259" y="323"/>
			<point x="268" y="323" type="qcurve" smooth="yes"/>
			<point x="300" y="323"/>
			<point x="341" y="279"/>
			<point x="364" y="233" type="qcurve" smooth="yes"/>
			<point x="384" y="192"/>
			<point x="433" y="117"/>
			<point x="444" y="73" type="qcurve" smooth="yes"/>
			<point x="449" y="53"/>
			<point x="470" y="26"/>
			<point x="495" y="8"/>
			<point x="523" y="-1"/>
			<point x="535" y="-3" type="qcurve" smooth="yes"/>
			<point x="553" y="-6" type="line"/>
			<point x="567" y="-10"/>
			<point x="597" y="-15"/>
		</contour>
		<contour>
			<point x="341" y="392" type="qcurve"/>
			<point x="336" y="387"/>
			<point x="322" y="377"/>
			<point x="316" y="372" type="qcurve"/>
			<point x="295" y="381"/>
			<point x="267" y="381" type="qcurve" smooth="yes"/>
			<point x="250" y="381"/>
			<point x="227" y="376" type="qcurve"/>
			<point x="223" y="376"/>
			<point x="213" y="381" type="qcurve"/>
			<point x="224" y="442"/>
			<point x="239" y="564"/>
			<point x="251" y="624" type="qcurve"/>
			<point x="252" y="624" type="line" smooth="yes"/>
			<point x="260" y="624"/>
			<point x="266" y="627" type="qcurve"/>
			<point x="300" y="646"/>
			<point x="338" y="646" type="qcurve" smooth="yes"/>
			<point x="357" y="646"/>
			<point x="399" y="633"/>
			<point x="435" y="607"/>
			<point x="458" y="571"/>
			<point x="458" y="547" type="qcurve" smooth="yes"/>
			<point x="458" y="525"/>
			<point x="438" y="485"/>
			<point x="406" y="448"/>
			<point x="363" y="411"/>
		</contour>
	</outline>
</glyph>
<glyph name="S" format="2">
	<advance width="453"/>
	<unicode hex="0053"/>
	<note>
		S
  </note>
	<outline>
		<contour>
			<point x="154" y="2" type="qcurve" smooth="yes"/>
			<point x="205" y="2"/>
			<point x="288" y="30"/>
			<point x="347" y="81"/>
			<point x="380" y="151"/>
			<point x="380" y="194" type="qcurve" smooth="yes"/>
			<point x="380" y="222"/>
			<point x="363" y="280"/>
			<point x="339" y="336"/>
			<point x="311" y="390"/>
			<point x="300" y="415" type="qcurve" smooth="yes"/>
			<point x="291" y="434"/>
			<point x="271" y="471"/>
			<point x="254" y="507"/>
			<point x="243" y="543"/>
			<point x="243" y="561" type="qcurve" smooth="yes"/>
			<point x="243" y="582"/>
			<point x="259" y="619"/>
			<point x="286" y="647"/>
			<point x="324" y="663"/>
			<point x="347" y="663" type="qcurve" smooth="yes"/>
			<point x="376" y="663"/>
			<point x="408" y="659"/>
			<point x="424" y="644"/>
			<point x="428" y="614"/>
			<point x="429" y="588" type="qcurve"/>
			<point x="429" y="580"/>
			<point x="432" y="567"/>
			<point x="434" y="562" type="qcurve"/>
			<point x="436" y="555" type="line"/>
			<point x="438" y="544"/>
			<point x="454" y="533"/>
			<point x="464" y="533" type="qcurve" smooth="yes"/>
			<point x="476" y="533"/>
			<point x="493" y="549"/>
			<point x="493" y="561" type="qcurve" smooth="yes"/>
			<point x="493" y="567"/>
			<point x="486" y="584"/>
			<point x="486" y="590" type="qcurve"/>
			<point x="485" y="627"/>
			<point x="473" y="676"/>
			<point x="443" y="706"/>
			<point x="393" y="719"/>
			<point x="355" y="721" type="qcurve"/>
			<point x="320" y="721"/>
			<point x="258" y="697"/>
			<point x="212" y="654"/>
			<point x="185" y="595"/>
			<point x="185" y="561" type="qcurve" smooth="yes"/>
			<point x="185" y="535"/>
			<point x="198" y="490"/>
			<point x="218" y="448"/>
			<point x="239" y="410"/>
			<point x="247" y="393" type="qcurve" smooth="yes"/>
			<point x="258" y="369"/>
			<point x="284" y="322"/>
			<point x="307" y="273"/>
			<point x="322" y="222"/>
			<point x="322" y="193" type="qcurve" smooth="yes"/>
			<point x="322" y="169"/>
			<point x="303" y="121"/>
			<point x="263" y="83"/>
			<point x="198" y="59"/>
			<point x="152" y="59" type="qcurve" smooth="yes"/>
			<point x="117" y="59"/>
			<point x="88" y="76"/>
			<point x="88" y="96" type="qcurve" smooth="yes"/>
			<point x="88" y="107"/>
			<point x="88" y="131"/>
			<point x="83" y="151"/>
			<point x="70" y="164"/>
			<point x="58" y="164" type="qcurve" smooth="yes"/>
			<point x="46" y="164"/>
			<point x="30" y="146"/>
			<point x="30" y="135" type="qcurve" smooth="yes"/>
			<point x="30" y="132"/>
			<point x="31" y="125"/>
			<point x="31" y="122" type="qcurve" smooth="yes"/>
			<point x="31" y="119"/>
			<point x="30" y="113"/>
			<point x="30" y="111" type="qcurve" smooth="yes"/>
			<point x="30" y="98"/>
			<point x="33" y="61"/>
			<point x="56" y="26"/>
			<point x="106" y="2"/>
		</contour>
	</outline>
</glyph>
<glyph name="T" format="2">
	<advance width="682"/>
	<unicode hex="0054"/>
	<note>
		T
  </note>
	<outline>
		<contour>
			<point x="44" y="530" type="qcurve" smooth="yes"/>
			<point x="55" y="530"/>
			<point x="72" y="543"/>
			<point x="72" y="553" type="qcurve"/>
			<point x="79" y="580"/>
			<point x="96" y="615"/>
			<point x="122" y="636"/>
			<point x="160" y="646"/>
			<point x="190" y="648" type="qcurve"/>
			<point x="225" y="648"/>
			<point x="296" y="643"/>
			<point x="332" y="640" type="qcurve"/>
			<point x="324" y="581"/>
			<point x="301" y="472"/>
			<point x="279" y="365"/>
			<point x="259" y="257"/>
			<point x="253" y="200" type="qcurve"/>
			<point x="253" y="185"/>
			<point x="244" y="152"/>
			<point x="234" y="116"/>
			<point x="224" y="76"/>
			<point x="223" y="55" type="qcurve"/>
			<point x="204" y="53"/>
			<point x="155" y="51"/>
			<point x="111" y="42"/>
			<point x="80" y="24"/>
			<point x="80" y="8" type="qcurve" smooth="yes"/>
			<point x="80" y="-4"/>
			<point x="94" y="-23"/>
			<point x="111" y="-23" type="qcurve"/>
			<point x="145" y="-9"/>
			<point x="220" y="-3"/>
			<point x="258" y="-3" type="qcurve" smooth="yes"/>
			<point x="320" y="-3"/>
			<point x="392" y="-12" type="qcurve"/>
			<point x="412" y="-12"/>
			<point x="427" y="7"/>
			<point x="427" y="19" type="qcurve" smooth="yes"/>
			<point x="427" y="32"/>
			<point x="401" y="47"/>
			<point x="363" y="55"/>
			<point x="319" y="57"/>
			<point x="300" y="57" type="qcurve" smooth="yes"/>
			<point x="286" y="57" type="line"/>
			<point x="288" y="87"/>
			<point x="306" y="160"/>
			<point x="314" y="195" type="qcurve"/>
			<point x="318" y="251"/>
			<point x="339" y="360"/>
			<point x="363" y="469"/>
			<point x="386" y="580"/>
			<point x="391" y="637" type="qcurve"/>
			<point x="403" y="636"/>
			<point x="428" y="636"/>
			<point x="441" y="636" type="qcurve" smooth="yes"/>
			<point x="464" y="636"/>
			<point x="508" y="650"/>
			<point x="517" y="676" type="qcurve"/>
			<point x="517" y="687"/>
			<point x="497" y="705"/>
			<point x="483" y="705" type="qcurve"/>
			<point x="454" y="701"/>
			<point x="400" y="696"/>
			<point x="373" y="696" type="qcurve" smooth="yes"/>
			<point x="335" y="696"/>
			<point x="260" y="706"/>
			<point x="221" y="706" type="qcurve" smooth="yes"/>
			<point x="172" y="706"/>
			<point x="103" y="692"/>
			<point x="55" y="659"/>
			<point x="25" y="606"/>
			<point x="16" y="567" type="qcurve"/>
			<point x="15" y="564"/>
			<point x="15" y="559" type="qcurve" smooth="yes"/>
			<point x="15" y="548"/>
			<point x="30" y="530"/>
		</contour>
		<contour>
			<point x="644" y="544" type="qcurve" smooth="yes"/>
			<point x="654" y="544"/>
			<point x="673" y="556"/>
			<point x="673" y="567" type="qcurve"/>
			<point x="697" y="714" type="line"/>
			<point x="697" y="731"/>
			<point x="678" y="749"/>
			<point x="666" y="749" type="qcurve" smooth="yes"/>
			<point x="653" y="749"/>
			<point x="637" y="734"/>
			<point x="634" y="724" type="qcurve"/>
			<point x="630" y="693" type="line"/>
			<point x="611" y="698"/>
			<point x="572" y="714"/>
			<point x="545" y="714" type="qcurve"/>
			<point x="535" y="711"/>
			<point x="521" y="695"/>
			<point x="521" y="684" type="qcurve" smooth="yes"/>
			<point x="521" y="673"/>
			<point x="534" y="651"/>
			<point x="549" y="651" type="qcurve" smooth="yes"/>
			<point x="552" y="651"/>
			<point x="554" y="652" type="qcurve"/>
			<point x="561" y="652"/>
			<point x="574" y="649"/>
			<point x="589" y="644"/>
			<point x="609" y="637"/>
			<point x="623" y="633" type="qcurve"/>
			<point x="617" y="577" type="line"/>
			<point x="615" y="573"/>
			<point x="615" y="570" type="qcurve" smooth="yes"/>
			<point x="615" y="559"/>
			<point x="631" y="543"/>
			<point x="640" y="543" type="qcurve" smooth="yes"/>
			<point x="641" y="543"/>
			<point x="643" y="544"/>
		</contour>
	</outline>
</glyph>
<glyph name="U" format="2">
	<advance width="735"/>
	<unicode hex="0055"/>
	<note>
		U
  </note>
	<outline>
		<contour>
			<point x="313" y="-22" type="qcurve" smooth="yes"/>
			<point x="345" y="-22"/>
			<point x="426" y="-1"/>
			<point x="500" y="45"/>
			<point x="555" y="118"/>
			<point x="562" y="170" type="qcurve"/>
			<point x="565" y="207"/>
			<point x="579" y="285"/>
			<point x="587" y="318" type="qcurve"/>
			<point x="587" y="330" type="line"/>
			<point x="604" y="399"/>
			<point x="632" y="543"/>
			<point x="636" y="616" type="qcurve"/>
			<point x="667" y="620"/>
			<point x="704" y="638" type="qcurve"/>
			<point x="709" y="638"/>
			<point x="722" y="632"/>
			<point x="731" y="632" type="qcurve" smooth="yes"/>
			<point x="742" y="632"/>
			<point x="760" y="644"/>
			<point x="760" y="653" type="qcurve" smooth="yes"/>
			<point x="760" y="668"/>
			<point x="745" y="688"/>
			<point x="731" y="688" type="qcurve"/>
			<point x="729" y="691"/>
			<point x="716" y="700"/>
			<point x="705" y="700" type="qcurve" smooth="yes"/>
			<point x="697" y="700"/>
			<point x="676" y="690"/>
			<point x="652" y="679"/>
			<point x="626" y="669"/>
			<point x="614" y="669" type="qcurve" smooth="yes"/>
			<point x="591" y="669"/>
			<point x="543" y="683"/>
			<point x="517" y="694" type="qcurve"/>
			<point x="509" y="694" type="line" smooth="yes"/>
			<point x="507" y="694"/>
			<point x="504" y="695"/>
			<point x="502" y="695" type="qcurve" smooth="yes"/>
			<point x="493" y="695"/>
			<point x="476" y="684"/>
			<point x="473" y="676" type="qcurve"/>
			<point x="473" y="663"/>
			<point x="482" y="643"/>
			<point x="495" y="638" type="qcurve"/>
			<point x="499" y="638" type="line"/>
			<point x="518" y="631"/>
			<point x="559" y="620"/>
			<point x="581" y="617" type="qcurve"/>
			<point x="573" y="549"/>
			<point x="549" y="408"/>
			<point x="533" y="339" type="qcurve"/>
			<point x="533" y="334" type="line"/>
			<point x="525" y="298"/>
			<point x="508" y="217"/>
			<point x="505" y="175" type="qcurve"/>
			<point x="501" y="148"/>
			<point x="483" y="109"/>
			<point x="453" y="80"/>
			<point x="414" y="58"/>
			<point x="389" y="48" type="qcurve" smooth="yes"/>
			<point x="353" y="34"/>
			<point x="316" y="34" type="qcurve" smooth="yes"/>
			<point x="281" y="34"/>
			<point x="216" y="56"/>
			<point x="166" y="95"/>
			<point x="135" y="148"/>
			<point x="135" y="180" type="qcurve" smooth="yes"/>
			<point x="135" y="197"/>
			<point x="144" y="233"/>
			<point x="154" y="271"/>
			<point x="163" y="310"/>
			<point x="163" y="330" type="qcurve"/>
			<point x="175" y="387"/>
			<point x="199" y="513"/>
			<point x="207" y="578" type="qcurve"/>
			<point x="207" y="590"/>
			<point x="212" y="609"/>
			<point x="228" y="622"/>
			<point x="256" y="630"/>
			<point x="279" y="632" type="qcurve"/>
			<point x="285" y="632" type="line" smooth="yes"/>
			<point x="291" y="632"/>
			<point x="309" y="634"/>
			<point x="327" y="641"/>
			<point x="340" y="658"/>
			<point x="340" y="673" type="qcurve" smooth="yes"/>
			<point x="340" y="696"/>
			<point x="328" y="712"/>
			<point x="317" y="712" type="qcurve" smooth="yes"/>
			<point x="304" y="712"/>
			<point x="285" y="699"/>
			<point x="285" y="688" type="qcurve"/>
			<point x="226" y="685"/>
			<point x="193" y="664" type="qcurve"/>
			<point x="178" y="675"/>
			<point x="134" y="687"/>
			<point x="93" y="693"/>
			<point x="65" y="695"/>
			<point x="66" y="695" type="qcurve"/>
			<point x="55" y="694"/>
			<point x="40" y="674"/>
			<point x="40" y="663" type="qcurve" smooth="yes"/>
			<point x="40" y="646"/>
			<point x="67" y="634"/>
			<point x="105" y="630"/>
			<point x="143" y="627"/>
			<point x="155" y="619" type="qcurve"/>
			<point x="152" y="610"/>
			<point x="146" y="589"/>
			<point x="146" y="578" type="qcurve" smooth="yes"/>
			<point x="146" y="546"/>
			<point x="134" y="478"/>
			<point x="124" y="440" type="qcurve"/>
			<point x="121" y="421"/>
			<point x="115" y="378"/>
			<point x="109" y="335"/>
			<point x="102" y="295"/>
			<point x="97" y="280" type="qcurve"/>
			<point x="91" y="253"/>
			<point x="78" y="198"/>
			<point x="78" y="170" type="qcurve" smooth="yes"/>
			<point x="78" y="127"/>
			<point x="123" y="56"/>
			<point x="192" y="6"/>
			<point x="275" y="-22"/>
		</contour>
	</outline>
</glyph>
<glyph name="V" format="2">
	<advance width="718"/>
	<unicode hex="0056"/>
	<note>
		V
  </note>
	<outline>
		<contour>
			<point x="122" y="-14" type="qcurve" smooth="yes"/>
			<point x="142" y="-14"/>
			<point x="168" y="30"/>
			<point x="176" y="59" type="qcurve"/>
			<point x="180" y="59" type="line" smooth="yes"/>
			<point x="211" y="59"/>
			<point x="255" y="92"/>
			<point x="273" y="109" type="qcurve" smooth="yes"/>
			<point x="385" y="219"/>
			<point x="605" y="445"/>
			<point x="725" y="554" type="qcurve" smooth="yes"/>
			<point x="749" y="576"/>
			<point x="749" y="607" type="qcurve" smooth="yes"/>
			<point x="749" y="630"/>
			<point x="717" y="669"/>
			<point x="693" y="675" type="qcurve" smooth="yes"/>
			<point x="680" y="678"/>
			<point x="653" y="691"/>
			<point x="634" y="691" type="qcurve" smooth="yes"/>
			<point x="618" y="691"/>
			<point x="596" y="677"/>
			<point x="596" y="662" type="qcurve" smooth="yes"/>
			<point x="596" y="650"/>
			<point x="614" y="634"/>
			<point x="625" y="634" type="qcurve" smooth="yes"/>
			<point x="627" y="634"/>
			<point x="631" y="635"/>
			<point x="633" y="635" type="qcurve" smooth="yes"/>
			<point x="637" y="635"/>
			<point x="656" y="630"/>
			<point x="676" y="621"/>
			<point x="692" y="611"/>
			<point x="692" y="606" type="qcurve" smooth="yes"/>
			<point x="692" y="601"/>
			<point x="687" y="596" type="qcurve"/>
			<point x="566" y="486"/>
			<point x="347" y="261"/>
			<point x="231" y="147" type="qcurve" smooth="yes"/>
			<point x="218" y="134"/>
			<point x="198" y="118"/>
			<point x="188" y="116" type="qcurve"/>
			<point x="189" y="124"/>
			<point x="190" y="139"/>
			<point x="190" y="144" type="qcurve" smooth="yes"/>
			<point x="190" y="172"/>
			<point x="179" y="218"/>
			<point x="179" y="238" type="qcurve" smooth="yes"/>
			<point x="179" y="249"/>
			<point x="187" y="269"/>
			<point x="187" y="277" type="qcurve" smooth="yes"/>
			<point x="187" y="288"/>
			<point x="171" y="306"/>
			<point x="159" y="306" type="qcurve" smooth="yes"/>
			<point x="148" y="306"/>
			<point x="133" y="291"/>
			<point x="125" y="270"/>
			<point x="122" y="246"/>
			<point x="122" y="238" type="qcurve" smooth="yes"/>
			<point x="122" y="213"/>
			<point x="134" y="169"/>
			<point x="134" y="147" type="qcurve" smooth="yes"/>
			<point x="134" y="117"/>
			<point x="117" y="52"/>
			<point x="100" y="32" type="qcurve"/>
			<point x="93" y="23"/>
			<point x="93" y="14" type="qcurve" smooth="yes"/>
			<point x="93" y="3"/>
			<point x="110" y="-14"/>
		</contour>
		<contour>
			<point x="186" y="385" type="qcurve" smooth="yes"/>
			<point x="200" y="385"/>
			<point x="217" y="410"/>
			<point x="225" y="444"/>
			<point x="227" y="482"/>
			<point x="227" y="494" type="qcurve" smooth="yes"/>
			<point x="227" y="523"/>
			<point x="234" y="577"/>
			<point x="234" y="602" type="qcurve" smooth="yes"/>
			<point x="234" y="609"/>
			<point x="227" y="622"/>
			<point x="224" y="628" type="qcurve" smooth="yes"/>
			<point x="193" y="692"/>
			<point x="115" y="692" type="qcurve" smooth="yes"/>
			<point x="99" y="692"/>
			<point x="70" y="682"/>
			<point x="70" y="663" type="qcurve" smooth="yes"/>
			<point x="70" y="651"/>
			<point x="86" y="635"/>
			<point x="97" y="635" type="qcurve" smooth="yes"/>
			<point x="129" y="635"/>
			<point x="163" y="624"/>
			<point x="174" y="603" type="qcurve"/>
			<point x="174" y="602"/>
			<point x="175" y="601"/>
			<point x="175" y="600" type="qcurve"/>
			<point x="170" y="583"/>
			<point x="170" y="536"/>
			<point x="170" y="487"/>
			<point x="167" y="441"/>
			<point x="160" y="424" type="qcurve"/>
			<point x="158" y="420"/>
			<point x="158" y="413" type="qcurve" smooth="yes"/>
			<point x="158" y="402"/>
			<point x="174" y="385"/>
		</contour>
	</outline>
</glyph>
<glyph name="W" format="2">
	<advance width="940"/>
	<unicode hex="0057"/>
	<note>
		W
  </note>
	<outline>
		<contour>
			<point x="80" y="-31" type="qcurve" smooth="yes"/>
			<point x="100" y="-31"/>
			<point x="107" y="-11" type="qcurve" smooth="yes"/>
			<point x="118" y="24"/>
			<point x="169" y="70"/>
			<point x="199" y="93" type="qcurve" smooth="yes"/>
			<point x="208" y="100" type="line"/>
			<point x="225" y="112"/>
			<point x="253" y="143"/>
			<point x="280" y="172"/>
			<point x="309" y="196"/>
			<point x="327" y="202" type="qcurve"/>
			<point x="329" y="174"/>
			<point x="335" y="118"/>
			<point x="335" y="92" type="qcurve" smooth="yes"/>
			<point x="335" y="71"/>
			<point x="326" y="32"/>
			<point x="315" y="13" type="qcurve" smooth="yes"/>
			<point x="311" y="6"/>
			<point x="311" y="-2" type="qcurve" smooth="yes"/>
			<point x="311" y="-13"/>
			<point x="327" y="-31"/>
			<point x="340" y="-31" type="qcurve" smooth="yes"/>
			<point x="351" y="-31"/>
			<point x="368" y="-14"/>
			<point x="380" y="13"/>
			<point x="388" y="44"/>
			<point x="390" y="59" type="qcurve"/>
			<point x="422" y="61"/>
			<point x="464" y="98"/>
			<point x="482" y="118" type="qcurve" smooth="yes"/>
			<point x="542" y="184"/>
			<point x="682" y="333"/>
			<point x="758" y="408" type="qcurve" smooth="yes"/>
			<point x="783" y="432" type="line" smooth="yes"/>
			<point x="818" y="466"/>
			<point x="886" y="539"/>
			<point x="912" y="581" type="qcurve" smooth="yes"/>
			<point x="932" y="613"/>
			<point x="975" y="644"/>
			<point x="1007" y="649" type="qcurve" smooth="yes"/>
			<point x="1018" y="651"/>
			<point x="1030" y="667"/>
			<point x="1030" y="677" type="qcurve" smooth="yes"/>
			<point x="1030" y="689"/>
			<point x="1015" y="706"/>
			<point x="1002" y="706" type="qcurve" smooth="yes"/>
			<point x="958" y="706"/>
			<point x="887" y="651"/>
			<point x="863" y="611" type="qcurve" smooth="yes"/>
			<point x="840" y="573"/>
			<point x="774" y="505"/>
			<point x="742" y="473" type="qcurve" smooth="yes"/>
			<point x="718" y="449" type="line" smooth="yes"/>
			<point x="641" y="372"/>
			<point x="499" y="223"/>
			<point x="437" y="154" type="qcurve" smooth="yes"/>
			<point x="424" y="140"/>
			<point x="404" y="121"/>
			<point x="392" y="118" type="qcurve"/>
			<point x="390" y="141"/>
			<point x="385" y="187"/>
			<point x="385" y="211" type="qcurve" smooth="yes"/>
			<point x="385" y="216"/>
			<point x="385" y="228"/>
			<point x="386" y="233" type="qcurve"/>
			<point x="386" y="239"/>
			<point x="383" y="244" type="qcurve"/>
			<point x="394" y="265"/>
			<point x="398" y="319"/>
			<point x="400" y="344" type="qcurve"/>
			<point x="416" y="345"/>
			<point x="451" y="356"/>
			<point x="468" y="373" type="qcurve" smooth="yes"/>
			<point x="492" y="398"/>
			<point x="545" y="447"/>
			<point x="596" y="500"/>
			<point x="644" y="556"/>
			<point x="664" y="588" type="qcurve" smooth="yes"/>
			<point x="687" y="626"/>
			<point x="747" y="649"/>
			<point x="787" y="649" type="qcurve" smooth="yes"/>
			<point x="799" y="649"/>
			<point x="816" y="666"/>
			<point x="816" y="678" type="qcurve" smooth="yes"/>
			<point x="816" y="690"/>
			<point x="798" y="705"/>
			<point x="787" y="707" type="qcurve"/>
			<point x="765" y="707"/>
			<point x="719" y="701"/>
			<point x="675" y="682"/>
			<point x="633" y="647"/>
			<point x="615" y="618" type="qcurve" smooth="yes"/>
			<point x="586" y="573"/>
			<point x="513" y="495"/>
			<point x="472" y="457" type="qcurve" smooth="yes"/>
			<point x="456" y="442"/>
			<point x="424" y="407"/>
			<point x="403" y="403" type="qcurve"/>
			<point x="405" y="466"/>
			<point x="411" y="585"/>
			<point x="426" y="642" type="qcurve"/>
			<point x="427" y="645"/>
			<point x="427" y="650" type="qcurve" smooth="yes"/>
			<point x="427" y="672"/>
			<point x="407" y="678" type="qcurve" smooth="yes"/>
			<point x="317" y="705" type="line" smooth="yes"/>
			<point x="314" y="706"/>
			<point x="308" y="706" type="qcurve" smooth="yes"/>
			<point x="297" y="706"/>
			<point x="279" y="690"/>
			<point x="279" y="677" type="qcurve" smooth="yes"/>
			<point x="279" y="668"/>
			<point x="291" y="653"/>
			<point x="300" y="650" type="qcurve" smooth="yes"/>
			<point x="364" y="630" type="line"/>
			<point x="354" y="586"/>
			<point x="348" y="498"/>
			<point x="346" y="413"/>
			<point x="343" y="328"/>
			<point x="337" y="287" type="qcurve"/>
			<point x="335" y="280"/>
			<point x="328" y="268"/>
			<point x="324" y="261" type="qcurve"/>
			<point x="294" y="255"/>
			<point x="249" y="225"/>
			<point x="214" y="190"/>
			<point x="186" y="156"/>
			<point x="173" y="146" type="qcurve" smooth="yes"/>
			<point x="164" y="139" type="line" smooth="yes"/>
			<point x="160" y="136"/>
			<point x="153" y="131"/>
			<point x="150" y="128" type="qcurve"/>
			<point x="147" y="138"/>
			<point x="143" y="155"/>
			<point x="143" y="163" type="qcurve"/>
			<point x="146" y="245"/>
			<point x="159" y="409"/>
			<point x="165" y="491" type="qcurve" smooth="yes"/>
			<point x="171" y="579" type="line" smooth="yes"/>
			<point x="172" y="604"/>
			<point x="175" y="631"/>
			<point x="188" y="644"/>
			<point x="219" y="647"/>
			<point x="248" y="649" type="qcurve" smooth="yes"/>
			<point x="259" y="650"/>
			<point x="275" y="666"/>
			<point x="275" y="677" type="qcurve" smooth="yes"/>
			<point x="275" y="690"/>
			<point x="256" y="707"/>
			<point x="244" y="707" type="qcurve"/>
			<point x="205" y="704"/>
			<point x="155" y="692"/>
			<point x="127" y="665"/>
			<point x="115" y="619"/>
			<point x="113" y="583" type="qcurve" smooth="yes"/>
			<point x="108" y="495" type="line" smooth="yes"/>
			<point x="102" y="413"/>
			<point x="91" y="249"/>
			<point x="85" y="167" type="qcurve"/>
			<point x="85" y="145"/>
			<point x="91" y="100"/>
			<point x="99" y="84" type="qcurve"/>
			<point x="92" y="77"/>
			<point x="75" y="56"/>
			<point x="60" y="33"/>
			<point x="50" y="9"/>
			<point x="50" y="-2" type="qcurve" smooth="yes"/>
			<point x="50" y="-13"/>
			<point x="68" y="-31"/>
		</contour>
	</outline>
</glyph>
<glyph name="X" format="2">
	<advance width="691"/>
	<unicode hex="0058"/>
	<note>
		X
  </note>
	<outline>
		<contour>
			<point x="-11" y="-14" type="qcurve" smooth="yes"/>
			<point x="-5" y="-14"/>
			<point x="1" y="-11" type="qcurve" smooth="yes"/>
			<point x="16" y="-4"/>
			<point x="47" y="1"/>
			<point x="63" y="1" type="qcurve" smooth="yes"/>
			<point x="85" y="1"/>
			<point x="131" y="-7"/>
			<point x="156" y="-13" type="qcurve"/>
			<point x="158" y="-14"/>
			<point x="163" y="-14" type="qcurve" smooth="yes"/>
			<point x="174" y="-14"/>
			<point x="192" y="2"/>
			<point x="192" y="15" type="qcurve" smooth="yes"/>
			<point x="192" y="31"/>
			<point x="152" y="49"/>
			<point x="126" y="54" type="qcurve"/>
			<point x="166" y="111"/>
			<point x="261" y="211"/>
			<point x="310" y="260" type="qcurve" smooth="yes"/>
			<point x="341" y="291" type="line"/>
			<point x="391" y="203"/>
			<point x="444" y="124" type="qcurve" smooth="yes"/>
			<point x="453" y="110"/>
			<point x="463" y="71"/>
			<point x="468" y="53" type="qcurve"/>
			<point x="452" y="48"/>
			<point x="426" y="36"/>
			<point x="416" y="36" type="qcurve" smooth="yes"/>
			<point x="408" y="36"/>
			<point x="393" y="44"/>
			<point x="385" y="44" type="qcurve" smooth="yes"/>
			<point x="373" y="44"/>
			<point x="356" y="28"/>
			<point x="356" y="15" type="qcurve" smooth="yes"/>
			<point x="356" y="4"/>
			<point x="368" y="-9"/>
			<point x="386" y="-18"/>
			<point x="408" y="-21"/>
			<point x="417" y="-21" type="qcurve" smooth="yes"/>
			<point x="429" y="-21"/>
			<point x="453" y="-14"/>
			<point x="477" y="-5"/>
			<point x="499" y="3"/>
			<point x="509" y="3" type="qcurve" smooth="yes"/>
			<point x="528" y="3"/>
			<point x="564" y="-17"/>
			<point x="584" y="-17" type="qcurve" smooth="yes"/>
			<point x="593" y="-17"/>
			<point x="616" y="-16"/>
			<point x="636" y="-10"/>
			<point x="650" y="3"/>
			<point x="650" y="15" type="qcurve" smooth="yes"/>
			<point x="650" y="27"/>
			<point x="633" y="44"/>
			<point x="621" y="44" type="qcurve" smooth="yes"/>
			<point x="612" y="44"/>
			<point x="587" y="41"/>
			<point x="581" y="41" type="qcurve"/>
			<point x="555" y="55"/>
			<point x="529" y="60" type="qcurve"/>
			<point x="526" y="82"/>
			<point x="506" y="136"/>
			<point x="493" y="156" type="qcurve" smooth="yes"/>
			<point x="464" y="199"/>
			<point x="409" y="289"/>
			<point x="381" y="340" type="qcurve"/>
			<point x="385" y="340" type="line" smooth="yes"/>
			<point x="391" y="340"/>
			<point x="403" y="345"/>
			<point x="407" y="351" type="qcurve"/>
			<point x="431" y="379"/>
			<point x="487" y="433"/>
			<point x="543" y="489"/>
			<point x="595" y="549"/>
			<point x="616" y="584" type="qcurve" smooth="yes"/>
			<point x="634" y="615"/>
			<point x="687" y="632"/>
			<point x="723" y="638" type="qcurve" smooth="yes"/>
			<point x="733" y="640"/>
			<point x="746" y="656"/>
			<point x="746" y="667" type="qcurve" smooth="yes"/>
			<point x="746" y="678"/>
			<point x="731" y="695"/>
			<point x="718" y="695" type="qcurve" smooth="yes"/>
			<point x="700" y="695"/>
			<point x="658" y="687"/>
			<point x="617" y="668"/>
			<point x="579" y="637"/>
			<point x="566" y="614" type="qcurve" smooth="yes"/>
			<point x="543" y="576"/>
			<point x="485" y="514"/>
			<point x="452" y="482" type="qcurve" smooth="yes"/>
			<point x="443" y="473"/>
			<point x="415" y="447"/>
			<point x="388" y="419"/>
			<point x="364" y="392"/>
			<point x="359" y="381" type="qcurve"/>
			<point x="333" y="431"/>
			<point x="280" y="537"/>
			<point x="253" y="597" type="qcurve" smooth="yes"/>
			<point x="239" y="627"/>
			<point x="203" y="664"/>
			<point x="162" y="685"/>
			<point x="117" y="694"/>
			<point x="96" y="696" type="qcurve"/>
			<point x="65" y="696"/>
			<point x="65" y="665" type="qcurve" smooth="yes"/>
			<point x="65" y="654"/>
			<point x="80" y="639"/>
			<point x="91" y="638" type="qcurve" smooth="yes"/>
			<point x="132" y="635"/>
			<point x="184" y="610"/>
			<point x="201" y="572" type="qcurve" smooth="yes"/>
			<point x="230" y="508"/>
			<point x="286" y="394"/>
			<point x="314" y="341" type="qcurve"/>
			<point x="308" y="340"/>
			<point x="302" y="334" type="qcurve" smooth="yes"/>
			<point x="269" y="301" type="line" smooth="yes"/>
			<point x="213" y="245"/>
			<point x="104" y="128"/>
			<point x="60" y="59" type="qcurve"/>
			<point x="48" y="59"/>
			<point x="13" y="55"/>
			<point x="-18" y="45"/>
			<point x="-40" y="28"/>
			<point x="-40" y="15" type="qcurve" smooth="yes"/>
			<point x="-40" y="1"/>
			<point x="-22" y="-14"/>
		</contour>
	</outline>
</glyph>
<glyph name="Y" format="2">
	<advance width="609"/>
	<unicode hex="0059"/>
	<note>
		Y
  </note>
	<outline>
		<contour>
			<point x="75" y="-7" type="line" smooth="yes"/>
			<point x="103" y="-7"/>
			<point x="164" y="3"/>
			<point x="213" y="30"/>
			<point x="245" y="77"/>
			<point x="245" y="115" type="qcurve" smooth="yes"/>
			<point x="245" y="119"/>
			<point x="244" y="126"/>
			<point x="244" y="131" type="qcurve"/>
			<point x="253" y="140"/>
			<point x="268" y="185"/>
			<point x="279" y="240"/>
			<point x="284" y="296"/>
			<point x="284" y="317" type="qcurve" smooth="yes"/>
			<point x="284" y="326" type="line"/>
			<point x="323" y="345"/>
			<point x="392" y="395"/>
			<point x="454" y="452"/>
			<point x="511" y="512"/>
			<point x="539" y="542" type="qcurve" smooth="yes"/>
			<point x="546" y="550"/>
			<point x="567" y="570"/>
			<point x="587" y="592"/>
			<point x="604" y="612"/>
			<point x="609" y="620" type="qcurve"/>
			<point x="621" y="621"/>
			<point x="656" y="628"/>
			<point x="687" y="641"/>
			<point x="709" y="660"/>
			<point x="709" y="674" type="qcurve" smooth="yes"/>
			<point x="709" y="686"/>
			<point x="691" y="702"/>
			<point x="680" y="702" type="qcurve" smooth="yes"/>
			<point x="672" y="702"/>
			<point x="664" y="697" type="qcurve" smooth="yes"/>
			<point x="634" y="677"/>
			<point x="600" y="677" type="qcurve" smooth="yes"/>
			<point x="576" y="677"/>
			<point x="525" y="691"/>
			<point x="497" y="701" type="qcurve" smooth="yes"/>
			<point x="494" y="702"/>
			<point x="488" y="702" type="qcurve" smooth="yes"/>
			<point x="477" y="702"/>
			<point x="460" y="687"/>
			<point x="460" y="674" type="qcurve" smooth="yes"/>
			<point x="460" y="657"/>
			<point x="509" y="633"/>
			<point x="539" y="627" type="qcurve"/>
			<point x="507" y="593"/>
			<point x="447" y="525"/>
			<point x="384" y="463"/>
			<point x="316" y="408"/>
			<point x="277" y="387" type="qcurve"/>
			<point x="266" y="439"/>
			<point x="237" y="489" type="qcurve"/>
			<point x="234" y="492"/>
			<point x="226" y="510"/>
			<point x="217" y="534"/>
			<point x="208" y="561"/>
			<point x="204" y="573" type="qcurve" smooth="yes"/>
			<point x="199" y="588"/>
			<point x="183" y="630"/>
			<point x="155" y="668"/>
			<point x="113" y="695"/>
			<point x="83" y="695" type="qcurve" smooth="yes"/>
			<point x="71" y="695"/>
			<point x="54" y="678"/>
			<point x="54" y="667" type="qcurve" smooth="yes"/>
			<point x="54" y="656"/>
			<point x="68" y="641"/>
			<point x="78" y="639" type="qcurve" smooth="yes"/>
			<point x="103" y="634"/>
			<point x="126" y="612"/>
			<point x="140" y="575"/>
			<point x="156" y="525"/>
			<point x="174" y="494" type="qcurve"/>
			<point x="198" y="445"/>
			<point x="227" y="362"/>
			<point x="227" y="317" type="qcurve" smooth="yes"/>
			<point x="227" y="279"/>
			<point x="211" y="204"/>
			<point x="200" y="168" type="qcurve"/>
			<point x="196" y="164"/>
			<point x="186" y="150"/>
			<point x="186" y="139" type="qcurve" smooth="yes"/>
			<point x="186" y="132"/>
			<point x="187" y="120"/>
			<point x="187" y="115" type="qcurve" smooth="yes"/>
			<point x="187" y="78"/>
			<point x="125" y="49"/>
			<point x="79" y="49" type="qcurve" smooth="yes"/>
			<point x="75" y="49"/>
			<point x="67" y="50"/>
			<point x="63" y="50" type="qcurve" smooth="yes"/>
			<point x="49" y="50" type="line" smooth="yes"/>
			<point x="37" y="50"/>
			<point x="20" y="33"/>
			<point x="20" y="22" type="qcurve" smooth="yes"/>
			<point x="20" y="10"/>
			<point x="37" y="-7"/>
			<point x="49" y="-7" type="qcurve" smooth="yes"/>
		</contour>
	</outline>
</glyph>
<glyph name="Z" format="2">
	<advance width="598"/>
	<unicode hex="005A"/>
	<note>
		Z
  </note>
	<outline>
		<contour>
			<point x="33" y="1" type="qcurve" smooth="yes"/>
			<point x="52" y="1"/>
			<point x="81" y="11"/>
			<point x="92" y="19" type="qcurve"/>
			<point x="94" y="18" type="line"/>
			<point x="114" y="6"/>
			<point x="155" y="-7"/>
			<point x="190" y="-7" type="qcurve" smooth="yes"/>
			<point x="225" y="-7"/>
			<point x="292" y="-7"/>
			<point x="327" y="-5" type="qcurve" smooth="yes"/>
			<point x="357" y="-4" type="line" smooth="yes"/>
			<point x="408" y="-3"/>
			<point x="467" y="8"/>
			<point x="503" y="38"/>
			<point x="526" y="96"/>
			<point x="541" y="145" type="qcurve"/>
			<point x="543" y="150"/>
			<point x="545" y="159"/>
			<point x="546" y="164" type="qcurve" smooth="yes"/>
			<point x="548" y="173" type="line"/>
			<point x="549" y="175"/>
			<point x="549" y="180" type="qcurve" smooth="yes"/>
			<point x="549" y="192"/>
			<point x="533" y="209"/>
			<point x="521" y="209" type="qcurve" smooth="yes"/>
			<point x="511" y="209"/>
			<point x="495" y="197"/>
			<point x="493" y="188" type="qcurve"/>
			<point x="490" y="177" type="line" smooth="yes"/>
			<point x="489" y="173"/>
			<point x="487" y="164"/>
			<point x="485" y="157" type="qcurve" smooth="yes"/>
			<point x="474" y="118"/>
			<point x="458" y="77"/>
			<point x="434" y="58"/>
			<point x="392" y="54"/>
			<point x="355" y="53" type="qcurve" smooth="yes"/>
			<point x="325" y="52" type="line" smooth="yes"/>
			<point x="287" y="50"/>
			<point x="210" y="50"/>
			<point x="171" y="50" type="qcurve" smooth="yes"/>
			<point x="159" y="50"/>
			<point x="142" y="58"/>
			<point x="131" y="63" type="qcurve"/>
			<point x="145" y="83"/>
			<point x="169" y="120"/>
			<point x="188" y="128" type="qcurve" smooth="yes"/>
			<point x="228" y="145"/>
			<point x="240" y="202" type="qcurve" smooth="yes"/>
			<point x="243" y="218"/>
			<point x="261" y="244"/>
			<point x="274" y="258" type="qcurve" smooth="yes"/>
			<point x="346" y="336"/>
			<point x="476" y="503"/>
			<point x="537" y="591" type="qcurve" smooth="yes"/>
			<point x="554" y="615"/>
			<point x="591" y="643"/>
			<point x="615" y="647" type="qcurve" smooth="yes"/>
			<point x="625" y="649"/>
			<point x="638" y="663"/>
			<point x="638" y="674" type="qcurve" smooth="yes"/>
			<point x="638" y="687"/>
			<point x="621" y="703"/>
			<point x="609" y="703" type="qcurve" smooth="yes"/>
			<point x="589" y="703"/>
			<point x="549" y="685"/>
			<point x="532" y="671" type="qcurve"/>
			<point x="522" y="677"/>
			<point x="496" y="687"/>
			<point x="470" y="694"/>
			<point x="446" y="697"/>
			<point x="438" y="697" type="qcurve" smooth="yes"/>
			<point x="411" y="697"/>
			<point x="357" y="682"/>
			<point x="322" y="682" type="qcurve" smooth="yes"/>
			<point x="307" y="682"/>
			<point x="273" y="685"/>
			<point x="257" y="685" type="qcurve" smooth="yes"/>
			<point x="131" y="685"/>
			<point x="95" y="559" type="qcurve"/>
			<point x="94" y="556"/>
			<point x="94" y="552" type="qcurve" smooth="yes"/>
			<point x="94" y="540"/>
			<point x="110" y="523"/>
			<point x="123" y="523" type="qcurve" smooth="yes"/>
			<point x="132" y="523"/>
			<point x="148" y="534"/>
			<point x="150" y="543" type="qcurve"/>
			<point x="162" y="588"/>
			<point x="213" y="628"/>
			<point x="258" y="628" type="qcurve" smooth="yes"/>
			<point x="274" y="628"/>
			<point x="306" y="624"/>
			<point x="321" y="624" type="qcurve" smooth="yes"/>
			<point x="354" y="624"/>
			<point x="413" y="640"/>
			<point x="437" y="640" type="qcurve" smooth="yes"/>
			<point x="451" y="640"/>
			<point x="477" y="633"/>
			<point x="491" y="626" type="qcurve"/>
			<point x="489" y="624"/>
			<point x="489" y="623" type="qcurve"/>
			<point x="430" y="536"/>
			<point x="302" y="373"/>
			<point x="231" y="296" type="qcurve" smooth="yes"/>
			<point x="217" y="281"/>
			<point x="190" y="240"/>
			<point x="184" y="214" type="qcurve" smooth="yes"/>
			<point x="178" y="186"/>
			<point x="166" y="180" type="qcurve"/>
			<point x="147" y="172"/>
			<point x="120" y="150"/>
			<point x="99" y="124"/>
			<point x="83" y="96"/>
			<point x="77" y="84" type="qcurve" smooth="yes"/>
			<point x="71" y="72"/>
			<point x="47" y="62"/>
			<point x="23" y="55"/>
			<point x="5" y="44"/>
			<point x="5" y="30" type="qcurve" smooth="yes"/>
			<point x="5" y="18"/>
			<point x="21" y="1"/>
		</contour>
	</outline>
</glyph>
<glyph name="bracketleft" format="2">
	<advance width="351"/>
	<unicode hex="005B"/>
	<note>
		bracketleft
  </note>
	<outline>
		<contour>
			<point x="161" y="-178" type="qcurve" smooth="yes"/>
			<point x="173" y="-178"/>
			<point x="194" y="-158"/>
			<point x="194" y="-144" type="qcurve" smooth="yes"/>
			<point x="194" y="-134"/>
			<point x="183" y="-119"/>
			<point x="167" y="-109"/>
			<point x="149" y="-105"/>
			<point x="141" y="-105" type="qcurve" smooth="yes"/>
			<point x="129" y="-105"/>
			<point x="109" y="-111"/>
			<point x="100" y="-111" type="qcurve"/>
			<point x="107" y="-78"/>
			<point x="129" y="-12"/>
			<point x="156" y="56"/>
			<point x="183" y="125"/>
			<point x="195" y="160" type="qcurve" smooth="yes"/>
			<point x="210" y="205"/>
			<point x="249" y="295"/>
			<point x="288" y="387"/>
			<point x="322" y="480"/>
			<point x="331" y="530" type="qcurve" smooth="yes"/>
			<point x="339" y="572"/>
			<point x="365" y="647"/>
			<point x="398" y="680" type="qcurve"/>
			<point x="421" y="684"/>
			<point x="466" y="693"/>
			<point x="489" y="693" type="qcurve" smooth="yes"/>
			<point x="502" y="693"/>
			<point x="526" y="690"/>
			<point x="538" y="690" type="qcurve" smooth="yes"/>
			<point x="552" y="690"/>
			<point x="571" y="709"/>
			<point x="571" y="723" type="qcurve" smooth="yes"/>
			<point x="571" y="736"/>
			<point x="559" y="751"/>
			<point x="540" y="759"/>
			<point x="517" y="761"/>
			<point x="506" y="761" type="qcurve" smooth="yes"/>
			<point x="478" y="761"/>
			<point x="433" y="757"/>
			<point x="410" y="752" type="qcurve" smooth="yes"/>
			<point x="397" y="749"/>
			<point x="366" y="747"/>
			<point x="340" y="739"/>
			<point x="322" y="724"/>
			<point x="322" y="709" type="qcurve" smooth="yes"/>
			<point x="322" y="701"/>
			<point x="323" y="698" type="qcurve"/>
			<point x="294" y="662"/>
			<point x="272" y="584"/>
			<point x="264" y="543" type="qcurve" smooth="yes"/>
			<point x="255" y="498"/>
			<point x="223" y="410"/>
			<point x="185" y="320"/>
			<point x="146" y="229"/>
			<point x="130" y="182" type="qcurve" smooth="yes"/>
			<point x="117" y="144"/>
			<point x="86" y="68"/>
			<point x="57" y="-10"/>
			<point x="33" y="-90"/>
			<point x="28" y="-131" type="qcurve"/>
			<point x="28" y="-133"/>
			<point x="27" y="-135"/>
			<point x="27" y="-137" type="qcurve" smooth="yes"/>
			<point x="27" y="-149"/>
			<point x="41" y="-166"/>
			<point x="61" y="-177"/>
			<point x="82" y="-181"/>
			<point x="89" y="-181" type="qcurve" smooth="yes"/>
			<point x="106" y="-181"/>
			<point x="130" y="-174"/>
			<point x="140" y="-174" type="qcurve" smooth="yes"/>
			<point x="145" y="-174"/>
			<point x="156" y="-178"/>
		</contour>
	</outline>
</glyph>
<glyph name="backslash" format="2">
	<advance width="470"/>
	<unicode hex="005C"/>
	<note>
		backslash
  </note>
	<outline>
		<contour>
			<point x="406" y="-35" type="qcurve" smooth="yes"/>
			<point x="419" y="-35"/>
			<point x="435" y="-17"/>
			<point x="435" y="-6" type="qcurve" smooth="yes"/>
			<point x="435" y="1"/>
			<point x="434" y="4" type="qcurve" smooth="yes"/>
			<point x="428" y="23"/>
			<point x="421" y="66"/>
			<point x="412" y="112"/>
			<point x="399" y="157"/>
			<point x="388" y="178" type="qcurve" smooth="yes"/>
			<point x="349" y="256"/>
			<point x="292" y="382"/>
			<point x="247" y="484"/>
			<point x="209" y="568"/>
			<point x="167" y="642"/>
			<point x="117" y="711"/>
			<point x="83" y="748" type="qcurve"/>
			<point x="73" y="758"/>
			<point x="61" y="758" type="qcurve" smooth="yes"/>
			<point x="49" y="758"/>
			<point x="32" y="740"/>
			<point x="32" y="728" type="qcurve" smooth="yes"/>
			<point x="32" y="717"/>
			<point x="40" y="709" type="qcurve"/>
			<point x="72" y="674"/>
			<point x="119" y="608"/>
			<point x="159" y="536"/>
			<point x="196" y="453"/>
			<point x="240" y="353"/>
			<point x="297" y="229"/>
			<point x="336" y="152" type="qcurve" smooth="yes"/>
			<point x="347" y="131"/>
			<point x="357" y="83"/>
			<point x="362" y="58" type="qcurve" smooth="yes"/>
			<point x="364" y="46"/>
			<point x="368" y="13"/>
			<point x="377" y="-15"/>
			<point x="392" y="-35"/>
		</contour>
	</outline>
</glyph>
<glyph name="bracketright" format="2">
	<advance width="538"/>
	<unicode hex="005D"/>
	<note>
		bracketright
  </note>
	<outline>
		<contour>
			<point x="103" y="-163" type="qcurve"/>
			<point x="114" y="-162"/>
			<point x="132" y="-147"/>
			<point x="134" y="-136" type="qcurve"/>
			<point x="136" y="-136"/>
			<point x="141" y="-137"/>
			<point x="143" y="-137" type="qcurve" smooth="yes"/>
			<point x="155" y="-137"/>
			<point x="164" y="-128" type="qcurve"/>
			<point x="210" y="-88"/>
			<point x="250" y="9"/>
			<point x="261" y="57" type="qcurve" smooth="yes"/>
			<point x="271" y="101"/>
			<point x="307" y="188"/>
			<point x="349" y="276"/>
			<point x="392" y="366"/>
			<point x="410" y="413" type="qcurve" smooth="yes"/>
			<point x="425" y="451"/>
			<point x="459" y="526"/>
			<point x="491" y="603"/>
			<point x="518" y="681"/>
			<point x="525" y="722" type="qcurve"/>
			<point x="525" y="737"/>
			<point x="512" y="757"/>
			<point x="493" y="769"/>
			<point x="471" y="774"/>
			<point x="462" y="774" type="qcurve" smooth="yes"/>
			<point x="447" y="774"/>
			<point x="425" y="769"/>
			<point x="414" y="769" type="qcurve" smooth="yes"/>
			<point x="409" y="769"/>
			<point x="399" y="774"/>
			<point x="394" y="774" type="qcurve" smooth="yes"/>
			<point x="386" y="774"/>
			<point x="380" y="771" type="qcurve"/>
			<point x="358" y="776"/>
			<point x="315" y="781"/>
			<point x="292" y="781" type="qcurve" smooth="yes"/>
			<point x="278" y="781"/>
			<point x="240" y="778"/>
			<point x="205" y="769"/>
			<point x="180" y="750"/>
			<point x="180" y="734" type="qcurve" smooth="yes"/>
			<point x="180" y="720"/>
			<point x="200" y="700"/>
			<point x="214" y="700" type="qcurve" smooth="yes"/>
			<point x="217" y="700"/>
			<point x="222" y="701"/>
			<point x="225" y="702" type="qcurve" smooth="yes"/>
			<point x="256" y="712"/>
			<point x="291" y="712" type="qcurve" smooth="yes"/>
			<point x="318" y="712"/>
			<point x="376" y="703"/>
			<point x="405" y="697" type="qcurve" smooth="yes"/>
			<point x="438" y="690" type="line"/>
			<point x="447" y="690" type="line"/>
			<point x="429" y="628"/>
			<point x="370" y="503"/>
			<point x="346" y="438" type="qcurve" smooth="yes"/>
			<point x="329" y="392"/>
			<point x="286" y="303"/>
			<point x="244" y="214"/>
			<point x="207" y="122"/>
			<point x="195" y="73" type="qcurve" smooth="yes"/>
			<point x="184" y="30"/>
			<point x="153" y="-46"/>
			<point x="118" y="-77" type="qcurve" smooth="yes"/>
			<point x="109" y="-85"/>
			<point x="107" y="-96" type="qcurve"/>
			<point x="103" y="-94"/>
			<point x="95" y="-94"/>
			<point x="90" y="-94" type="qcurve" smooth="yes"/>
			<point x="76" y="-94"/>
			<point x="47" y="-96"/>
			<point x="33" y="-96" type="qcurve" smooth="yes"/>
			<point x="19" y="-96"/>
			<point x="-13" y="-85"/>
			<point x="-28" y="-85" type="qcurve" smooth="yes"/>
			<point x="-41" y="-85"/>
			<point x="-61" y="-106"/>
			<point x="-61" y="-121" type="qcurve" smooth="yes"/>
			<point x="-61" y="-134"/>
			<point x="-41" y="-151"/>
			<point x="-13" y="-161"/>
			<point x="18" y="-165"/>
			<point x="29" y="-165" type="qcurve" smooth="yes"/>
			<point x="43" y="-165"/>
			<point x="68" y="-162"/>
			<point x="82" y="-162" type="qcurve" smooth="yes"/>
			<point x="87" y="-162"/>
			<point x="98" y="-163"/>
		</contour>
	</outline>
</glyph>
<glyph name="underscore" format="2">
	<advance width="833"/>
	<unicode hex="005F"/>
	<note>
		underscore
  </note>
	<outline>
		<contour>
			<point x="64" y="-105" type="qcurve" smooth="yes"/>
			<point x="75" y="-105"/>
			<point x="91" y="-87"/>
			<point x="92" y="-73" type="qcurve"/>
			<point x="305" y="-73" type="line" smooth="yes"/>
			<point x="338" y="-73"/>
			<point x="405" y="-74"/>
			<point x="438" y="-74" type="qcurve" smooth="yes"/>
			<point x="445" y="-74"/>
			<point x="459" y="-74"/>
			<point x="466" y="-73" type="qcurve"/>
			<point x="501" y="-73"/>
			<point x="563" y="-80"/>
			<point x="595" y="-80" type="qcurve" smooth="yes"/>
			<point x="630" y="-80"/>
			<point x="698" y="-75"/>
			<point x="731" y="-75" type="qcurve" smooth="yes"/>
			<point x="744" y="-75" type="line" smooth="yes"/>
			<point x="759" y="-75"/>
			<point x="783" y="-66"/>
			<point x="783" y="-44" type="qcurve" smooth="yes"/>
			<point x="783" y="-19"/>
			<point x="753" y="-8"/>
			<point x="732" y="-8" type="qcurve" smooth="yes"/>
			<point x="697" y="-8"/>
			<point x="626" y="-13"/>
			<point x="591" y="-13" type="qcurve" smooth="yes"/>
			<point x="566" y="-13"/>
			<point x="516" y="-6"/>
			<point x="490" y="-6" type="qcurve" smooth="yes"/>
			<point x="484" y="-6"/>
			<point x="471" y="-7"/>
			<point x="465" y="-7" type="qcurve" smooth="yes"/>
			<point x="441" y="-7"/>
			<point x="394" y="-6"/>
			<point x="371" y="-6" type="qcurve" smooth="yes"/>
			<point x="354" y="-6"/>
			<point x="322" y="-7"/>
			<point x="305" y="-7" type="qcurve" smooth="yes"/>
			<point x="64" y="-7" type="line" smooth="yes"/>
			<point x="52" y="-7"/>
			<point x="36" y="-26"/>
			<point x="36" y="-40" type="qcurve" smooth="yes"/>
			<point x="36" y="-71" type="line" smooth="yes"/>
			<point x="36" y="-86"/>
			<point x="52" y="-105"/>
		</contour>
	</outline>
</glyph>
<glyph name="a" format="2">
	<advance width="462"/>
	<unicode hex="0061"/>
	<note>
		a
  </note>
	<outline>
		<contour>
			<point x="257" y="-40" type="qcurve" smooth="yes"/>
			<point x="270" y="-40"/>
			<point x="287" y="-22"/>
			<point x="287" y="-9" type="qcurve"/>
			<point x="286" y="-4"/>
			<point x="286" y="6"/>
			<point x="286" y="10" type="qcurve" smooth="yes"/>
			<point x="286" y="24"/>
			<point x="288" y="29"/>
			<point x="296" y="29" type="qcurve" smooth="yes"/>
			<point x="300" y="29"/>
			<point x="317" y="25"/>
			<point x="328" y="25" type="qcurve" smooth="yes"/>
			<point x="338" y="25"/>
			<point x="367" y="34"/>
			<point x="394" y="52"/>
			<point x="413" y="78"/>
			<point x="413" y="95" type="qcurve" smooth="yes"/>
			<point x="413" y="106"/>
			<point x="398" y="124"/>
			<point x="384" y="124" type="qcurve" smooth="yes"/>
			<point x="373" y="124"/>
			<point x="360" y="111"/>
			<point x="349" y="96"/>
			<point x="338" y="84"/>
			<point x="329" y="84" type="qcurve" smooth="yes"/>
			<point x="324" y="84"/>
			<point x="317" y="85"/>
			<point x="312" y="85" type="qcurve"/>
			<point x="312" y="94" type="line" smooth="yes"/>
			<point x="312" y="109"/>
			<point x="317" y="120" type="qcurve" smooth="yes"/>
			<point x="329" y="148"/>
			<point x="362" y="200"/>
			<point x="392" y="254"/>
			<point x="415" y="312"/>
			<point x="417" y="347" type="qcurve"/>
			<point x="420" y="359"/>
			<point x="439" y="367"/>
			<point x="460" y="374"/>
			<point x="477" y="385"/>
			<point x="477" y="400" type="qcurve" smooth="yes"/>
			<point x="477" y="414"/>
			<point x="456" y="429"/>
			<point x="441" y="429" type="qcurve" smooth="yes"/>
			<point x="420" y="429"/>
			<point x="381" y="404"/>
			<point x="370" y="386" type="qcurve"/>
			<point x="353" y="392"/>
			<point x="317" y="397"/>
			<point x="305" y="397" type="qcurve" smooth="yes"/>
			<point x="246" y="397"/>
			<point x="165" y="329"/>
			<point x="127" y="264" type="qcurve" smooth="yes"/>
			<point x="111" y="237"/>
			<point x="80" y="192"/>
			<point x="55" y="152"/>
			<point x="40" y="112"/>
			<point x="40" y="89" type="qcurve" smooth="yes"/>
			<point x="40" y="65"/>
			<point x="53" y="32"/>
			<point x="72" y="12"/>
			<point x="95" y="4"/>
			<point x="106" y="4" type="qcurve" smooth="yes"/>
			<point x="128" y="4"/>
			<point x="161" y="17"/>
			<point x="173" y="17" type="qcurve" smooth="yes"/>
			<point x="175" y="17"/>
			<point x="178" y="16"/>
			<point x="180" y="16" type="qcurve" smooth="yes"/>
			<point x="192" y="16"/>
			<point x="208" y="33"/>
			<point x="208" y="46" type="qcurve" smooth="yes"/>
			<point x="208" y="60"/>
			<point x="187" y="76"/>
			<point x="172" y="76" type="qcurve" smooth="yes"/>
			<point x="155" y="76"/>
			<point x="125" y="64"/>
			<point x="111" y="64" type="qcurve" smooth="yes"/>
			<point x="103" y="64"/>
			<point x="99" y="81"/>
			<point x="99" y="89" type="qcurve" smooth="yes"/>
			<point x="99" y="105"/>
			<point x="116" y="141"/>
			<point x="140" y="179"/>
			<point x="167" y="216"/>
			<point x="178" y="234" type="qcurve" smooth="yes"/>
			<point x="207" y="284"/>
			<point x="264" y="338"/>
			<point x="305" y="338" type="qcurve" smooth="yes"/>
			<point x="327" y="338"/>
			<point x="354" y="327" type="qcurve"/>
			<point x="347" y="296"/>
			<point x="314" y="238"/>
			<point x="279" y="182"/>
			<point x="253" y="126"/>
			<point x="253" y="96" type="qcurve" smooth="yes"/>
			<point x="253" y="74" type="line"/>
			<point x="237" y="62"/>
			<point x="227" y="23"/>
			<point x="227" y="6" type="qcurve" smooth="yes"/>
			<point x="227" y="-12"/>
			<point x="237" y="-40"/>
		</contour>
	</outline>
</glyph>
<glyph name="b" format="2">
	<advance width="410"/>
	<unicode hex="0062"/>
	<note>
		b
  </note>
	<outline>
		<contour>
			<point x="107" y="-21" type="qcurve" smooth="yes"/>
			<point x="135" y="-21"/>
			<point x="203" y="11"/>
			<point x="270" y="64"/>
			<point x="333" y="135"/>
			<point x="381" y="213"/>
			<point x="410" y="293"/>
			<point x="410" y="330" type="qcurve" smooth="yes"/>
			<point x="410" y="361"/>
			<point x="395" y="398"/>
			<point x="373" y="419"/>
			<point x="347" y="426"/>
			<point x="336" y="426" type="qcurve" smooth="yes"/>
			<point x="317" y="426"/>
			<point x="279" y="406"/>
			<point x="245" y="382"/>
			<point x="216" y="360"/>
			<point x="205" y="357" type="qcurve"/>
			<point x="211" y="402"/>
			<point x="244" y="486"/>
			<point x="263" y="525" type="qcurve" smooth="yes"/>
			<point x="273" y="546"/>
			<point x="283" y="591"/>
			<point x="293" y="633"/>
			<point x="310" y="669"/>
			<point x="327" y="681" type="qcurve" smooth="yes"/>
			<point x="339" y="690"/>
			<point x="339" y="705" type="qcurve" smooth="yes"/>
			<point x="339" y="718"/>
			<point x="321" y="735"/>
			<point x="310" y="735" type="qcurve" smooth="yes"/>
			<point x="302" y="735"/>
			<point x="294" y="729"/>
			<point x="287" y="725" type="qcurve"/>
			<point x="219" y="744" type="line"/>
			<point x="216" y="745"/>
			<point x="210" y="745" type="qcurve" smooth="yes"/>
			<point x="199" y="745"/>
			<point x="182" y="729"/>
			<point x="182" y="715" type="qcurve" smooth="yes"/>
			<point x="182" y="705"/>
			<point x="194" y="690"/>
			<point x="203" y="688" type="qcurve"/>
			<point x="247" y="675" type="line"/>
			<point x="239" y="658"/>
			<point x="230" y="623"/>
			<point x="226" y="606" type="qcurve" smooth="yes"/>
			<point x="217" y="569"/>
			<point x="190" y="503"/>
			<point x="164" y="436"/>
			<point x="144" y="364"/>
			<point x="143" y="321" type="qcurve" smooth="yes"/>
			<point x="143" y="306"/>
			<point x="128" y="276"/>
			<point x="107" y="244"/>
			<point x="84" y="211"/>
			<point x="76" y="193" type="qcurve" smooth="yes"/>
			<point x="63" y="165"/>
			<point x="30" y="110"/>
			<point x="30" y="81" type="qcurve" smooth="yes"/>
			<point x="30" y="64"/>
			<point x="43" y="28"/>
			<point x="64" y="-2"/>
			<point x="92" y="-21"/>
		</contour>
		<contour>
			<point x="199" y="297" type="qcurve"/>
			<point x="227" y="297"/>
			<point x="266" y="324"/>
			<point x="283" y="338" type="qcurve" smooth="yes"/>
			<point x="303" y="354"/>
			<point x="331" y="367"/>
			<point x="338" y="367" type="qcurve" smooth="yes"/>
			<point x="341" y="367"/>
			<point x="349" y="357"/>
			<point x="351" y="334" type="qcurve"/>
			<point x="351" y="307"/>
			<point x="328" y="242"/>
			<point x="289" y="177"/>
			<point x="239" y="115"/>
			<point x="186" y="68"/>
			<point x="133" y="39"/>
			<point x="111" y="39" type="qcurve" smooth="yes"/>
			<point x="106" y="39"/>
			<point x="98" y="50"/>
			<point x="92" y="64"/>
			<point x="89" y="78"/>
			<point x="89" y="81" type="qcurve" smooth="yes"/>
			<point x="89" y="89"/>
			<point x="98" y="111"/>
			<point x="110" y="134"/>
			<point x="124" y="158"/>
			<point x="129" y="167" type="qcurve" smooth="yes"/>
			<point x="137" y="182"/>
			<point x="158" y="213"/>
			<point x="178" y="245"/>
			<point x="195" y="279"/>
		</contour>
	</outline>
</glyph>
<glyph name="c" format="2">
	<advance width="302"/>
	<unicode hex="0063"/>
	<note>
		c
  </note>
	<outline>
		<contour>
			<point x="109" y="-6" type="qcurve" smooth="yes"/>
			<point x="130" y="-6"/>
			<point x="168" y="13"/>
			<point x="202" y="41"/>
			<point x="231" y="73"/>
			<point x="242" y="87" type="qcurve" smooth="yes"/>
			<point x="257" y="105" type="line"/>
			<point x="265" y="113"/>
			<point x="265" y="124" type="qcurve" smooth="yes"/>
			<point x="265" y="136"/>
			<point x="247" y="154"/>
			<point x="235" y="154" type="qcurve" smooth="yes"/>
			<point x="224" y="154"/>
			<point x="214" y="144" type="qcurve"/>
			<point x="198" y="125" type="line" smooth="yes"/>
			<point x="187" y="111"/>
			<point x="161" y="86"/>
			<point x="136" y="65"/>
			<point x="115" y="52"/>
			<point x="109" y="52" type="qcurve" smooth="yes"/>
			<point x="108" y="52"/>
			<point x="101" y="53"/>
			<point x="94" y="59"/>
			<point x="88" y="71"/>
			<point x="88" y="82" type="qcurve" smooth="yes"/>
			<point x="88" y="90"/>
			<point x="91" y="104" type="qcurve" smooth="yes"/>
			<point x="105" y="168"/>
			<point x="165" y="275"/>
			<point x="209" y="318" type="qcurve" smooth="yes"/>
			<point x="232" y="341"/>
			<point x="248" y="341" type="qcurve" smooth="yes"/>
			<point x="254" y="341"/>
			<point x="265" y="332"/>
			<point x="277" y="320"/>
			<point x="290" y="311"/>
			<point x="298" y="311" type="qcurve" smooth="yes"/>
			<point x="312" y="311"/>
			<point x="327" y="329"/>
			<point x="327" y="340" type="qcurve" smooth="yes"/>
			<point x="327" y="354"/>
			<point x="309" y="376"/>
			<point x="284" y="391"/>
			<point x="258" y="399"/>
			<point x="249" y="399" type="qcurve" smooth="yes"/>
			<point x="214" y="399"/>
			<point x="146" y="344"/>
			<point x="88" y="261"/>
			<point x="44" y="162"/>
			<point x="34" y="117" type="qcurve" smooth="yes"/>
			<point x="32" y="108"/>
			<point x="30" y="91"/>
			<point x="30" y="83" type="qcurve" smooth="yes"/>
			<point x="30" y="48"/>
			<point x="72" y="-6"/>
		</contour>
	</outline>
</glyph>
<glyph name="d" format="2">
	<advance width="446"/>
	<unicode hex="0064"/>
	<note>
		d
  </note>
	<outline>
		<contour>
			<point x="216" y="66" type="qcurve" smooth="yes"/>
			<point x="225" y="66"/>
			<point x="234" y="73"/>
			<point x="242" y="84"/>
			<point x="254" y="98"/>
			<point x="266" y="105" type="qcurve"/>
			<point x="266" y="68"/>
			<point x="252" y="41"/>
			<point x="229" y="41" type="qcurve" smooth="yes"/>
			<point x="217" y="41"/>
			<point x="201" y="23"/>
			<point x="201" y="11" type="qcurve" smooth="yes"/>
			<point x="201" y="0"/>
			<point x="218" y="-16"/>
			<point x="230" y="-16" type="qcurve" smooth="yes"/>
			<point x="265" y="-16"/>
			<point x="304" y="15"/>
			<point x="312" y="35" type="qcurve"/>
			<point x="318" y="32"/>
			<point x="326" y="32" type="qcurve" smooth="yes"/>
			<point x="336" y="32"/>
			<point x="356" y="43"/>
			<point x="372" y="58"/>
			<point x="385" y="75"/>
			<point x="390" y="81" type="qcurve"/>
			<point x="397" y="91"/>
			<point x="414" y="104"/>
			<point x="428" y="116"/>
			<point x="437" y="128"/>
			<point x="437" y="136" type="qcurve" smooth="yes"/>
			<point x="437" y="149"/>
			<point x="419" y="165"/>
			<point x="408" y="165" type="qcurve" smooth="yes"/>
			<point x="398" y="165"/>
			<point x="378" y="154"/>
			<point x="362" y="138"/>
			<point x="348" y="122"/>
			<point x="344" y="116" type="qcurve" smooth="yes"/>
			<point x="339" y="108"/>
			<point x="328" y="99"/>
			<point x="323" y="94" type="qcurve"/>
			<point x="323" y="116" type="line" smooth="yes"/>
			<point x="323" y="175"/>
			<point x="359" y="285"/>
			<point x="380" y="339" type="qcurve" smooth="yes"/>
			<point x="387" y="357" type="line" smooth="yes"/>
			<point x="415" y="429"/>
			<point x="459" y="571"/>
			<point x="484" y="640" type="qcurve" smooth="yes"/>
			<point x="485" y="643"/>
			<point x="486" y="648"/>
			<point x="486" y="651" type="qcurve" smooth="yes"/>
			<point x="486" y="656"/>
			<point x="471" y="673"/>
			<point x="444" y="690"/>
			<point x="405" y="703"/>
			<point x="381" y="703" type="qcurve" smooth="yes"/>
			<point x="364" y="703"/>
			<point x="338" y="689"/>
			<point x="338" y="673" type="qcurve" smooth="yes"/>
			<point x="338" y="660"/>
			<point x="356" y="644"/>
			<point x="367" y="644" type="qcurve" smooth="yes"/>
			<point x="371" y="644"/>
			<point x="377" y="646"/>
			<point x="381" y="646" type="qcurve" smooth="yes"/>
			<point x="390" y="646"/>
			<point x="410" y="639"/>
			<point x="421" y="634" type="qcurve"/>
			<point x="401" y="577"/>
			<point x="365" y="464"/>
			<point x="344" y="408" type="qcurve"/>
			<point x="329" y="416"/>
			<point x="294" y="425"/>
			<point x="283" y="425" type="qcurve" smooth="yes"/>
			<point x="232" y="425"/>
			<point x="187" y="377" type="qcurve" smooth="yes"/>
			<point x="180" y="369"/>
			<point x="153" y="340"/>
			<point x="126" y="307"/>
			<point x="105" y="276"/>
			<point x="105" y="266" type="qcurve" smooth="yes"/>
			<point x="105" y="255"/>
			<point x="121" y="238"/>
			<point x="133" y="238" type="qcurve" smooth="yes"/>
			<point x="147" y="238"/>
			<point x="156" y="250" type="qcurve" smooth="yes"/>
			<point x="174" y="273"/>
			<point x="207" y="315"/>
			<point x="239" y="348"/>
			<point x="269" y="367"/>
			<point x="283" y="367" type="qcurve" smooth="yes"/>
			<point x="292" y="367"/>
			<point x="312" y="356"/>
			<point x="323" y="352" type="qcurve"/>
			<point x="306" y="310"/>
			<point x="277" y="220"/>
			<point x="270" y="171" type="qcurve"/>
			<point x="266" y="169"/>
			<point x="266" y="169" type="qcurve"/>
			<point x="258" y="166" type="line"/>
			<point x="251" y="163"/>
			<point x="227" y="152"/>
			<point x="204" y="135"/>
			<point x="187" y="111"/>
			<point x="187" y="95" type="qcurve" smooth="yes"/>
			<point x="187" y="84"/>
			<point x="203" y="66"/>
		</contour>
		<contour>
			<point x="147" y="-3" type="line" smooth="yes"/>
			<point x="159" y="-3"/>
			<point x="176" y="14"/>
			<point x="176" y="26" type="qcurve" smooth="yes"/>
			<point x="176" y="38"/>
			<point x="159" y="55"/>
			<point x="147" y="55" type="qcurve" smooth="yes"/>
			<point x="88" y="55" type="line"/>
			<point x="90" y="86"/>
			<point x="109" y="152"/>
			<point x="114" y="188" type="qcurve"/>
			<point x="114" y="199"/>
			<point x="100" y="220"/>
			<point x="88" y="220" type="qcurve" smooth="yes"/>
			<point x="59" y="220"/>
			<point x="57" y="194" type="qcurve"/>
			<point x="53" y="160"/>
			<point x="30" y="87"/>
			<point x="30" y="46" type="qcurve" smooth="yes"/>
			<point x="30" y="29"/>
			<point x="40" y="-3"/>
			<point x="60" y="-3" type="qcurve" smooth="yes"/>
		</contour>
	</outline>
</glyph>
<glyph name="e" format="2">
	<advance width="315"/>
	<unicode hex="0065"/>
	<note>
		e
  </note>
	<outline>
		<contour>
			<point x="247" y="103" type="qcurve" smooth="yes"/>
			<point x="247" y="114"/>
			<point x="230" y="130"/>
			<point x="218" y="130" type="qcurve" smooth="yes"/>
			<point x="201" y="130"/>
			<point x="193" y="117" type="qcurve"/>
			<point x="193" y="118" type="line"/>
			<point x="183" y="105"/>
			<point x="164" y="81"/>
			<point x="142" y="63"/>
			<point x="116" y="52"/>
			<point x="100" y="52" type="qcurve" smooth="yes"/>
			<point x="95" y="52"/>
			<point x="92" y="55" type="qcurve"/>
			<point x="98" y="66"/>
			<point x="102" y="89"/>
			<point x="102" y="100" type="qcurve" smooth="yes"/>
			<point x="102" y="108"/>
			<point x="100" y="124"/>
			<point x="100" y="132" type="qcurve" smooth="yes"/>
			<point x="100" y="149"/>
			<point x="116" y="178"/>
			<point x="121" y="193" type="qcurve"/>
			<point x="133" y="190"/>
			<point x="143" y="190" type="qcurve" smooth="yes"/>
			<point x="154" y="190"/>
			<point x="173" y="195"/>
			<point x="181" y="197" type="qcurve"/>
			<point x="190" y="200" type="line"/>
			<point x="278" y="225"/>
			<point x="312" y="330" type="qcurve" smooth="yes"/>
			<point x="315" y="340"/>
			<point x="315" y="351" type="qcurve" smooth="yes"/>
			<point x="315" y="361"/>
			<point x="305" y="388"/>
			<point x="286" y="413"/>
			<point x="257" y="430"/>
			<point x="239" y="430" type="qcurve" smooth="yes"/>
			<point x="227" y="430"/>
			<point x="209" y="414"/>
			<point x="209" y="401" type="qcurve" smooth="yes"/>
			<point x="209" y="389"/>
			<point x="224" y="376"/>
			<point x="242" y="367"/>
			<point x="257" y="358"/>
			<point x="257" y="350" type="qcurve"/>
			<point x="242" y="303"/>
			<point x="179" y="248"/>
			<point x="144" y="248" type="qcurve" smooth="yes"/>
			<point x="140" y="248" type="line"/>
			<point x="151" y="276"/>
			<point x="176" y="326"/>
			<point x="196" y="346" type="qcurve"/>
			<point x="204" y="356"/>
			<point x="204" y="367" type="qcurve" smooth="yes"/>
			<point x="204" y="378"/>
			<point x="187" y="396"/>
			<point x="175" y="396" type="qcurve" smooth="yes"/>
			<point x="158" y="396"/>
			<point x="127" y="359"/>
			<point x="101" y="309"/>
			<point x="82" y="258"/>
			<point x="77" y="243" type="qcurve" smooth="yes"/>
			<point x="67" y="214"/>
			<point x="42" y="159"/>
			<point x="42" y="133" type="qcurve" smooth="yes"/>
			<point x="42" y="124"/>
			<point x="44" y="107"/>
			<point x="44" y="100" type="qcurve" smooth="yes"/>
			<point x="44" y="85"/>
			<point x="30" y="69"/>
			<point x="30" y="57" type="qcurve" smooth="yes"/>
			<point x="30" y="43"/>
			<point x="43" y="20"/>
			<point x="64" y="3"/>
			<point x="89" y="-7"/>
			<point x="101" y="-7" type="qcurve" smooth="yes"/>
			<point x="128" y="-7"/>
			<point x="170" y="10"/>
			<point x="203" y="37"/>
			<point x="228" y="69"/>
			<point x="239" y="83" type="qcurve"/>
			<point x="238" y="83" type="line"/>
			<point x="247" y="90"/>
		</contour>
	</outline>
</glyph>
<glyph name="f" format="2">
	<advance width="283"/>
	<unicode hex="0066"/>
	<note>
		f
  </note>
	<outline>
		<contour>
			<point x="-148" y="-287" type="qcurve" smooth="yes"/>
			<point x="-112" y="-287"/>
			<point x="-49" y="-233"/>
			<point x="4" y="-142"/>
			<point x="51" y="-22"/>
			<point x="93" y="109"/>
			<point x="131" y="242"/>
			<point x="150" y="302" type="qcurve" smooth="yes"/>
			<point x="165" y="350" type="line"/>
			<point x="176" y="345"/>
			<point x="198" y="342"/>
			<point x="209" y="342" type="qcurve" smooth="yes"/>
			<point x="221" y="342"/>
			<point x="246" y="343"/>
			<point x="268" y="350"/>
			<point x="282" y="363"/>
			<point x="282" y="375" type="qcurve" smooth="yes"/>
			<point x="282" y="388"/>
			<point x="263" y="404"/>
			<point x="251" y="404" type="qcurve"/>
			<point x="239" y="402"/>
			<point x="219" y="400"/>
			<point x="210" y="400" type="qcurve" smooth="yes"/>
			<point x="194" y="400"/>
			<point x="183" y="405" type="qcurve"/>
			<point x="198" y="474"/>
			<point x="244" y="586"/>
			<point x="288" y="631" type="qcurve" smooth="yes"/>
			<point x="309" y="652"/>
			<point x="322" y="652" type="qcurve" smooth="yes"/>
			<point x="325" y="652"/>
			<point x="345" y="639"/>
			<point x="359" y="611" type="qcurve" smooth="yes"/>
			<point x="367" y="595"/>
			<point x="384" y="595" type="qcurve" smooth="yes"/>
			<point x="397" y="595"/>
			<point x="413" y="612"/>
			<point x="413" y="623" type="qcurve" smooth="yes"/>
			<point x="413" y="630"/>
			<point x="410" y="636" type="qcurve" smooth="yes"/>
			<point x="375" y="709"/>
			<point x="321" y="709" type="qcurve" smooth="yes"/>
			<point x="285" y="709"/>
			<point x="247" y="671" type="qcurve" smooth="yes"/>
			<point x="192" y="615"/>
			<point x="140" y="481"/>
			<point x="126" y="412" type="qcurve"/>
			<point x="121" y="407"/>
			<point x="121" y="402" type="qcurve"/>
			<point x="95" y="319" type="line" smooth="yes"/>
			<point x="58" y="194"/>
			<point x="-11" y="-37"/>
			<point x="-59" y="-139" type="qcurve" smooth="yes"/>
			<point x="-68" y="-159"/>
			<point x="-94" y="-192"/>
			<point x="-121" y="-216"/>
			<point x="-144" y="-230"/>
			<point x="-150" y="-230" type="qcurve" smooth="yes"/>
			<point x="-162" y="-230"/>
			<point x="-191" y="-212"/>
			<point x="-213" y="-194" type="qcurve"/>
			<point x="-221" y="-188"/>
			<point x="-231" y="-188" type="qcurve" smooth="yes"/>
			<point x="-242" y="-188"/>
			<point x="-260" y="-205"/>
			<point x="-260" y="-217" type="qcurve" smooth="yes"/>
			<point x="-260" y="-230"/>
			<point x="-249" y="-239" type="qcurve" smooth="yes"/>
			<point x="-219" y="-263"/>
			<point x="-171" y="-287"/>
		</contour>
	</outline>
</glyph>
<glyph name="g" format="2">
	<advance width="380"/>
	<unicode hex="0067"/>
	<note>
		g
  </note>
	<outline>
		<contour>
			<point x="136" y="-263" type="qcurve" smooth="yes"/>
			<point x="173" y="-263"/>
			<point x="247" y="-247"/>
			<point x="305" y="-216"/>
			<point x="341" y="-171"/>
			<point x="341" y="-142" type="qcurve" smooth="yes"/>
			<point x="341" y="-118"/>
			<point x="319" y="-81"/>
			<point x="287" y="-53"/>
			<point x="251" y="-32"/>
			<point x="237" y="-24" type="qcurve" smooth="yes"/>
			<point x="219" y="-14"/>
			<point x="183" y="0"/>
			<point x="150" y="12"/>
			<point x="121" y="27"/>
			<point x="111" y="39" type="qcurve"/>
			<point x="133" y="59"/>
			<point x="186" y="88"/>
			<point x="219" y="104" type="qcurve" smooth="yes"/>
			<point x="287" y="136"/>
			<point x="347" y="255"/>
			<point x="347" y="346" type="qcurve" smooth="yes"/>
			<point x="347" y="351" type="line"/>
			<point x="366" y="348"/>
			<point x="386" y="348" type="qcurve" smooth="yes"/>
			<point x="400" y="348"/>
			<point x="420" y="361"/>
			<point x="420" y="377" type="qcurve" smooth="yes"/>
			<point x="420" y="388"/>
			<point x="404" y="404"/>
			<point x="393" y="404" type="qcurve" smooth="yes"/>
			<point x="363" y="404"/>
			<point x="298" y="420"/>
			<point x="260" y="420" type="qcurve" smooth="yes"/>
			<point x="232" y="420"/>
			<point x="174" y="399"/>
			<point x="147" y="369" type="qcurve" smooth="yes"/>
			<point x="112" y="331"/>
			<point x="87" y="254"/>
			<point x="87" y="218" type="qcurve" smooth="yes"/>
			<point x="87" y="191"/>
			<point x="98" y="129"/>
			<point x="109" y="108" type="qcurve"/>
			<point x="100" y="102"/>
			<point x="76" y="84"/>
			<point x="54" y="64"/>
			<point x="39" y="43"/>
			<point x="39" y="34" type="qcurve" smooth="yes"/>
			<point x="39" y="18"/>
			<point x="62" y="7"/>
			<point x="70" y="-1" type="qcurve"/>
			<point x="53" y="-18"/>
			<point x="11" y="-42"/>
			<point x="-12" y="-53" type="qcurve" smooth="yes"/>
			<point x="-23" y="-58"/>
			<point x="-57" y="-75"/>
			<point x="-88" y="-94"/>
			<point x="-110" y="-117"/>
			<point x="-110" y="-128" type="qcurve" smooth="yes"/>
			<point x="-110" y="-139"/>
			<point x="-97" y="-153"/>
			<point x="-88" y="-155" type="qcurve"/>
			<point x="-63" y="-203"/>
			<point x="54" y="-263"/>
		</contour>
		<contour>
			<point x="135" y="-207" type="qcurve" smooth="yes"/>
			<point x="75" y="-207"/>
			<point x="-19" y="-165"/>
			<point x="-37" y="-132" type="qcurve"/>
			<point x="-25" y="-124"/>
			<point x="1" y="-109"/>
			<point x="13" y="-103" type="qcurve"/>
			<point x="22" y="-99"/>
			<point x="51" y="-85"/>
			<point x="81" y="-67"/>
			<point x="110" y="-46"/>
			<point x="119" y="-35" type="qcurve"/>
			<point x="152" y="-51"/>
			<point x="212" y="-76"/>
			<point x="257" y="-100"/>
			<point x="284" y="-126"/>
			<point x="284" y="-141" type="qcurve" smooth="yes"/>
			<point x="284" y="-155"/>
			<point x="257" y="-179"/>
			<point x="213" y="-197"/>
			<point x="160" y="-207"/>
		</contour>
		<contour>
			<point x="259" y="364" type="qcurve" smooth="yes"/>
			<point x="282" y="364"/>
			<point x="291" y="350"/>
			<point x="291" y="330" type="qcurve" smooth="yes"/>
			<point x="291" y="288"/>
			<point x="274" y="228"/>
			<point x="240" y="185"/>
			<point x="190" y="152"/>
			<point x="158" y="136" type="qcurve"/>
			<point x="143" y="181"/>
			<point x="143" y="219" type="qcurve" smooth="yes"/>
			<point x="143" y="243"/>
			<point x="160" y="294"/>
			<point x="191" y="336"/>
			<point x="233" y="364"/>
		</contour>
	</outline>
</glyph>
<glyph name="h" format="2">
	<advance width="426"/>
	<unicode hex="0068"/>
	<note>
		h
  </note>
	<outline>
		<contour>
			<point x="229" y="-4" type="qcurve" smooth="yes"/>
			<point x="263" y="-4"/>
			<point x="327" y="63"/>
			<point x="377" y="163"/>
			<point x="406" y="280"/>
			<point x="406" y="330" type="qcurve" smooth="yes"/>
			<point x="406" y="367"/>
			<point x="389" y="413"/>
			<point x="364" y="439"/>
			<point x="338" y="447"/>
			<point x="329" y="447" type="qcurve" smooth="yes"/>
			<point x="314" y="447"/>
			<point x="284" y="432"/>
			<point x="258" y="412"/>
			<point x="235" y="390"/>
			<point x="226" y="383" type="qcurve"/>
			<point x="228" y="390"/>
			<point x="230" y="403"/>
			<point x="232" y="411" type="qcurve"/>
			<point x="237" y="441"/>
			<point x="262" y="501"/>
			<point x="289" y="562"/>
			<point x="312" y="625"/>
			<point x="316" y="658" type="qcurve"/>
			<point x="318" y="660"/>
			<point x="323" y="660" type="qcurve"/>
			<point x="331" y="663" type="line" smooth="yes"/>
			<point x="348" y="669"/>
			<point x="348" y="687" type="qcurve" smooth="yes"/>
			<point x="348" y="702"/>
			<point x="331" y="719"/>
			<point x="317" y="719" type="qcurve" smooth="yes"/>
			<point x="316" y="719"/>
			<point x="300" y="717"/>
			<point x="280" y="708"/>
			<point x="263" y="689"/>
			<point x="260" y="671" type="qcurve" smooth="yes"/>
			<point x="255" y="639"/>
			<point x="232" y="579"/>
			<point x="205" y="518"/>
			<point x="179" y="455"/>
			<point x="173" y="421" type="qcurve" smooth="yes"/>
			<point x="159" y="349"/>
			<point x="105" y="219"/>
			<point x="70" y="152" type="qcurve" smooth="yes"/>
			<point x="64" y="141"/>
			<point x="47" y="111"/>
			<point x="31" y="80"/>
			<point x="20" y="52"/>
			<point x="20" y="42" type="qcurve" smooth="yes"/>
			<point x="20" y="38"/>
			<point x="24" y="25"/>
			<point x="33" y="12"/>
			<point x="47" y="2"/>
			<point x="57" y="2" type="qcurve" smooth="yes"/>
			<point x="69" y="2"/>
			<point x="86" y="21"/>
			<point x="86" y="32" type="qcurve" smooth="yes"/>
			<point x="86" y="39"/>
			<point x="83" y="45" type="qcurve"/>
			<point x="114" y="111"/>
			<point x="183" y="243"/>
			<point x="207" y="316" type="qcurve"/>
			<point x="211" y="316" type="line" smooth="yes"/>
			<point x="236" y="316"/>
			<point x="273" y="338"/>
			<point x="301" y="365"/>
			<point x="320" y="387"/>
			<point x="328" y="387" type="qcurve" smooth="yes"/>
			<point x="330" y="387"/>
			<point x="347" y="364"/>
			<point x="347" y="330" type="qcurve" smooth="yes"/>
			<point x="347" y="310"/>
			<point x="337" y="253"/>
			<point x="320" y="192"/>
			<point x="297" y="132"/>
			<point x="270" y="84"/>
			<point x="242" y="55"/>
			<point x="229" y="55" type="qcurve" smooth="yes"/>
			<point x="220" y="55"/>
			<point x="190" y="63"/>
			<point x="172" y="63" type="qcurve" smooth="yes"/>
			<point x="158" y="63"/>
			<point x="128" y="49"/>
			<point x="128" y="32" type="qcurve" smooth="yes"/>
			<point x="128" y="19"/>
			<point x="146" y="2"/>
			<point x="158" y="2" type="qcurve" smooth="yes"/>
			<point x="161" y="2"/>
			<point x="167" y="4"/>
			<point x="172" y="4" type="qcurve" smooth="yes"/>
			<point x="184" y="4"/>
			<point x="212" y="-4"/>
		</contour>
	</outline>
</glyph>
